<svg width="67" height="55" viewBox="0 0 67 55" fill="none" xmlns="http://www.w3.org/2000/svg">
<path d="M35.4857 0C29.3345 0 24.0925 3.92934 22.2021 9.34153C20.1708 7.17368 17.269 5.79023 14.0465 5.79023C7.94849 5.79023 2.95704 10.6769 2.95704 16.6469C2.95704 19.4252 4.05186 21.9592 5.82222 23.8847H2.21801C1.62961 23.8847 1.06543 24.1134 0.649777 24.5208C0.233619 24.9277 0 25.4801 0 26.0561V52.1122C0 52.6882 0.233605 53.2406 0.649777 53.6475C1.06542 54.0549 1.6296 54.2836 2.21801 54.2836H8.27074C8.86482 54.2917 9.43672 54.067 9.85957 53.6586C10.2824 53.2507 10.5202 52.6938 10.5202 52.1122C10.5202 51.5311 10.2824 50.9742 9.85957 50.5663C9.43671 50.1578 8.86479 49.9327 8.27074 49.9412H4.43603V28.2279H47.3153V49.9412H15.6417C15.0476 49.9327 14.4757 50.1578 14.0528 50.5663C13.63 50.9742 13.3922 51.5311 13.3922 52.1122C13.3922 52.6938 13.63 53.2507 14.0528 53.6586C14.4757 54.067 15.0476 54.2917 15.6417 54.2836H49.5332C50.1216 54.2836 50.6857 54.0549 51.1014 53.6475C51.5176 53.2406 51.7512 52.6882 51.7512 52.1122V48.9007L63.3027 54.7586C63.9891 55.105 64.8101 55.0772 65.4702 54.6844C66.1302 54.2921 66.5345 53.5919 66.5371 52.8361V25.3325C66.5371 24.7448 66.2942 24.1819 65.8631 23.773C65.432 23.3635 64.8503 23.1429 64.25 23.1611C63.9189 23.1742 63.5956 23.259 63.3026 23.41L51.7511 29.2679V26.0564C51.7542 25.5177 51.5526 24.9972 51.1854 24.5958C50.8182 24.1944 50.3113 23.941 49.7641 23.885C49.6873 23.8809 49.6099 23.8809 49.5331 23.885H44.9357C47.7446 21.3667 49.5331 17.7558 49.5331 13.7523C49.5331 6.18289 43.2179 0.000527547 35.4864 0.000527547L35.4857 0ZM35.4857 4.34293C40.82 4.34293 45.0967 8.52986 45.0967 13.7522C45.0967 18.974 40.82 23.1609 35.4857 23.1609C30.1514 23.1609 25.8747 18.974 25.8747 13.7522C25.8747 8.52986 30.1514 4.34293 35.4857 4.34293ZM14.0461 10.1333C17.7472 10.1333 20.7 13.0236 20.7 16.647C20.7 20.2705 17.7472 23.1608 14.0461 23.1608C10.3455 23.1608 7.39269 20.2705 7.39269 16.647C7.39269 13.0236 10.3455 10.1333 14.0461 10.1333ZM23.9345 21.5554C24.5389 22.4102 25.2552 23.1846 26.037 23.8848H22.2709C22.9212 23.1775 23.4895 22.4101 23.9346 21.5554H23.9345ZM62.1007 28.9063V49.2626L51.7508 44.0149V34.1533L62.1007 28.9063Z" fill="white"/>
</svg>
