<svg width="90" height="86" viewBox="0 0 90 86" fill="none" xmlns="http://www.w3.org/2000/svg">
<path d="M36.6943 31.7998H62.0666V37.0011H36.6943V31.7998Z" fill="white"/>
<path d="M20.1368 48.02C18.1937 48.02 16.6182 46.513 16.6182 44.6588L16.6187 24.0507C16.6187 22.1945 18.1947 20.6895 20.1373 20.6895C22.0799 20.6895 23.6559 22.1945 23.6559 24.0507V44.6588C23.6554 46.5141 22.0794 48.02 20.1368 48.02Z" fill="white"/>
<path d="M30.1749 50.8682C28.2307 50.8682 26.6562 49.3622 26.6562 47.5054L26.6568 21.2939C26.6568 19.4376 28.2318 17.9326 30.1754 17.9326C32.1185 17.9326 33.694 19.4386 33.694 21.2939V47.5042C33.694 49.3619 32.118 50.8679 30.1749 50.8679L30.1749 50.8682Z" fill="white"/>
<path d="M13.6186 31.1631C12.1155 31.5446 11 32.8428 11 34.4006C11 35.9584 12.115 37.2556 13.6186 37.6372V31.1631Z" fill="white"/>
<path d="M78.6221 20.7803C80.5662 20.7803 82.1397 22.2863 82.1397 24.1425V44.7506C82.1397 46.6068 80.5652 48.1118 78.6221 48.1118C76.679 48.1118 75.1045 46.6058 75.1045 44.7506V24.1425C75.1045 22.2853 76.679 20.7803 78.6221 20.7803Z" fill="white"/>
<path d="M68.584 17.9326C70.5281 17.9326 72.1042 19.4386 72.1042 21.2953V47.5069C72.1042 49.3632 70.5271 50.8682 68.584 50.8682C66.6423 50.8682 65.0664 49.3622 65.0664 47.5069V21.2953C65.0654 19.4386 66.6424 17.9326 68.584 17.9326Z" fill="white"/>
<path d="M85.1396 37.6362C86.6443 37.2547 87.7588 35.9575 87.7588 34.3996C87.7588 32.8418 86.6443 31.5437 85.1396 31.1621V37.6362Z" fill="white"/>
</svg>
