<svg width="950" height="620" viewBox="0 0 950 620" fill="none" xmlns="http://www.w3.org/2000/svg">
<path d="M781.68 324.4L779.37 333.08L766.84 337.31L763.09 332.91L761.27 333.41L764.67 346.53L769.76 347.1L776.55 349.67V352.24L779.66 351.67L784.19 345.4V340.27L786.74 335.14L789.57 335.71L786.17 328.58L785.65 323.99L781.68 324.4Z" fill="#BBBBBB"/>
<path d="M852.76 348.29L852.39 372.73L855.91 372.54L860.54 367.13L864.43 367.32L866.93 369.56L867.76 376.46L875.72 380.66L877.76 379.91V377.39L871.37 372.07L868.22 364.79L870.72 363.58L868.87 359.57L865.17 359.48L864.24 355.19L854.43 348.57L852.76 348.29Z" fill="#BBBBBB"/>
<path d="M137.49 225.43L142.32 240.64L140.07 241.9L140.32 244.92L144.57 248.19V254.24L149.82 259.28L147.57 244.42L144.57 234.59L145.32 227.79L147.82 228.04L148.82 230.31L147.82 236.1L160.82 261.54V270.61L171.32 282.95L182.82 288.24L187.57 285.47L194.32 291.01L198.32 286.98L196.57 282.44L202.32 280.68L204.07 281.69L205.82 279.93H208.57L213.57 271.11L211.07 268.84L201.32 271.11L199.07 277.66L193.32 278.67L186.57 275.9L183.57 266.33L185.84 254.26L181.2 251.37L178.99 239.78L177.14 238.99L173.76 242.42L169.88 240.35L168.36 232.62L152.99 231.01L145.05 225.04L137.49 225.43Z" fill="#BBBBBB"/>
<path d="M517.77 143.66L512.17 143.46L508.62 145.63L508.57 147.24L510.87 149.41L518.02 150.62L517.77 143.66Z" fill="#BBBBBB"/>
<path d="M473.88 227.49L469.8 226.12L452.82 229.31L449.12 232.12L451.38 243.79L444.63 244.06L440.57 250.59L430.9 252.91L430.93 257.66L462.78 282.01L468.21 282.47L486.32 268.32L484.51 266.04L481.11 265.58L479.07 262.16V248.01L477.71 246.64L477.94 242.99L474.32 239.34L473.87 235.46L475.45 234.32L474.77 230.21L473.88 227.49Z" fill="#BBBBBB"/>
<path d="M448.29 232.28H436.74L434.48 237.3L429.27 239.81L424.97 251.45L416.59 256.47L404.82 275.86L416.37 275.63L416.82 269.93H419.76V262.17H429.95L430.18 252.13L439.92 249.85L444 243.23L450.34 243L448.29 232.28Z" fill="#BBBBBB"/>
<path d="M404.9 276.66L407.08 279.51L406.63 291.83L409.8 289.55L412.06 289.09L415.23 290.23L418.85 295.25L422.25 292.97L438.78 292.74L434.7 265.13L439.08 265.11L430.92 258.86L430.93 262.92L420.6 262.93L420.55 270.68L417.58 270.67L417.2 276.39L404.9 276.66Z" fill="#BBBBBB"/>
<path d="M410.12 290.32L406.18 293.18L405.28 294.78L405 296.38L406.45 297.42L411.29 297.35L414.4 296.51L414.75 298.04L414.47 300.06L417.44 301.52L418.06 302.22L422 302.36L422.14 300.62L418.54 296.3L414.53 290.87L412.04 289.83L410.12 290.32Z" fill="#BBBBBB"/>
<path d="M406.89 298.34L406.76 299.45L413.68 299.35L414.03 298.32L413.88 297.28L411.89 298.09L406.89 298.34Z" fill="#BBBBBB"/>
<path d="M406.79 300.22L408.03 303.23L408.72 301.37L417.13 302.25L413.49 300.38L406.79 300.22Z" fill="#BBBBBB"/>
<path d="M408.6 304.53L410 307.3L413.93 303.92L413.97 302.88L409.34 302.21L408.6 304.53Z" fill="#BBBBBB"/>
<path d="M410.42 307.94L413.46 312.62L417.42 309.18L421.48 309L424.86 313.49L427.73 315.38L428.81 313.28L429.77 312.74L429.7 308.12L427.79 302.64L421.93 303.29L414.68 302.71L414.64 304.57L410.42 307.94Z" fill="#BBBBBB"/>
<path d="M413.93 313.13L419.58 318.59L423.61 313.7L421.09 309.75L417.62 310.1L413.93 313.13Z" fill="#BBBBBB"/>
<path d="M420.17 319.19L431.15 326.53L430.89 320.97L427.57 317.06L424.33 314.19L420.17 319.19Z" fill="#BBBBBB"/>
<path d="M432.07 326.75L436.35 323.72L441.67 322.79L447.1 323.96L444.33 319.77L443.52 317.21L444.33 309.64L439.48 309.87L437.28 307.77L432.66 307.89L430.46 308.24L430.69 313.36L429.53 313.83L428.14 316.39L431.72 320.58L432.07 326.75Z" fill="#BBBBBB"/>
<path d="M419.46 295.84L422.54 293.73L439.66 293.63L435.7 266.09L440.22 265.96L462.09 282.65L465.03 283.07L463.92 292.35L450.17 293.6L439.56 301.52L437.63 306.94L430.26 307.25L428.38 301.84L422.73 302.24L422.95 300.47L419.46 295.84Z" fill="#BBBBBB"/>
<path d="M450.59 294.28L454.23 293.99L460.2 302.43L454.66 306.61L450.65 305.58L445.26 305.65L444.39 308.81L439.87 309.03L438.63 307.34L440.23 302.2L450.59 294.28Z" fill="#BBBBBB"/>
<path d="M460.89 302L463.44 301.94L465.74 298.49L469.6 297.8L473.71 300.31L482.48 300.56L489.26 297.8L491.81 295.61L492 292.73L496.73 287.96L497.98 277.43L494.87 270.91L486.91 268.97L468.49 283.33L465.88 283.08L464.76 293.05L455.36 293.99L460.89 302Z" fill="#BBBBBB"/>
<path d="M444.34 317.05L445.46 319.68L448.38 324.26L450 324.2L454.42 321.69L454.11 307.4L450.69 306.4L445.9 306.53L444.34 317.05Z" fill="#BBBBBB"/>
<path d="M455.22 321.25L457.9 319.68L457.84 309.33L456.1 306.51L454.98 307.45L455.22 321.25Z" fill="#BBBBBB"/>
<path d="M458.71 319.49H460.83L460.95 313.47L463.63 309.58L463.51 302.81L461.08 302.75L456.91 306.01L458.65 309.33L458.71 319.49Z" fill="#BBBBBB"/>
<path d="M461.57 319.37L465.49 319.56L470.22 324.83L472.52 325.46L474.32 324.58L477.06 324.2L477.99 320.38L481.72 317.93L485.76 317.74L493.16 304.13L493.04 301.06L489.62 298.43L482.78 301.44L473.63 301.31L469.27 298.55L466.16 299.24L464.54 302.06L464.42 310.02L461.81 313.72L461.57 319.37Z" fill="#BBBBBB"/>
<path d="M474.91 227.33L480.44 225.1L482.26 226.28L482.33 227.72L481.48 228.83L481.61 230.8L482.46 231.26V234.8L481.48 236.44L481.61 237.49L485.32 238.8L482.33 243.45L481.16 243.38L480.96 247.12L479.66 247.32L478.55 246.34L478.81 242.54L475.17 239L474.71 235.92L476.47 234.54L474.91 227.33Z" fill="#BBBBBB"/>
<path d="M480.05 248.03L481.61 247.77L482.07 244.17H482.85L486.04 238.93L493.91 241.22L496.06 244.56L503.8 248.1L507.83 246.4L507.44 244.7L505.68 243L505.88 241.82L508.74 239.4H514.4L516.55 242.28L521.1 242.94L521.69 279.83L518.31 279.7L497.89 269.08L495.68 270.33L487.29 268.23L485.01 265.22L481.69 264.76L480 261.75L480.05 248.03Z" fill="#BBBBBB"/>
<path d="M521.93 243.06L524.6 243.13L529.8 244.57L532.27 244.64L535.33 242.08H536.76L539.36 243.52H542.65L543.24 243.48L545.32 249.46L545.91 251.39L546.46 254.28L545.48 255L543.79 254.15L541.84 247.79L540.08 247.66L539.95 249.82L541.12 253.56L550.49 265.16L550.69 270.14L547.96 273.29L522.32 273L521.93 243.06Z" fill="#BBBBBB"/>
<path d="M492.79 296L492.92 293.05L497.66 288.44L498.93 277.12L495.77 271.08L497.98 269.95L519.38 281.1L519.25 292.04L515.48 295.25V300.89L517.95 305.67H513.59L506.37 312.81L506.18 314.97L500.85 314.9L500.78 315.88L497.74 315.48L495.66 311.55L494.1 310.78L494.3 309.58L496.26 308.08V301.06L493.55 300.64L490.28 298.21L492.79 296Z" fill="#BBBBBB"/>
<path d="M549.084 310.34L546.141 305.396L545.832 301.801L545.125 301.936L544.934 303.043L541.076 308.678L537.998 307.209L534.928 309.781L528.576 309.416L525.766 307.17L521.732 309.234L521.58 310.609L520.35 311.35L532.67 324.029L539.381 324.41L540.359 325.9L549.961 326.07L550.039 323.92L550.859 322.43L554.061 322.02L550.07 316.23H547.131L546.381 312.119L548.74 311.08L549.084 310.34Z" fill="#BBBBBB"/>
<path d="M552 270.609L548.311 274.33L522.51 274.1L522.789 280.67L520.33 280.6L520.15 292.43L516.42 295.641L516.27 300.58L518.961 305.891L521.91 307.631L521.865 308.045L525.885 305.986L528.951 308.436L534.59 308.76L537.848 306.031L540.734 307.406L543.984 302.658L544.258 301.082L546.734 300.611L547.119 305.082L549.596 309.242L555.6 296.33V288.48L559.961 283.34L552 270.609Z" fill="#BBBBBB"/>
<path d="M477.82 324.28L481.04 327.24L480.81 331.82L498.47 331.41L499.91 329.79L494.85 324.34L494.1 322.37L497.32 316.34L495.13 312.34L493.29 311.35V309.32L495.42 307.93L495.54 301.61L493.85 301.42L493.82 304.74L486.4 318.59L481.86 318.82L478.75 320.96L477.82 324.28Z" fill="#BBBBBB"/>
<path d="M556.71 294.7L556.46 288.81L560.42 284.19L561.49 285.01L563.44 291.53L572.8 298.5L571.1 300.59L564.25 294.7H556.71Z" fill="#BBBBBB"/>
<path d="M571.48 301.54L570.91 304.9L574.87 304.84L574.93 299.9L573.48 299.01L571.48 301.54Z" fill="#BBBBBB"/>
<path d="M549.49 311.76L556.77 295.56L564 295.6L570.41 301.17L569.96 305.76H574.93L575.44 308.52L583.48 313.33L588.44 313.58L579.01 323.71L566.06 327.7H562.85L557.13 322.82L554.87 321.87L550.49 315.42L547.6 315.46L547.26 312.5L549.49 311.76Z" fill="#BBBBBB"/>
<path d="M575.74 305.04L579.82 307.82L581.03 307.76L591.16 304.28L592.31 307.99L591.5 311.12L589.31 312.86L583.84 312.51L576.01 307.7L575.74 305.04Z" fill="#BBBBBB"/>
<path d="M599.62 299.65L601.75 302.03L604.63 300.29L605.67 299.94L604.35 298.66L601.82 299.41L599.62 299.65Z" fill="#BBBBBB"/>
<path d="M591.97 304.05L596.34 302.37L597.89 303.3L597.72 307.18L593.69 318.66L571.88 342.02L569.35 340.28L569.18 330.42L572.46 326.65L579.42 324.5L589.63 313.72L592.3 311.34L593.05 307.86L591.97 304.05Z" fill="#BBBBBB"/>
<path d="M495.66 324.05L500.32 329.09L502.16 326.71L505.09 326.83L505.72 324.51L508.6 322.71L514.58 326.83L518.03 323.41L531.42 324L519 311.18L520.67 310.14L520.9 307.88L518.08 306.55H513.94L507.27 313.16L507.04 315.88L501.75 315.71L501.58 316.87L498.13 316.52L495.02 322.43L495.66 324.05Z" fill="#BBBBBB"/>
<path d="M470.74 337.15L471.89 336.57L472.75 337.27L471.89 338.6L470.85 338.19L470.74 337.15Z" fill="#BBBBBB"/>
<path d="M473.05 333.5L474.78 333.21L475.36 334.31L474.5 335.24L473.64 335.12L473.05 333.5Z" fill="#BBBBBB"/>
<path d="M476.84 327.41L476.38 329.38L477.76 330.13L479.08 329.14L478.62 327.11L476.84 327.41Z" fill="#BBBBBB"/>
<path d="M486.39 332.63L486.27 335.12L480.63 335L477.18 341.67L485.29 350.54L487.3 348.86L487.24 347.12L485.86 346.48V345.26L488.97 343.29L491.73 345.38L494.78 345.44L494.72 334.95L489.89 334.72L489.83 332.52L486.39 332.63Z" fill="#BBBBBB"/>
<path d="M480.99 332.69L480.93 334.08L485.47 334.31L485.41 332.74L480.99 332.69Z" fill="#BBBBBB"/>
<path d="M491 332.52L490.94 333.97L495.72 334.09L495.89 346.5L491.52 346.38L488.99 344.41L487.03 345.51L486.94 346.06L487.95 346.55L488.24 349.1L485.54 351.42L486.12 352.64L489.11 350.32H490.55L491.01 351.71L492.91 352.52L499.01 347.36L498.89 343.59L500.16 340.52L504.07 337.62L505.12 327.81L502.34 327.82L499.12 332.23L491 332.52Z" fill="#BBBBBB"/>
<path d="M486.55 353.23L488.29 355.49L490.54 353.36L489.88 351.15L489.32 351.11L486.55 353.23Z" fill="#BBBBBB"/>
<path d="M489.38 355.71L499.69 355.53L501.78 358.5L501.7 360.69L502.47 361.39H507.59L509.06 358.5H511.15L512 359.36L514.87 359.28L515.72 369.36L520.68 369.52V370.3L534.01 376.31L534.63 377.48H537.42L537.11 373.26L532.07 370.84L532.38 367.64L534.55 362.56L539.51 362.4L535.25 348.26L535.33 342.25L542.07 331.71L542.15 330.23L541.14 329.68L541.18 326.82L539.95 326.71L538.71 325.13L518.36 324.21L514.63 327.84L508.52 323.82L506.37 325.14L504.81 338.27L500.95 341.25L499.79 343.89L500 347.8L493.04 353.49L491.19 352.65L491.44 353.74L489.38 355.71Z" fill="#BBBBBB"/>
<path d="M537.82 339.9L540.63 342.49L540.51 345.26L536.15 345.35V342.29L537.82 339.9Z" fill="#BBBBBB"/>
<path d="M536.21 346.21L540.48 346.12L539.37 349.86L538.29 350.8H536.97L536.03 348.27L536.21 346.21Z" fill="#BBBBBB"/>
<path d="M538.3 339.09L541.33 341.93L543.23 340.72L548.37 339.88L549.25 339.97L549.58 338.02L552.48 331.92L550.04 326.84L542.13 326.89L542.08 328.98L543.14 330L542.98 332.09L538.3 339.09Z" fill="#BBBBBB"/>
<path d="M550.83 326.52L553.49 331.71L550.3 338.4L549.88 340.43L565.81 350.28L570.75 342.52L568.25 340.49L568.2 330.27L571.33 326.85L566.34 328.51L562.57 328.56L556.67 323.58L554.81 322.78L551.36 323.1L550.75 324.12L550.83 326.52Z" fill="#BBBBBB"/>
<path d="M550.57 371.42L568.04 369.28L564.11 361.68L563.9 354.4L565.17 350.92L548.55 340.48L543.34 341.34L541.53 342.68L541.37 345.73L540.2 349.96L538.98 351.41L537.23 351.57L540.58 363.18L546.05 365.75L549.82 365.86L550.57 371.42Z" fill="#BBBBBB"/>
<path d="M514.55 384.7L517.72 389.1L522.63 389.4L524.37 390.36L529.51 390.42L533.94 384.21L546.32 378.67L547.4 373.79L545.96 366.8L539.5 363.12L535.19 363.42L533.04 368.18L533.1 370.35L538.18 372.82L538.48 378.19L534.11 378.43L533.03 376.62L520.89 371.44L520.53 375.42L514.79 375.6L514.55 384.7Z" fill="#BBBBBB"/>
<path d="M488.62 356.71L492.03 369.44L491.95 373.46L486.96 378.82L486.21 387.53L505.41 387.7L511.65 389.96L516.8 389.29L513.8 385.53L513.81 374.79L519.71 374.54V370.35L514.92 370.15L513.96 360.23L511.94 360.26L510.85 359.28L509.66 359.34L508.08 362.4H502L500.59 360.98L501.01 358.97L499.35 356.54L488.62 356.71Z" fill="#BBBBBB"/>
<path d="M547.16 379.4L550.27 382.65L550.21 386.81L550.81 388.56L554.94 384.1L554.46 378.43L552.25 376.74L550.28 366.79L546.87 366.67L548.42 373.84L547.16 379.4Z" fill="#BBBBBB"/>
<path d="M541.17 413.28L543.86 415.51L550.2 411.65L551.22 405.92V396.46L561.39 388.14L563.13 388.2L569.29 382.29L568.33 370.11L552 372.17L552.48 375.85L555.29 378.02L555.95 384.65L550.45 390.02L549.13 387.01L549.37 383.03L546.2 379.59L538.42 383.21L545.66 386.89L545.9 397.62L541.11 404.73L541.17 413.28Z" fill="#BBBBBB"/>
<path d="M524.66 392.3L533.63 402.43L540.51 404.18L545.12 396.95L544.76 387.37L537.28 383.51L534.47 384.78L530.28 391.17L524.48 391.11L524.66 392.3Z" fill="#BBBBBB"/>
<path d="M496.55 421.96L499.9 422.2L501.87 424.19L506.54 424.25L507.68 410.99V402.31L510.67 401.71L511.81 392.61L519.41 392.37L522.1 390.14L517.55 389.96L511.39 390.8L504.75 388.39H486.09L486.57 393.69L492.79 402.85L491.71 407.55L491.77 410.02L496.55 421.96Z" fill="#BBBBBB"/>
<path d="M508.51 411.23L510.66 411.89L510.36 418.04L512.57 418.34L517.65 413.76L523.75 414.42L525.37 410.32L533.09 403.27L523.82 392.6L523.7 390.85L522.68 390.55L519.87 393.14L512.57 393.32L511.55 402.42L508.68 403.08L508.51 411.23Z" fill="#BBBBBB"/>
<path d="M540.87 414L538.36 414.42L537.28 417.37L539.2 419.12H541.53L543.5 416.29L540.87 414Z" fill="#BBBBBB"/>
<path d="M527.41 425.39L530.46 423.04L531.9 423.1L533.64 425.27L533.46 427.44L530.53 428.52V429.36L527.3 429.18L526.52 426.83L527.41 425.39Z" fill="#BBBBBB"/>
<path d="M534.16 403.63L526.26 410.93L524.38 415.44L518.12 414.66L512.91 419.29L509.45 418.95L509.73 412.55L508.5 412.12L507.64 425.21L501.5 425.15L499.65 422.97L496.94 422.94L499.41 430.03L503.82 434.2L500.67 437.87L502.71 442.47L507.43 444.27L511.19 441.07L521.96 441.13L522.73 440.17L527.51 439.33L543.68 423.23L543.62 418.16L541.89 420.4H539.3L536.15 417.76L537.75 413.78L540.5 413.22L540.25 405.04L534.16 403.63ZM530.37 422.13L531.88 422.07L534.33 424.73L534.26 427.81L531.39 429.26L531.21 430.28L526.83 430.33L525.46 427.03L526.71 424.61L530.37 422.13Z" fill="#BBBBBB"/>
<path d="M321.13 50.0701L319.77 52.2401L322.22 54.6901L321.13 57.1401L324.67 61.7601L329.02 60.4001L334.73 59.8601L341.26 66.9301L345.61 78.6201L342.08 85.9601L346.97 85.1401L349.69 86.7701L349.96 90.3101L343.98 90.5801L347.24 93.8401L351.32 94.6601L342.35 106.62L341.26 113.96L343.16 119.94L341.8 123.48L344.25 131.09L348.87 136.26L350.23 135.99L353.22 135.17L353.49 139.52L355.39 142.24L358.92 141.97L361.64 131.91L369.8 121.85L382.04 116.96L389.65 107.44L393.18 109.07H400.52L406.5 103.09L413.84 100.1L414.66 95.4801L410.04 91.4001L405.96 90.0401L403.78 84.3301L408.95 81.3401L417.11 85.6901L419.83 82.7001L415.48 80.2501L424.73 67.7401L423.1 62.3001L418.75 62.0301L420.38 57.1401L425.82 54.6901L436.97 44.9001L433.71 41.3701L421.2 42.4601L414.67 48.9901L418.48 40.5601L414.13 39.4701L411.68 43.8201L408.15 40.8301L398.36 41.9201L401.08 37.5701L417.12 37.0301L413.04 31.5901L395.64 28.3301L388.57 29.4201L388.84 32.9601L381.5 30.5101L381.77 28.0601L376.6 29.1501L375.51 31.8701L380.95 33.7701L375.24 37.8501L371.16 33.2301L365.45 31.6001L364.63 35.9501H358.92L356.74 31.3301L347.77 29.9701L342.88 32.4201L342.61 35.6801L336.36 34.8601L332.55 36.4901L332.82 40.3001V42.2001L325.75 43.5601L322.49 41.3901L320.31 44.9201L323.57 48.4601L330.37 47.6401L330.91 49.8201L325.74 52.2701L321.13 50.0701Z" fill="#BBBBBB"/>
<path d="M342.89 92.49L344.52 94.94L343.7 97.93H342.07L339.89 95.48L340.43 93.58L342.89 92.49Z" fill="#BBBBBB"/>
<path d="M410.87 85.6899L415.49 87.0499L415.22 90.8599L410.33 88.4099L409.24 87.0499L410.87 85.6899Z" fill="#BBBBBB"/>
<path d="M319.57 556.47L317.08 556.97L316.53 559.52L321.29 558.82L319.57 556.47Z" fill="#BBBBBB"/>
<path d="M761.17 427.98L760.82 453.36L756.92 456.22L756.57 458.72L761.89 462.29L775.02 459.79H781.76L784.24 456.21L799.14 453.35L809.78 456.57L809.07 460.86L810.49 465.15L818.65 463.72L819 465.86L813.68 469.79L815.45 471.22L819.35 469.79L818.29 481.59L825.74 487.31L830 485.88L832.13 488.02L844.55 486.23L856.26 467.28L860.52 466.21L869.03 450.48L871.16 436.9L865.84 430.11L867.97 428.68L863.71 415.45L859.1 412.23L859.81 394.36L855.55 391.14L854.49 381.13H852.36L845.26 404.72L841.36 405.08L832.49 396.14L837.46 382.91L828.24 381.12L817.95 383.98L815.11 392.2L810.5 393.27L810.15 387.55L791.35 398.99L791.7 403.28L788.86 407.21H781.76L766.5 413.64L761.17 427.98Z" fill="#BBBBBB"/>
<path d="M825.74 496.26L823.97 503.41L824.32 508.41L829.64 508.05L835.67 498.76L825.74 496.26Z" fill="#BBBBBB"/>
<path d="M913.02 481.96L914.08 493.76L912.66 499.12L907.34 503.05L907.69 507.7V512.7L909.11 514.49L923.66 501.98V499.12H920.11L915.14 482.32L913.02 481.96Z" fill="#BBBBBB"/>
<path d="M902.38 507.7L905.22 513.06L897.41 520.57L896.7 524.5L891.38 525.21L882.51 533.43L874.35 529.5L873.64 526.64L888.54 520.21L902.38 507.7Z" fill="#BBBBBB"/>
<path d="M906.64 420.47L906.29 422.26L910.9 428.69L913.38 429.76L913.73 427.26L906.64 420.47Z" fill="#BBBBBB"/>
<path d="M722.48 317.57L722.2 319.85L728.99 331.26H730.97L745.12 354.93L750.78 355.5L753.61 347.23L749.08 344.38L748.23 339.82L722.48 317.57Z" fill="#BBBBBB"/>
<path d="M764.14 332.92L767.16 336.41L778.74 332.4L781.03 323.56L786.19 323.19L790.91 319.77L784.79 315.31L783.39 312.86L780.37 318.43L781.48 321.63L779.64 324.3L776.17 323.41L767.76 329.58L767.98 333.15L764.14 332.92Z" fill="#BBBBBB"/>
<path d="M779.77 319.25L776.89 322.74L779.25 323.48L780.58 321.62L779.77 319.25Z" fill="#BBBBBB"/>
<path d="M789.53 349.11L791.79 351.88L790.32 356.04V356.83H793.66L794.84 346.43L795.92 346.73L797.88 356.23L799.75 356.73L801.52 352.67L799.75 346.53L798.28 343.86L802.9 340.49L801.82 339L797.4 341.87H796.22L794.06 338.7L794.75 337.31L798.39 335.53L803.89 337.21L805.56 337.11L809.69 333.25L808.02 331.57L804.19 334.54H801.73L798 332.76L795.35 332.86L792.4 337.61L790.53 345.83L789.53 349.11Z" fill="#BBBBBB"/>
<path d="M814.19 330.5L812.32 335.05L815.27 338.91H816.25L817.53 336.34L818.22 335.45L816.94 334.06L815.07 333.37L814.19 330.5Z" fill="#BBBBBB"/>
<path d="M819.99 345.45L815.96 346.34L814.78 347.63L815.76 349.31L818.41 348.32L820.08 347.33L822.54 349.31L823.62 348.42L821.66 346.04L819.99 345.45Z" fill="#BBBBBB"/>
<path d="M753.17 358.32L750.42 360.2L751.01 361.78L759.76 363.76L764.18 364.55L766.05 366.53L771.06 366.93L773.42 368.91L775.58 368.41L777.55 366.63L773.91 364.95L770.77 362.28L762.61 360.3L753.17 358.32Z" fill="#BBBBBB"/>
<path d="M781.77 366.93L779.61 368.12L780.89 369.51L784.03 368.32L781.77 366.93Z" fill="#BBBBBB"/>
<path d="M785.5 366.04L785.89 367.92L788.15 368.51L789.03 367.42L788.05 365.93L785.5 366.04Z" fill="#BBBBBB"/>
<path d="M790.91 370.99L788.16 371.39L790.62 373.47H792.58L790.91 370.99Z" fill="#BBBBBB"/>
<path d="M791.69 367.72L791.1 368.91L795.52 369.6L798.96 367.62L797 367.03L793.86 367.92L792.68 366.93L791.69 367.72Z" fill="#BBBBBB"/>
<path d="M806.14 368.42L801.03 372.68L801.52 373.77L803.68 373.37L806.23 370.99L811.24 370.3L810.26 368.62L806.14 368.42Z" fill="#BBBBBB"/>
<path d="M880.48 349L879.6 350.25L884.41 354.51L885.07 357.01L886.38 356.86L886.53 354.29L885.07 352.97L880.48 349Z" fill="#BBBBBB"/>
<path d="M882.89 355.03L881.94 355.25L881.36 357.82L879.54 359L874.07 359.96L874.29 362.02L880.05 361.73L883.7 359.45L883.48 355.48L882.89 355.03Z" fill="#BBBBBB"/>
<path d="M889.38 359.51L890.62 362.96L892.81 365.09L893.47 364.5L893.25 362.22L890.77 359.21L889.38 359.51Z" fill="#BBBBBB"/>
<path d="M895.43 364.65L895.58 366.93L896.97 368.25L898.28 367.44L897.11 365.01L895.43 364.65Z" fill="#BBBBBB"/>
<path d="M897.18 370.31L896.01 371.56L897.25 373.84L898.71 374.28L898.64 372.74L897.18 370.31Z" fill="#BBBBBB"/>
<path d="M900.03 368.99L901.05 371.49L903.02 373.84L904.11 372.08L902.65 369.58L900.03 368.99Z" fill="#BBBBBB"/>
<path d="M905.14 372.74L905.72 375.83L907.11 377.74L908.28 375.32L905.14 372.74Z" fill="#BBBBBB"/>
<path d="M906.74 379.65L906.23 380.53L907.91 382.74L909.08 382.81L908.35 379.94L906.74 379.65Z" fill="#BBBBBB"/>
<path d="M903.02 384.05L901.27 384.86L902.8 386.99L904.11 386.25L903.02 384.05Z" fill="#BBBBBB"/>
<path d="M920.87 397.22L919.63 398.88L920.15 400.75L920.77 401.17L921.9 399.71L920.87 397.22Z" fill="#BBBBBB"/>
<path d="M921.49 402.31L921.59 403.66L922.93 404.08L923.86 403.56L922.93 402.1L921.49 402.31Z" fill="#BBBBBB"/>
<path d="M923.45 414.37L922.83 415.31L923.76 416.35L925.31 415.83L923.45 414.37Z" fill="#BBBBBB"/>
<path d="M948.62 412.29L947.38 413.95L947.28 415.82L948.72 417.28L948.62 412.29Z" fill="#BBBBBB"/>
<path d="M789.37 297.53L788.51 299.17L788.03 301.19L783.25 307.26L783.54 308.51L785.55 308.22L791.76 301.28L789.37 297.53Z" fill="#BBBBBB"/>
<path d="M797.11 295.22L797.01 300.23L798.83 302.06L799.5 305.62L801.32 306.01L802.18 303.79L800.75 302.73L800.37 296.47L797.11 295.22Z" fill="#BBBBBB"/>
<path d="M802.28 297.15L802.18 301.58L803.23 303.31L805.05 301.19L804.57 297.34L802.28 297.15Z" fill="#BBBBBB"/>
<path d="M803.42 293.29L805.24 295.7L806.1 298.01H807.73L807.44 294.06L805.62 292.81L803.42 293.29Z" fill="#BBBBBB"/>
<path d="M806.96 302.35L807.34 305.24L803.99 307.94L801.22 308.23L798.26 311.41L798.36 312.86L801.13 311.99L803.04 310.74L804.67 314.88L807.54 316.9L808.69 316.51L809.74 315.26L807.45 312.95L808.79 311.89L810.32 313.14L811.37 311.41L810.32 309.29L810.13 304.57L806.96 302.35Z" fill="#BBBBBB"/>
<path d="M791.38 272.97L788.8 274.8L788.51 280.58L792.53 288.38L793.87 289.44L795.59 288.28L798.55 288.76L799.12 291.36L801.32 291.55L802.37 290.11L801.03 288.28L799.4 286.74L795.96 286.36L794.14 283.37L796.24 280.19L796.43 277.4L795 273.84L791.38 272.97Z" fill="#BBBBBB"/>
<path d="M792.72 290.21L793.48 292.91L794.82 293.78L795.78 292.53L794.25 290.41L792.72 290.21Z" fill="#BBBBBB"/>
<path d="M759.83 270.17L757.44 270.84L755.72 272.96L757.15 275.75L759.25 275.94L761.64 273.82L762.21 271.03L759.83 270.17Z" fill="#BBBBBB"/>
<path d="M787.46 248.31L783.92 251.01L783.73 256.21L786.79 259.77L787.55 259.1L787.46 248.31Z" fill="#BBBBBB"/>
<path d="M803.23 216.42L801.6 218.06L802.27 220.37L803.7 220.47L804.66 225.48L805.81 226.73L807.82 224.9L808.68 221.62L806.19 218.06L803.23 216.42Z" fill="#BBBBBB"/>
<path d="M812.03 213.15L809.26 215.75L809.16 218.74L809.83 219.61L813.56 216.43L813.27 213.25L812.03 213.15Z" fill="#BBBBBB"/>
<path d="M808.2 206.98L803.32 212.57L804.18 213.92L806.57 214.21L811.06 210.74L814.22 210.16L817.09 213.53L819.29 212.76L820.15 209.48L824.26 209.38L828.28 204.56L826.18 196.56L825.22 192.32L827.32 190.59L822.54 183.37L821.3 183.47L818.72 186.36V188.77L819.87 190.12L820.25 196.48L817.29 200.14L815.57 199.08L814.23 202.07L813.94 204.86L814.99 206.5L814.32 207.75L812.12 205.92H810.59L809.25 206.69L808.2 206.98Z" fill="#BBBBBB"/>
<path d="M816.43 163.44L814.9 164.79L815.67 167.68L817.01 169.03L816.91 173.46L815.19 174.13L813.85 177.12L817.77 182.51L820.35 181.64L820.83 180.29L818.06 177.79L819.78 175.57L821.6 175.86L823.03 177.4L823.13 174.22L827.05 171.04L829.25 170.46L827.43 167.38L826.57 166.03L825.14 166.99L823.9 168.53L821.22 167.95L818.45 166.12L816.43 163.44Z" fill="#BBBBBB"/>
<path d="M830.86 160.45L828.18 164.21L828.37 166.04L829.71 165.46L832.86 161.51L830.86 160.45Z" fill="#BBBBBB"/>
<path d="M834.4 154.96L833.44 157.56L833.54 159.29L835.17 158.23L836.7 155.15V154L834.4 154.96Z" fill="#BBBBBB"/>
<path d="M840.04 132.03L838.8 133.57L838.9 135.98L840.05 135.88L841.96 132.51L840.04 132.03Z" fill="#BBBBBB"/>
<path d="M837.75 137.91V142.15L839.09 142.63L840.05 141.09V137.82L837.75 137.91Z" fill="#BBBBBB"/>
<path d="M798.64 122.59L798.55 128.76L806.29 140.71L809.06 151.11L813.94 160.36L815.85 161.03L817.48 159.68L818.24 157.46L811.26 149.85L811.45 145.9L812.98 145.23L813.36 142.92L799.69 123.56L798.64 122.59Z" fill="#BBBBBB"/>
<path d="M852.57 103.42L850.66 103.61L851.81 105.25L854.2 106.89L854.87 106.12L852.57 103.42Z" fill="#BBBBBB"/>
<path d="M856.29 104.58L856.58 106.22L859.54 107.09L859.83 105.93L856.29 104.58Z" fill="#BBBBBB"/>
<path d="M872.54 110.87L873.79 113.11L875.87 112.97L876.29 111.43L872.54 110.87Z" fill="#BBBBBB"/>
<path d="M893.51 114.37L895.18 117.45L896.43 116.05V113.95L893.51 114.37Z" fill="#BBBBBB"/>
<path d="M907.81 104.57L905.45 107.65L906 109.05L908.92 107.23L909.2 105.41L907.81 104.57Z" fill="#BBBBBB"/>
<path d="M919.61 94.9199L917.53 97.4399L919.75 98.2799L919.61 94.9199Z" fill="#BBBBBB"/>
<path d="M922.53 90.72L921.14 92.96L921.28 95.2L923.22 94.36L922.53 90.72Z" fill="#BBBBBB"/>
<path d="M881.29 38.3899L878.93 39.9299L878.37 41.8899L879.48 43.1499L881.98 42.3099L884.48 43.1499L885.87 43.5699L885.73 38.9499L881.29 38.3899Z" fill="#BBBBBB"/>
<path d="M69.17 53.3501L72.63 59.8201L74.85 59.3201V57.0801L69.17 53.3501Z" fill="#BBBBBB"/>
<path d="M883.4 17.5401L879.18 25.1101L887.26 30.2201L896.31 22.6301L901.81 31.8001L896.07 32.9801L893.8 38.8601L906.51 56.0801L914.16 57.3501L925.19 59.5201L926.55 55.5201L930.4 57.0001L931.13 73.7501L924 85.6201L927.44 86.3701L936.42 67.4501L939.15 53.2901L933.61 50.7001L932.72 31.7001L936.99 32.5301L936.95 43.9601L941.61 48.0301L944.33 38.1001L942.15 32.2001L948.73 35.3501L949.42 0.360107L873.66 0.500107L869.3 3.85011L869.89 10.6201L883.32 12.4601L893.63 10.1101L889.93 17.0301L883.4 17.5401Z" fill="#BBBBBB"/>
<path d="M1.17004 54.9501L15.18 56.5201L17.52 61.3601L28.68 54.8201L47.36 52.2101L48.66 42.5401L58 39.1401L64.1 33.3901V41.2301L70.33 49.7301L83.3 41.5001L77.07 34.4401L69.29 13.4001L59.94 2.67007L53.32 2.15007L53.06 7.90007L47.61 10.6501L45.92 7.25007L49.16 0.320068L1.30004 0.450068L1.17004 54.9501Z" fill="#BBBBBB"/>
<path d="M78.49 3.32007L74.6 6.85007L75.77 9.46007L77.85 8.02007L79.02 9.33007L82.9 7.90007L82.77 5.68007L78.49 3.32007Z" fill="#BBBBBB"/>
<path d="M49.66 110.26L49.49 113.27L51.65 112.77V111.43L49.66 110.26Z" fill="#BBBBBB"/>
<path d="M46.34 111.6L42.02 113.78L42.69 116.12L44.35 114.78L47.67 113.27L46.34 111.6Z" fill="#BBBBBB"/>
<path d="M28.39 114.44L25.4 113.77L24.9 115.11L25.23 117.62L28.39 114.44Z" fill="#BBBBBB"/>
<path d="M22.07 114.28L19.24 113.11L18.24 114.95L20.07 116.79L22.07 114.28Z" fill="#BBBBBB"/>
<path d="M12.27 111.6L10.94 109.76L9.60999 110.26V112.77L11.11 113.77L12.27 111.6Z" fill="#BBBBBB"/>
<path d="M1.46997 99.71L3.12997 100.88L2.62997 102.22H1.46997V99.71Z" fill="#BBBBBB"/>
<path d="M622.76 499.62L622.61 503.91L628.55 505.29L629.92 501.76L627.79 502.37L625.05 502.98L624.29 499.76L622.76 499.62Z" fill="#BBBBBB"/>
<path d="M613.01 398.99L611.49 400.98L611.79 403.13L614.99 400.52L613.01 398.99Z" fill="#BBBBBB"/>
<path d="M607.38 402.37L605.1 402.52L604.95 404.51L606.47 404.82L608.75 403.75L607.38 402.37Z" fill="#BBBBBB"/>
<path d="M592.3 372.92L590.17 377.98L586.52 384.42L580.13 384.88L577.39 388.1L577.85 397.92L573.89 402.52L574.35 410.34L577.7 414.17L581.66 413.71L585.62 410.79L584.71 406.19L593.84 390.39L592.01 388.4L593.84 384.57L595.82 385.18L596.43 383.65L594.6 375.83L593.53 372.61L592.3 372.92Z" fill="#BBBBBB"/>
<path d="M577.69 371.23L578.15 372.76L580.13 373.07L580.89 371.08L577.69 371.23Z" fill="#BBBBBB"/>
<path d="M580.58 374.3L581.34 375.99H582.56L583.17 373.84L580.58 374.3Z" fill="#BBBBBB"/>
<path d="M602.35 358.34L601.74 359.57L603.41 360.95L604.63 359.57L602.35 358.34Z" fill="#BBBBBB"/>
<path d="M610.88 349.14L609.05 350.37L610.42 352.52H612.25L610.88 349.14Z" fill="#BBBBBB"/>
<path d="M611.64 354.51L610.42 355.89L611.33 357.27L613 357.58L613.15 354.66L611.64 354.51Z" fill="#BBBBBB"/>
<path d="M656.4 320.76L656.7 323.37L658.37 323.98L658.67 321.68L656.4 320.76Z" fill="#BBBBBB"/>
<path d="M658.53 326.28L658.38 329.5L659.6 330.11L660.67 327.96L658.53 326.28Z" fill="#BBBBBB"/>
<path d="M658.84 332.57L657.77 333.64L658.99 334.71L660.51 333.64L658.84 332.57Z" fill="#BBBBBB"/>
<path d="M372.64 217.02L371.28 218.39L373.72 219.76L373.99 217.85L372.64 217.02Z" fill="#BBBBBB"/>
<path d="M379.97 216.2L378.34 217.29L379.7 218.38L381.87 217.83L379.97 216.2Z" fill="#BBBBBB"/>
<path d="M381.05 220.03L380.24 222.22L381.32 223.59L382.68 222.5L381.05 220.03Z" fill="#BBBBBB"/>
<path d="M387.56 224.4L387.02 225.77L387.83 226.59L390 225.22L387.56 224.4Z" fill="#BBBBBB"/>
<path d="M408.18 236.42L407.1 237.79L408.18 239.16L409.81 238.34L408.18 236.42Z" fill="#BBBBBB"/>
<path d="M415.62 253.73L413.87 254.74L414.68 255.56L415.62 253.73Z" fill="#BBBBBB"/>
<path d="M409.54 253.92L407.37 254.47L408.45 256.11H410.08L409.54 253.92Z" fill="#BBBBBB"/>
<path d="M404.38 252.28L403.02 253.65L404.92 255.29L406 252.83L404.38 252.28Z" fill="#BBBBBB"/>
<path d="M387.56 290.54L385.66 291.63L387.02 292.72L388.65 291.9L387.56 290.54Z" fill="#BBBBBB"/>
<path d="M392.23 292.74L390.99 293.84L391.87 295.47L393.99 294.52L392.23 292.74Z" fill="#BBBBBB"/>
<path d="M389.52 295.83L387.93 296.78L389.64 299.07L390.99 298.36L389.52 295.83Z" fill="#BBBBBB"/>
<path d="M9.99999 248.7L9.85999 251.03L11.9 252.4L13.12 251.31L9.99999 248.7Z" fill="#BBBBBB"/>
<path d="M15.29 252.13L13.39 253.5L15.02 255.55L16.92 253.91L15.29 252.13Z" fill="#BBBBBB"/>
<path d="M19.1 255.41L17.47 257.6L18.01 258.97L20.32 257.88L19.1 255.41Z" fill="#BBBBBB"/>
<path d="M21.81 259.65L20.86 265.12L21.81 267.17L24.93 266.21L26.56 263.47L23.16 260.32L21.81 259.65Z" fill="#BBBBBB"/>
<path d="M27.25 402.68L25.35 402.54L25.21 404.32L26.7 405.28L28.47 404.19L27.25 402.68Z" fill="#BBBBBB"/>
<path d="M33.7701 404.6L31.05 406.38L33.09 408.84L34.8601 408.43L35.8101 407.2L33.7701 404.6Z" fill="#BBBBBB"/>
<path d="M276.6 283.37L275.1 283.99L275.63 285.32L277.39 284.17L277.04 283.81L276.6 283.37Z" fill="#BBBBBB"/>
<path d="M279.07 284.88L278.19 286.75L279.25 288.17L280.57 287.02L279.07 284.88Z" fill="#BBBBBB"/>
<path d="M282.07 290.03L281.01 291.01L281.8 292.61L283.3 292.17L282.07 290.03Z" fill="#BBBBBB"/>
<path d="M281.98 294.03L281.27 295.54L282.42 296.78L283.92 295.98L281.98 294.03Z" fill="#BBBBBB"/>
<path d="M282.07 297.85L280.84 298.74L281.81 300.52L283.4 299.63L282.07 297.85Z" fill="#BBBBBB"/>
<path d="M280.57 301.31L279.42 302.46L279.86 303.17H281.27L281.71 302.01L280.57 301.31Z" fill="#BBBBBB"/>
<path d="M282.24 304.78L281.18 305.76L280.03 305.94V307.36L282.15 309.31L283.03 307.89L283.56 306.29L283.38 304.96L282.24 304.78Z" fill="#BBBBBB"/>
<path d="M271.05 281.06L268.41 280.17L266.29 281.5L267.35 282.74L270.96 283.27L271.05 281.06Z" fill="#BBBBBB"/>
<path d="M250.87 275.38L249.2 277.09L251.11 277.87L251.39 280.26L247.16 280.63L247.59 282.93L248.82 283.02L249.53 281.96L254.47 282.12L255.36 283.83L256.5 282.49L259.83 281.59L262.76 282.21L263.1 280.44L257.82 276.99L254.4 275.71L250.87 275.38Z" fill="#BBBBBB"/>
<path d="M263.11 280.44L257.82 276.98L255.32 276.13L254.48 282.13L255.36 283.82L256.51 282.49L259.86 281.6L262.77 282.22L263.11 280.44Z" fill="#BBBBBB"/>
<path d="M250.86 275.38L254.3 275.74L253.89 279.96L253.55 282.18L249.54 281.96L248.83 283.03L247.6 282.94L247.16 280.63L251.39 280.28L251.13 277.88L249.19 277.08L250.86 275.38Z" fill="#BBBBBB"/>
<path d="M307.95 508.18L305.32 507.89L302.7 509.65L304.6 511.71L307.95 508.18Z" fill="#BBBBBB"/>
<path d="M310.57 506.86L309.7 509.65L307.22 511.85L307.37 512.58L311.6 510.96L313.35 508.76L310.57 506.86Z" fill="#BBBBBB"/>
<path d="M406.36 117.31L404.4 116.2L401.76 117.87L399.49 119.97L399.55 121.14L402.49 121.51L402.31 123.61L401.27 124.66L401.52 125.34L404.46 125.53V128.93L408.69 129.67L411.2 131.09L414.02 131.21L418.86 128.8L422.6 123.86L422.66 120.52L420.39 118.6L418.49 116.99L417.63 117.61L416.34 119.28L414.87 119.09L413.4 117.48L411.5 117.66L408.74 119.95L407.08 121.74L406.16 120.94L406.1 118.96L407.02 118.34L406.36 117.31Z" fill="#BBBBBB"/>
<path d="M488.26 53.96L486.61 52.3L482.95 54.0801H476.23L475.17 58L478.94 61.3301L480.59 61.09L482.95 57.05L484.95 58.48L483.53 61.3301L482.82 65.49L484.47 68.1L488.01 62.16L492.61 56.57L490.84 55.03L488.26 53.96Z" fill="#BBBBBB"/>
<path d="M490.26 46.83L487.31 49.56L489.08 52.29H492.26L493.56 54.07L497.45 56.09L501.93 53.48L505 50.87L503.94 48.73L500.87 46.95L498.63 48.97L497.1 47.07L495.92 47.19L494.39 50.52L492.15 48.26L491.91 46.72L490.26 46.83Z" fill="#BBBBBB"/>
<path d="M496.98 59.0701L494.62 61.2101L492.62 62.7501L493.56 64.4101L495.45 65.0001L498.52 63.5701L499.94 61.7901L498.64 59.6501L496.98 59.0701Z" fill="#BBBBBB"/>
<path d="M547.82 38.79L549.54 39.48L548.33 41.56V44.51L545.75 46.07H543L541.45 44.16L541.62 42.08L542.83 40.52H545.24L547.82 38.79Z" fill="#BBBBBB"/>
<path d="M554.36 36.88V38.96L556.08 40.35L558.49 40.18L560.56 38.27V36.88H558.67L557.12 37.4L555.91 36.01L554.36 36.88Z" fill="#BBBBBB"/>
<path d="M564.18 37.0599L565.39 39.6599L567.8 39.8299L569.52 39.1399L568.66 36.7099L566.42 36.1899L564.18 37.0599Z" fill="#BBBBBB"/>
<path d="M573.99 33.59L572.1 33.24L570.38 34.98L571.24 36.54L571.76 38.97L574 37.24L574.52 35.33L573.99 33.59Z" fill="#BBBBBB"/>
<path d="M584.49 51.98L583.97 54.41L580.01 57.88L571.57 59.79L564.68 71.24L563.47 74.54L570.36 76.28L571.39 72.12L573.46 65.7L578.8 62.92L583.28 59.45L586.55 58.06H588.27V53.38L584.49 51.98Z" fill="#BBBBBB"/>
<path d="M562.28 77.3101L566.93 77.8301L568.48 83.2101L572.44 87.3701L571.06 90.1501H568.65L566.41 87.5501L561.42 87.3801L559.35 84.6001V82.6901L562.45 81.8201L562.28 77.3101Z" fill="#BBBBBB"/>
<path d="M634.95 18.15L632.71 16.76H630.13L629.61 18.32L626.86 19.88L624.79 20.57L624.45 22.65L629.27 23L634.95 18.15Z" fill="#BBBBBB"/>
<path d="M640.28 18.6699L639.07 21.2699L636.66 21.0999L632.87 23.8799L631.84 27.3499H634.25L635.63 25.0899L638.9 27.5199L642 26.1299L644.24 24.2199L643.38 21.2699L642.17 19.1899L640.28 18.6699Z" fill="#BBBBBB"/>
<path d="M645.28 20.5801L646.49 25.4401L648.38 29.9501L650.45 26.3101L654.41 25.4401V22.8401L651.83 20.9301L645.28 20.5801Z" fill="#BBBBBB"/>
<path d="M739.76 12.7999L742.45 15.0599L744.36 14.2699L744.92 11.0999L741 8.38989L738.42 10.0899L732.14 10.6599V13.4899L725.52 13.5999V18.2299L733.26 23.9899L735.28 22.5199L734.83 18.4499L739.77 17.2099L738.76 15.2899L736.97 13.4799L739.76 12.7999Z" fill="#BBBBBB"/>
<path d="M746.94 10.09L748.73 13.48L755.69 12.69L757.6 10.2L757.15 8.05001L755.24 7.26001L753.45 8.62001L748.29 9.75001L746.94 10.09Z" fill="#BBBBBB"/>
<path d="M746.49 23.3099L743.01 22.4099L741 24.5599L740.1 27.4999L744.81 27.0499L748.4 25.2399L746.49 23.3099Z" fill="#BBBBBB"/>
<path d="M836.68 3.76011L833.76 2.86011L830.4 4.10011L828.72 6.59011L830.85 9.42011L836.46 6.93011L837.58 5.69011L836.68 3.76011Z" fill="#BBBBBB"/>
<path d="M680.54 308.05L680.79 310.77L681.04 312.75L679.57 313L680.31 317.45L682.52 318.69L685.95 316.71L684.97 312.02L685.22 310.29L682.03 307.33L680.54 308.05Z" fill="#BBBBBB"/>
<path d="M220.85 266.92V268.19L226.17 268.29L228.68 266.83L229.07 267.9L234.29 269.17L238.93 273.36L237.87 274.82L238.06 276.48L241.93 277.45L245.8 275.7L247.54 273.95L245.03 272.68L232.08 265.08L227.54 264.59L220.85 266.92Z" fill="#BBBBBB"/>
<path d="M239.61 259.13L238.35 258.74L238.25 261.17L239.8 262.73L240.86 261.17L239.61 259.13Z" fill="#BBBBBB"/>
<path d="M242.12 262.93L240.38 263.9L242.02 266.24L242.89 265.07L242.12 262.93Z" fill="#BBBBBB"/>
<path d="M247.73 264.68L245.89 264.58L246.08 265.75L247.43 267.7L248.59 266.43L247.73 264.68Z" fill="#BBBBBB"/>
<path d="M246.86 262.35L243.86 261.08L243.28 258.06L244.44 257.57L245.6 259.91L246.76 260.79L246.86 262.35Z" fill="#BBBBBB"/>
<path d="M243.96 256.21L242.41 255.82L242.12 253.87L240.48 253.29L241.54 252.22L243.47 252.9L244.92 253.78L243.96 256.21Z" fill="#BBBBBB"/>
<path d="M238.93 279.59L235.45 280.47V281.44L237.48 282.61H239.61L240.96 281.05L238.93 279.59Z" fill="#BBBBBB"/>
<path d="M831.93 339.34L827.76 339.81L825.08 341.77L826.19 344.01L830.73 344.85V345.69L827.86 348.02L829.25 352.87L830.64 352.96L831.84 348.2H834.06L834.99 352.86L845.82 361.82L846.1 368.82L849.8 372.83L851.47 372.74L851.84 348.02L845.55 343.64L839.62 347.65L837.49 348.96L833.97 346.72L833.88 339.63L831.93 339.34Z" fill="#BBBBBB"/>
<path d="M93.11 44.89L84.72 46.88L86.45 56.33L95.58 58.82L96.07 60.81L82.5 65.04L74.85 77.72L77.56 91.15L82 94.13L85.46 90.9L86.45 92.89L82.25 97.86L65.96 105.32L55.59 107.81L55.34 111.54L79.28 104.58L89.15 101.84L98.28 90.65L108.4 83.94L103.22 92.64L108.9 93.39L118.53 89.16L120.26 96.12L126.92 97.61L133.83 104.32L134.32 109.29L133.33 110.53L134.56 115.25H136.29L136.54 107.29H138.51L139 126.93L143.94 122.7L140.48 102.31H135.3L129.62 95.1L157.51 47.85L129.87 26.22L99.02 32.19L97.79 41.64L104.45 45.62L101.98 52.09L93.11 44.89Z" fill="#BBBBBB"/>
<path d="M194.97 338.18L194.35 340.93L193.2 342.09L193.99 343.51L196.02 342.71L196.99 341.02L196.37 339.24L194.97 338.18Z" fill="#BBBBBB"/>
<path d="M203.73 35.8899L203.95 39.9099L195.97 48.1799L197.97 54.8799L203.73 53.3199L207.06 48.3999L215.48 45.2699L222.35 44.8199L217.03 39.0099L214.37 41.0199L212.37 40.3499L211.26 37.8899L208.82 35.4299L203.73 35.8899Z" fill="#BBBBBB"/>
<path d="M214.15 24.0499L212.38 27.1799L221.03 30.3099L224.13 25.6199L225.46 28.7499H227.68L231.89 24.0599L226.79 22.7199L224.79 21.1599L222.13 23.8399L214.15 24.0499Z" fill="#BBBBBB"/>
<path d="M229.23 30.3101L222.36 33.2101V35.4401L231.23 38.7901L229.23 41.0201L230.56 43.9201L236.1 41.4601H240.76L242.98 45.0301L246.75 41.2301L245.86 37.6501L242.76 38.7701L242.32 34.3001L243.87 31.6201H242.32L239.88 33.1801L238.77 34.0701L239.44 37.2001L237.67 38.5401L235.01 38.3201L234.34 34.3001L229.23 30.3101Z" fill="#BBBBBB"/>
<path d="M238.32 23.3799L237.65 25.6099L241.86 27.6199L244.96 25.8299L244.74 24.4899L238.32 23.3799Z" fill="#BBBBBB"/>
<path d="M241.64 19.5801L238.54 20.7001L238.76 22.2601L245.63 21.8101L245.41 20.2501L241.64 19.5801Z" fill="#BBBBBB"/>
<path d="M256.5 23.3799L256.06 24.9399L254.95 26.4999V28.7299L259.16 28.0599L263.59 31.8599H265.14V28.0599L260.71 23.1399L256.5 23.3799Z" fill="#BBBBBB"/>
<path d="M267.81 27.8499L269.58 29.8599L268.03 32.5399L269.14 35.4399L274.02 32.7599V30.7499L271.14 27.3999L267.81 27.8499Z" fill="#BBBBBB"/>
<path d="M274.24 22.7101L274.46 26.2801H280.45L282 27.6201L281.78 29.1801L276.46 29.8501L280.23 34.9901L285.33 35.8801L292.42 32.7501L282.22 17.3301L279.12 19.3401L279.34 22.0201L275.79 20.6801L274.24 22.7101Z" fill="#BBBBBB"/>
<path d="M222.58 47.96L214.16 50.19L209.28 54.44L209.72 59.13L218.59 61.81L216.59 66.28L210.16 62.26L208.39 65.61L212.6 68.51L212.38 73.2L218.81 74.99L226.57 74.54L227.9 72.08L233.66 78.56L237.65 77.22L238.32 72.75L241.2 74.76L241.64 70.29L238.09 68.06L238.31 53.99L235.21 51.53L231.89 56L222.58 47.96Z" fill="#BBBBBB"/>
<path d="M249.63 57.79L246.75 56.45L245.2 58.46L248.3 63.38L248.52 68.07L255.17 64.05V58.24L257.61 55.78L255.17 53.99H251.18L249.63 57.79Z" fill="#BBBBBB"/>
<path d="M263.82 55.78L259.16 59.58L260.27 64.27H263.15L264.48 61.81L266.48 63.82L268.48 63.6L273.8 59.13L263.82 55.78Z" fill="#BBBBBB"/>
<path d="M263.37 48.3999L262.26 50.6299L267.14 52.4199L268.47 50.4099L263.37 48.3999Z" fill="#BBBBBB"/>
<path d="M260.49 39.9099L255.61 40.5799L252.73 43.2599L258.05 43.4799L256.5 47.4999L257.61 49.2899L259.16 49.0699L262.93 43.0399L260.49 39.9099Z" fill="#BBBBBB"/>
<path d="M268.92 38.3501L266.26 39.2401L266.7 42.8101L271.13 45.7101L271.35 47.9401L270.02 49.2801L270.69 53.7501L287.76 59.3301L292.42 60.8901L297.08 56.8701L291.54 52.4001L286.44 53.7401L279.35 53.0701L276.69 50.3901L276.02 43.0201L271.59 40.7901L268.92 38.3501Z" fill="#BBBBBB"/>
<path d="M282.88 61.5899L278 61.1399L272.24 63.3699L269.14 67.6099L270.03 79.2299L279.56 79.6799L288.65 84.1499L295.08 91.5199L299.96 91.2999L298.63 98.2199L294.2 105.59L289.32 107.82L285.77 107.15L284 105.59L281.34 109.16L282.45 112.73L286.22 112.95L290.88 110.72L294.87 121L304.85 127.48L311.72 118.77L305.96 109.39L309.29 105.59L313.95 113.41L322.37 106.04L320.82 102.69L315.06 104.48L311.07 93.5299L314.84 87.2799L307.3 79.2399L303.09 82.1399L299.1 73.4299L290.68 74.5499L288.46 64.0499L281.59 68.7399L280.92 74.5499H277.15L277.59 69.4099L282.88 61.5899Z" fill="#BBBBBB"/>
<path d="M292.86 65.6101L291.09 67.4001L292.64 69.8601L299.96 70.7501L295.3 65.8301L292.86 65.6101Z" fill="#BBBBBB"/>
<path d="M285.77 40.3599V42.3699L280.89 43.4899L282.22 45.7199L287.76 47.9499L293.97 48.6199L298.4 51.7499L302.83 49.2899L299.73 46.1599H303.72L306.16 43.4799L312.15 42.5899V41.2499L308.82 39.0199L309.26 36.5599L318.57 38.1199L332.32 32.7599L327.22 31.1999L328.55 29.4099H339.19L340.96 27.6199L319.45 20.0199L314.35 18.2299L308.81 22.2499L302.6 17.1099L299.27 16.8899L298.6 21.1399L294.39 17.3399L289.51 18.8999L290.4 21.3599L297.72 22.9199L297.28 26.4899L301.27 28.9499L311.03 26.4899L311.25 29.8399L303.27 33.6399L298.39 29.8399L293.96 30.2899L298.39 36.5499L296.17 37.6699L292.84 34.7699L290.4 36.3299L292.62 40.5699H296.39L295.5 44.5899L292.4 44.1399L288.41 39.8899L285.77 40.3599Z" fill="#BBBBBB"/>
<path d="M266.01 101.85L261.78 107.17L261.52 113.03L265.22 110.9H269.71L272.88 113.83L275.79 111.43L266.01 101.85Z" fill="#BBBBBB"/>
<path d="M317.52 171.05L306.95 181.17L308.01 183.57L320.95 188.36L322.8 185.17L321.74 179.85L317.51 180.38L315.13 177.72L319.09 173.73L317.52 171.05Z" fill="#BBBBBB"/>
<path d="M158.22 48.6599L160.21 51.6699L161.21 55.6899L166.19 56.9399L169.68 53.1799L172.67 54.6899L181.14 55.4399L187.12 52.9299L188.12 61.2099H191.61V57.6999L195.1 57.9499L203.82 68.2399L209.55 71.7499L206.56 76.5199L207.81 77.7699L219 80.0299L219.25 85.0499L222.24 85.5499L222.99 78.0199L227.72 76.7699L231.21 82.0399L238.68 85.5499L242.42 86.2999L244.91 83.2899L245.16 78.5199L249.64 75.7599L251.13 79.7799L247.14 86.8099L247.64 90.3199L249.88 86.8099L254.36 82.7899L254.61 77.5199L252.12 73.4999L252.87 70.2399L258.85 67.2299L261.59 69.2399L262.09 86.8099L266.32 83.0499L268.81 84.5599L265.32 90.5799L269.8 91.5799L276.28 81.5399L281.76 87.3099L279.52 97.5999L274.04 100.61L268.81 98.0999L259.35 100.11L260.35 103.37L257.86 107.39L250.14 109.15L241.42 115.93L233.7 126.22L232.7 129.48L237.93 131.49L239.92 136.51L247.14 143.79L258.6 148.81L256.11 160.35L255.86 163.61L258.85 165.62L262.84 160.35L263.34 150.31L269.57 150.06L272.56 144.29L273.06 135.51L281.03 119.95L290.99 123.46L296.22 130.74L293.98 138.02L297.97 140.28L307.68 133.75L310.42 151.57L319.39 162.36L319.64 167.88L309.68 170.39L304.95 175.41L294.99 173.15L290.01 172.9L281.29 179.68L286.52 178.43L293 177.18L294.25 178.69L292.51 184.21L292.76 189.23L295.75 191.24L298.74 190.49L300.24 188.23H302.23L298.99 194.25L292.76 194.5L290.02 198.52H286.53L285.53 195.51L290.51 190.49L284.53 192.5L284.26 183.97L282.54 182.97L277.31 185.23L276.81 189.5H264.85L254.64 196.53L240.94 201.05L239.45 199.04L246.35 188.74L242.43 184.97L239.94 180.19L234.87 176.32L229.43 175.87L219.68 169.04L148.97 157.42L147.8 152.63L141.32 146.61V141.59L142.32 137.07L141.82 134.56L139.33 132.05L138.83 128.03L145.31 123.51L141.32 101.93L135.84 101.68L130.86 95.1499L158.22 48.6599Z" fill="#BBBBBB"/>
<path d="M148.76 158.34L147.76 162.36L144.27 160.1H142.53L141.53 164.37L129.32 191.73L132.56 215.57L136.55 217.58L137.3 224.11H145.52L153.49 230.13L169.18 231.64L170.92 239.67L173.41 241.43L176.9 237.92L179.64 239.17L182.13 250.71L186.36 253.47L189.85 246.94L200.56 239.16L207.53 242.42L213.51 242.92L213.76 239.16L226.21 239.41L228.7 242.17L229.2 248.44L227.71 251.95L229.45 257.97H233.19L236.93 252.2L235.44 249.44L233.95 243.42L236.19 236.64L246.4 227.86L254.12 225.6L253.12 218.32L263.83 206.77L274.54 205.01L272.8 199L283.26 192.98V184.95L282.26 184.45L278.52 185.7L278.02 190.62L265.59 190.77L255.85 197.24L240.56 202.24L238.12 199.25L245.06 188.75L241.63 185.48L239.3 181.04L234.47 177.16L229.22 176.72L219.3 169.95L148.76 158.34Z" fill="#BBBBBB"/>
<path d="M133.83 128.41L132.13 131.67L132.72 133.98L133.83 134.67L133.57 135.61L132.38 135.95L132.72 139.38L134 140.67L135.02 139.56L133.74 136.22L134.5 133.56L136.37 131.07L135.01 128.76L133.83 128.41Z" fill="#BBBBBB"/>
<path d="M139.45 147.95L137.92 148.55L140.73 151.81L141.41 155.67L144.22 158.67L146.6 158.24V154.3L143.71 152.5L139.45 147.95Z" fill="#BBBBBB"/>
<path d="M194.88 291.52L200.81 295.86L206.79 288.43L205.77 286.89L203.73 286.82V282.47L202.2 281.54L197.57 282.92L199.34 287L194.88 291.52Z" fill="#BBBBBB"/>
<path d="M207.55 288.78L216.79 288.43L219.53 291.69L217.82 291.3L214.53 291.44L210.23 295.48L208.39 299.57L207.18 298.93L207.17 294.45L204.51 292.67L207.55 288.78Z" fill="#BBBBBB"/>
<path d="M201.65 296.27L206.35 298.61L206.28 294.9L203.87 293.43L201.65 296.27Z" fill="#BBBBBB"/>
<path d="M217.74 292.11L219.93 292.55L220 297.04L217.45 304.32L210.58 303.64L209.05 300.13L211.09 295.87L214.96 292.27L217.74 292.11Z" fill="#BBBBBB"/>
<path d="M217.38 304.98L218.77 307.7L219.9 309.2L218.38 313.71L215.48 311.67L210.74 307.33V304.46L217.38 304.98Z" fill="#BBBBBB"/>
<path d="M220.59 309.61L219.13 314.17L223.95 315.42L226.94 316.01L227.45 312.48L230.66 310.86L233.51 312.33L234.63 314.12L235.99 313.96L237.06 310.71L233.5 309.24L230.8 307.77L228.1 309.61L224.89 311.23L221.61 309.91L220.59 309.61Z" fill="#BBBBBB"/>
<path d="M253.73 299.78L251.67 299.57L238.05 310.8L236.61 314.75L234.75 314.96L235.58 323.69L230.83 335.34L235.99 339.71L242.6 340.13L247.14 346.79L253.74 347L253.53 351.99H256L258.68 342.84L256.2 339.72L256.82 333.9L261.98 333.48L261.36 319.96L249.8 316.22L247.12 308.94L253.73 299.78Z" fill="#BBBBBB"/>
<path d="M250.46 305.92L250.9 308.51L254.15 309.54L254.89 304.77L258.32 301.22L261.75 305.24L269.64 307.39L276.32 305.99L280.87 311.6L284.3 313.75L280.54 319.48L281.8 323.82L279.65 326.48L277.42 328.35L272.59 325.92L271.48 327.04V330.5L275.01 332.18L272.41 334.99L269.81 337.8L266.38 337.52L262.93 333.73L262.2 319.47L250.42 315.45L248.28 309.18L250.46 305.92Z" fill="#BBBBBB"/>
<path d="M285.05 314.13L292.27 320.67L289.4 323.99L289.17 325.96L292.94 329.85L292.85 333.59L286.29 336.09L282.36 330.78L283.2 324.4L281.52 319.65L285.05 314.13Z" fill="#BBBBBB"/>
<path d="M293.13 321.14L295.17 323.01L298.33 321.05L301.21 321.14L300.84 322.26L299.63 324.78L299.44 331.05L293.69 333.39L293.97 329.37L290.26 325.91L290.45 324.13L293.13 321.14Z" fill="#BBBBBB"/>
<path d="M302.13 321.8L307.98 325.45L304.92 331.53L303.81 332.93L300.56 331.06L300.65 324.51L302.13 321.8Z" fill="#BBBBBB"/>
<path d="M230.2 335.85L225.47 338.79L225.13 343.15L224.18 344.58L227.16 347.44L225.87 348.85L226.17 352.45L231.5 353.72L239.57 344.17L239.55 340.84L235.68 340.59L230.2 335.85Z" fill="#BBBBBB"/>
<path d="M225.03 349.52L223.09 351.48L223.22 354.61L240.16 385.49L257.75 396.83L260.47 392.27L261.12 382.24L259.7 375.99L254.91 367.91L252.06 368.82L250.77 370.25L245.08 363.73L246.5 356.04L253.1 351.74L252.58 347.7L245.86 347.44L242.37 341.58L240.43 340.93L240.56 344.45L231.9 354.74L225.43 353.18L225.03 349.52Z" fill="#BBBBBB"/>
<path d="M258.71 372.79L266.94 369.2L269.66 369.46L271.47 377.02L284.01 381.19L286.08 387.58L291.25 388.23L293.45 393.7L291.9 398.65L283.49 399.3L280.39 407.25L273.79 407.12L271.72 406.73L267.91 410.43L266.03 410.25L259.56 395.26L261.35 392.58L261.98 381.98L260.38 375.67L258.71 372.79Z" fill="#BBBBBB"/>
<path d="M291.76 399.51L293.96 401.91L293.7 406.99L300.04 406.6L304.83 412.73L304.44 418.2L301.34 422.89L295 423.15L294.74 420.54L296.55 416.24L290.34 412.33H285.17L281.29 408.16L284.11 400.1L291.76 399.51Z" fill="#BBBBBB"/>
<path d="M300.36 431.93L298.31 434.12L299.16 445.9L305.6 447.77L313.79 439.56L300.36 431.93Z" fill="#BBBBBB"/>
<path d="M305.47 418.2L307.41 420.02L300.04 430.97L297.45 433.84L298.35 446.35L304.04 453.26L299.26 461.6L295.64 463.16H291.5L292.66 469.67L286.19 471.89L287.74 477.36L283.86 489.74L288.65 493.65L286.06 500.03L281.66 506.94L283.99 511.76L278.3 512.67L273.64 506.94L272.86 489.09L265.62 458.77L267.81 448.17L263.15 434.62L266.25 417.03L269.1 413.64L268.4 411.07L272.06 407.73L280.22 408.29L284.78 413.16L290.05 413.25L295.45 416.55L293.86 420.27L294.24 424.03L301.89 423.67L305.47 418.2Z" fill="#BBBBBB"/>
<path d="M285.04 514.1L280.77 523.48L288.14 524.26L288.27 518.01L285.04 514.1Z" fill="#BBBBBB"/>
<path d="M288.92 518.79L289.18 524.52L293.58 524.13L297.33 521.65L290.99 520.35L288.92 518.79Z" fill="#BBBBBB"/>
<path d="M283.59 512.63L280.38 516.18L279.99 520.35L273.78 516.83L267.18 507.32L265.24 503.93L267.96 500.41L267.7 495.98L264.6 494.68L262.14 492.86L262.66 490.38L265.89 489.47L266.54 475.14L261.5 472.27L258.21 397.68L259.06 396.2L265.5 411.05L267.56 411.09L268.23 413.46L265.49 416.78L262.34 434.65L266.82 448.41L264.75 458.83L272.05 489.47L272.82 507.39L278.05 513.44L283.59 512.63Z" fill="#BBBBBB"/>
<path d="M262.28 475.14L260.99 477.09L261.64 480.48L262.93 480.61L263.58 476.31L262.28 475.14Z" fill="#BBBBBB"/>
<path d="M314.24 438.85L320.49 426.83L320.72 416.73L332.38 409.21H338.91L344.04 400.52L344.97 383.84L342.87 379.38L355.23 368.1L355.7 355.65L338.91 347.43L318.63 341.09L309.07 340.15L311.64 334.75L310.94 326.53L308.85 325.84L305.76 331.98L304.14 334.01L299.98 332.17L285.99 337.1L281.33 331.23L282.08 325.1L277.68 329.58L272.82 326.96L272.33 327.65L272.34 329.78L276.53 332.03L270.24 338.66L266.27 338.62L262.25 334.53L257.7 334.67L257.14 339.53L259.75 342.7L256.67 352.57L253.07 352.85L247.34 356.47L245.94 363.58L250.91 368.9L251.82 367.87L255.31 366.93L258.29 371.95L266.82 368.29L270.13 368.48L272.41 376.55L284.58 380.41L286.68 386.85L291.86 387.47L294.33 393.62L292.66 399.09L294.84 401.95L294.52 406.21L300.36 405.66L305.71 412.42L305.29 417.17L308.46 419.85L300.86 431.36L314.24 438.85Z" fill="#BBBBBB"/>
<path d="M204.56 282.4L204.51 286.05H205.35L208.21 280.71H206.27L204.56 282.4Z" fill="#BBBBBB"/>
<path d="M817.97 72.93L819.73 79.01L823.25 80.02L826.77 74.45L824.76 70.65L825.51 67.36H830.79L829.53 69.89L830.03 79.01L822.49 97.75L823.24 101.8L822.99 108.64L837.06 129.15L839.82 129.91L840.07 113.2L842.83 110.67L839.81 104.09L842.32 101.3L836.79 93.96L833.77 94.21L832.77 82.06L840.56 80.03L841.06 76.48L845.08 75.47L847.34 77.5L850.1 66.36L854.87 58.26L858.64 56.23L861.91 56.48V52.68L856.63 51.67L849.34 45.59L852.86 41.54L849.84 34.7L852.35 32.17L855.37 36.22L862.91 39.01L871.2 39.77L872.21 36.23L867.94 31.93L872.71 25.35L861.9 21.55L859.14 27.12L855.62 22.56L835.77 15.72L816.92 19.01L814.16 20.53V22.05L818.18 24.08L817.68 28.89L810.39 25.85L794.31 32.18L791.55 26.36H780.49L775.46 31.68L757.62 27.63L741.29 30.92L739.28 35.98L741.79 36.74L741.54 40.54L725.71 42.31L726.72 47.37L712.14 44.84L715.66 38.26L700.83 37.5L702.09 44.34L697.32 46.62L693.3 42.82L676.97 45.61L670.69 51.43L670.44 54.97L666.42 55.22L665.92 51.17L678.74 40.03V32.43L670.45 30.15L659.64 33.69L655.12 29.13H653.11L650.6 34.19L652.61 36.47L638.28 44.32L625.97 53.69L618.43 64.07V68.37L626.47 71.66L622.45 74.7L613.91 71.66L610.39 74.7L605.11 68.62L604.1 70.9L609.88 89.13L611.39 89.64L615.41 87.61L617.42 89.13V92.42L613.65 90.9L611.39 92.67L612.9 95.96L611.64 104.57L603.85 105.33L603.35 102.54L607.87 99.75L608.88 92.15L603.85 85.57L602.09 74.18L594.05 72.91L593.3 76.96L594.81 78.99L591.54 81.78L592.8 89.38L597.57 91.41L598.58 96.98L593.8 93.94L581.49 91.66L579.98 95.71L570.18 99.25L568.67 96.72L555.85 103.81L555.6 108.62L550.57 109.38L552.08 105.84V102.3L547.05 100.53L543.78 101.8L546.54 107.12L548.55 110.66V113.45L544.78 112.69L544.03 111.93L540.26 115.98L542.27 119.52L533.73 119.27L536.49 122.82L535.74 124.34H531.22L527.95 122.06L527.2 115.73L521.92 113.7V111.17L532.98 113.45L539.01 113.96L541.52 110.16L539.26 106.11L523.18 99.78L517.63 101.16L515.73 102.79L516.32 106.54L518.68 106.95L518.13 112.85L525.41 129.95L520.15 138.29L519.79 140.17L522.46 142.05L520.05 143.64L518.45 143.67L518.75 151.02L520.96 154.15L520.99 157.19L523.82 157.45L528.15 159.1L532.73 165.4L532.78 167.06L531.29 169.61L534.71 169.42L538.04 170.38L542.54 176.75L553.62 177.76L553.14 185.34L549.32 188.61L550.11 189.89L546.34 193.94L545.34 197.74L547.6 201.03L554.89 203.56L557.91 201.79L577.26 209.13L578.01 207.1L573.99 203.3V198.49L571.48 197.73L571.98 193.68L576 188.87L568.79 183.47L569.29 175.96L577 170.89L586.05 171.4L587.56 174.19L596.86 174.7L603.65 170.9L600.13 167.1L600.88 160.01L618.47 151.4L632 157.5L636.52 153.45L649.84 166.11L659.89 165.1L663.41 168.64L672.96 169.65L679.24 161.04L687.28 164.59L691.55 165.35L695.82 161.55L692.05 159.02L695.32 153.96L704.62 157L706.63 161.05L710.65 161.3L713.16 159.53L719.95 159.28L720.7 161.05L728.49 161.56L733.77 155.99L744.58 157.26L747.85 155.99L748.85 149.91L745.58 142.57L748.85 139.78H759.15L768.95 151.43L781.51 158.52H785.28L785.78 155.48L790.3 152.69L790.8 169.15L786.78 169.4V173.45L789.04 176.24L788.62 179.86L790.29 180.55L791.3 178.02L792.81 178.53L793.81 179.54L798.33 178.53L802.85 165.36L803.35 148.9L797.57 135.73L790.28 126.87L786.76 127.38V130.17L778.22 126.88L781.49 119.79L784.25 101.05L795.81 97.51L801.34 93.97H807.37L805.86 96L807.37 98.53L812.65 92.96L815.67 93.21L815.17 89.92L810.39 88.91L813.66 77.01L817.97 72.93Z" fill="#BBBBBB"/>
<path d="M670.4 170.07L666.94 178.77L662.17 178.52L657.14 189.53L661.41 194.97L652.61 207.12L648.09 206.36L645.07 210.16L645.82 212.44L649.34 212.69L651.1 216.74L654.62 217.5L665.43 231.43V238.52L670.71 241.81L676.49 240.8L683.78 245.1L692.58 247.63L696.85 247.12L701.63 246.61L711.68 240.03L714.95 240.54L716.2 243.51L718.97 244.34L722.74 249.91L720.23 255.48L721.74 259.28L726.01 260.8L726.76 265.36L731.79 265.87L732.54 263.59L739.83 259.79L744.35 260.04L749.63 265.86L753.15 264.34L755.41 264.59L756.42 267.38L758.18 267.63L760.69 264.09L770.74 260.29L779.79 249.4L782.81 239.02L782.56 232.18L778.79 231.42L781.05 228.89L780.55 224.84L771 215.22V210.41L773.76 206.87L776.52 205.6L776.77 202.81H769.73L768.47 206.61L765.2 205.85L761.18 201.55L763.69 194.97L767.21 191.17L770.48 191.42L769.98 197.24L771.74 198.76L776.01 194.46L777.52 194.21L777.02 190.92L781.04 186.11L784.06 186.36L785.82 180.79L787.88 179.7L788.09 176.23L786.09 174.13L785.92 168.65L789.77 168.4L789.52 154.27L786.82 155.89L785.81 159.51L781.3 159.5L768.23 152.15L758.79 140.77L749.21 140.67L746.77 142.79L749.87 149.89L748.79 156.55L744.93 158.15L742.76 157.98L742.6 164.57L744.86 165.08L748.88 163.31L754.16 165.84V168.37L750.39 168.62L747.37 175.2L744.61 175.45L734.81 188.36L724.51 192.92L717.47 193.43L712.7 190.14L705.91 193.69L698.62 191.41L696.86 186.6L684.55 185.84L678.02 175.21H675.26L673.04 170.28L670.4 170.07Z" fill="#BBBBBB"/>
<path d="M673.8 170.17L679.62 162.45L686.61 165.68L691.36 166.95L697.18 161.61L693.23 158.7L695.83 155.03L703.59 157.77L706.28 162.18L711.14 162.31L713.68 160.42L718.91 160.21L720.05 162.15L728.74 162.59L734.24 156.98L741.85 157.78L741.41 165.42L744.74 166.18L748.83 164.32L753.16 166.46L753.06 167.54L749.92 167.63L746.65 174.49L744.11 174.74L734.23 187.65L724.14 192.1L717.83 192.59L712.59 189.21L705.89 192.79L699.29 190.74L697.42 185.95L684.92 185.07L678.52 174.22L675.41 174.02L673.8 170.17Z" fill="#BBBBBB"/>
<path d="M778.28 194.27L780.12 195.04L780.68 201.48L784.33 201.69L787.77 197.66L786.58 196.6L786.72 192.28L789.88 188.46L788.27 185.56L789.32 184.36L789.9 181.36L788.07 180.53L786.51 181.32L784.58 187.18L781.46 186.91L777.85 191.17L778.28 194.27Z" fill="#BBBBBB"/>
<path d="M788.34 198.2L794.52 203.24L795.57 208.12L795.36 210.74L792.34 214.14L789.74 214.28L786.79 207.91L785.67 204.87L786.86 203.95L786.58 202.68L785.11 202.02L788.34 198.2Z" fill="#BBBBBB"/>
<path d="M576.69 188.62L580.79 186.87L585.37 186.71L585.69 193.71H583.01L580.96 197.05L583.64 201.5L587.59 203.73L587.95 206.28L589.4 205.8L590.74 204.21L592.95 204.69L594.06 206.92H596.9V204.06L595.16 198.97L594.37 194.84L599.42 192.61L606.21 193.72L610.47 198.01L620.1 197.06L625.47 204.69L631.78 205.01L633.52 202.15L635.73 201.67L636.05 198.49L639.36 198.33L641.1 200.4L642.84 196.27L657.83 198.34L660.35 195L656.09 189.75L661.77 177.35L666.35 177.67L669.51 170.04L663.2 169.4L659.57 165.9L649.57 167.06L636.69 154.61L632.15 158.64L618.38 152.39L601.49 160.66L601.02 166.54L604.97 171.15L597.27 175.5L587.28 175.28L585.19 172.21L577.36 171.78L569.94 176.55L569.78 183.07L576.69 188.62Z" fill="#BBBBBB"/>
<path d="M593.85 207.59L593.23 210.22H589.08V213.78L593.54 216.72L592.16 220.75V222.61L594.01 222.92L596.47 219.67L602.01 218.43L613.85 222.92L614 226.17L620.61 226.79L627.99 219.04L627.07 216.56L622.15 215.48L608.31 206.49L607.69 203.24H602.46L600.15 207.58H597.84L593.85 207.59Z" fill="#BBBBBB"/>
<path d="M628.92 219.06L632 219.22V213.95L629.08 212.25L634 206.05H636L638 208.38L643.23 206.37L636 203.89L635.72 202.39L634 202.81L632.31 205.75L625.02 205.51L619.67 197.94L610.27 198.87L605.79 194.43L599.59 193.38L595.09 195.21L597.7 203.89L597.73 206.81L599.63 206.85L601.96 202.41L608.16 202.49L609.08 205.9L622.37 214.72L627.51 215.9L628.92 219.06Z" fill="#BBBBBB"/>
<path d="M630.19 211.84L634.3 206.74H635.85L636.39 207.88L634.49 209.26V210.4L635.74 211.3L641.75 211.66L643.71 210.82L644.6 211L645.2 212.92L648.77 213.28L650.56 217.06L650.02 218.2L649.31 218.26L648.6 216.82L647.05 216.7L644.37 217.06L644.19 219.58L641.51 219.4L641.63 216.22L639.67 214.3L636.69 216.76L636.75 218.38L634.13 219.28H632.58L632.7 213.7L630.19 211.84Z" fill="#BBBBBB"/>
<path d="M636.81 199.21L636.5 201.74L636.75 203.3L645.45 206.22L637.81 209.3L636.94 208.58L635.29 209.64L635.37 210.22L636.25 210.62L641.61 210.76L644.33 209.94L647.82 205.54L652.19 206.3L657.46 199L643.36 197.08L641.41 201.81L638.95 199.17L636.81 199.21Z" fill="#BBBBBB"/>
<path d="M614.12 227.05L615.71 239.51L619.67 240.38L620.04 242.62L617.2 244.99L622.49 249.26L632.77 245.56L633.59 241.18L640.06 237.14L642.54 227.78L644.39 225.79L642.47 222.45L648.73 218.58L647.93 217.46L645.04 217.64L644.78 220.3L640.9 220.26L640.83 216.71L639.58 215.22L637.48 217.13L637.54 218.88L634.37 220.08L628.52 219.71L620.92 227.67L614.12 227.05Z" fill="#BBBBBB"/>
<path d="M623.13 249.84L625.73 253.7L625.48 255.69L622.02 257.06L621.77 260.3H625.73L627.09 259.18H634.63L641.43 265.16L642.3 262.29H647.37L647.49 258.68L642.3 253.7L643.41 250.96L648.73 250.59L655.9 235.64L651.94 232.53L650.46 227.3L660.1 226.43L654.41 218.33L651.38 217.51L650.14 219.01L649.21 219.08L643.52 222.69L645.38 225.81L643.28 228.05L640.68 237.64L634.25 241.75L633.38 246.24L623.13 249.84Z" fill="#BBBBBB"/>
<path d="M670.98 313.01L675.56 310.77L678.28 300.93L678.16 288.85L693.74 272.03V268.04L696.95 266.79L696.83 262.18L693.37 255.45L695.35 251.84L699.68 255.83L705.24 256.08V258.32L703.51 260.19L703.88 261.19L706.85 261.31L707.47 264.67H708.34L710.57 260.68L711.68 250.22L715.39 247.6L715.51 243.99L714.03 241.12L711.68 241L702.48 247.08L703.06 250.99L696.6 250.97L694.32 248.18L693.08 248.34L693.5 252.22L679.53 251.22L670.87 247.36L670.41 242.61L664.64 239.03L664.57 231.66L660.61 227.13L651.51 228L652.5 231.96L656.96 235.57L649.25 251.35L644.09 251.74L643.24 253.64L648.32 258.34L648.07 263.09L642.88 263.01L642.32 265.37L646.63 265.18L646.75 267.05L643.66 268.67L645.64 272.41L649.47 273.66L651.82 271.92L652.93 268.81L654.29 268.19L655.9 269.81L655.41 273.8L654.3 275.67L654.55 278.91L670.98 313.01Z" fill="#BBBBBB"/>
<path d="M671.19 242.56L671.65 246.83L679.73 250.49L692.68 251.45L692.19 248.32L683.54 245.94L676.2 241.57L671.19 242.56Z" fill="#BBBBBB"/>
<path d="M695.4 248.08L696.95 250.2L702.19 250.24L701.66 247.34L695.4 248.08Z" fill="#BBBBBB"/>
<path d="M695.57 253.11L694.26 255.48L697.66 261.94L697.76 266.98L698.38 268.33L702.37 268.4L704.63 266.23L706.27 267.22L706.6 270.29L707.91 269.47L707.99 265.55L706.89 265.42L706.2 262.09L703.42 261.99L702.73 260.14L704.43 257.87L704.46 256.75H699.52L695.57 253.11Z" fill="#BBBBBB"/>
<path d="M729.44 303.65L726.67 299.21L728.68 296.39L726.78 292.9L724.99 292.56L724.65 286.7L721.97 281.51L721.19 282.75L719.4 285.79L717.16 286.13L716.04 284.66L715.48 280.71L713.8 277.55L706.96 271.1L708.64 269.99L708.95 265.32L711.45 261.12L712.53 250.67L716.15 248.2L716.27 244.39L718.44 245.11L721.86 250.06L719.32 255.5L721.03 259.77L725.26 261.43L726.03 266.08L731.71 266.96L730.14 269.67L722.98 272.49L722.2 277.11L727.46 283.87L727.68 287.48L726.45 288.72L726.56 289.85L730.48 295.6L730.59 301.57L729.44 303.65Z" fill="#BBBBBB"/>
<path d="M730.03 270.47L733.27 274.64V279.71L734.39 280.27L739.54 277.79L740.55 278.13L746.7 285.23L746.48 290.08L744.47 289.74L742.68 288.61L741.34 288.72L738.99 292.66L739.44 294.8L741.34 295.81L741.23 298.18L739.89 298.86L735.3 295.7V292.88L733.4 292.77L732.62 294.01L732.22 306.63L735.19 312.05L740.45 317.12L740.23 318.59L737.43 318.48L734.86 314.65H732.17L728.81 311.94L727.8 309.12L729.25 306.75L729.75 304.61L731.33 301.81L731.26 295.37L727.4 289.79L727.24 289.11L728.49 287.85L728.2 283.42L723.06 276.91L723.66 273.16L730.03 270.47Z" fill="#BBBBBB"/>
<path d="M732.71 315.45L734.72 319.96L735.17 325.82L737.86 329.99L744.35 333.93L746.81 334.16L746.36 330.1L744.23 324.92L741.11 318.29L740.85 319.45L737.09 319.28L734.39 315.4L732.71 315.45Z" fill="#BBBBBB"/>
<path d="M740.48 299.47L744.57 303.84L752.18 298.2L752.85 289.3L748.92 292.01L746.88 290.87L744.11 290.5L742.56 289.41L741.81 289.45L739.78 292.78L740.11 294.32L742.17 295.47L741.92 298.6L740.48 299.47Z" fill="#BBBBBB"/>
<path d="M735.47 262.93L733.05 264.16L731.04 270.02L734.4 274.3L733.84 279.03L734.4 279.26L739.99 276.55L747.49 284.93L747.31 290.21L748.94 291.09L752.97 287.82L752.64 285.23L741.01 274.18L741.12 272.49L742.57 271.48L741.56 268.66L736.75 267.87L735.47 262.93Z" fill="#BBBBBB"/>
<path d="M745.06 304.45L746.25 306.32L746.47 308.46L749.6 308.8L753.4 303.73L756.98 302.72L758.88 297.54L757.99 289.2L754.3 284.13L750.41 281.02L745.46 272.52L749.01 266.58L743.93 260.75L739.86 260.57L736.2 262.54L737.29 267.25L742.17 268.11L743.48 271.74L741.76 272.86L741.87 273.76L753.32 284.96L753.77 288.25L753.08 298.65L745.06 304.45Z" fill="#BBBBBB"/>
<path d="M555.46 204.16L558.73 208.43L562.81 210.31L565.32 210.3L569.63 209.13L570.71 207.44L557.96 202.67L555.46 204.16Z" fill="#BBBBBB"/>
<path d="M569.72 209.89L574.52 216.15L573.11 217.8L569.71 217.21L565.49 213.43L565.72 210.95L569.72 209.89Z" fill="#BBBBBB"/>
<path d="M571.41 207.72L570.4 209.44L575.11 215.62L576.75 215.09L579.45 217.92L580.62 212.96L583.55 213.43L583.43 212.01L578.61 207.79L577.69 210.27L571.41 207.72Z" fill="#BBBBBB"/>
<path d="M569.65 217.95L568.43 219.22L568.55 221.23L570.07 223.36L575.46 229.26L574.64 231.62H573.7L573.23 233.98L576.28 237.88L579.09 238.12L584.72 245.91L587.88 246.15L590.34 247.92L590.46 251.46L600.19 257.13H603.82L606.05 255.24L608.86 255.12L610.5 258.9L621.01 260.36L621.32 256.5L624.8 255.24L624.96 253.86L622.19 250.08L616.02 245.12L619.26 242.17L619.03 240.87L614.97 240.24L613.25 226.54L613.05 223.39L602.04 219.18L597.16 220.28L594.43 223.63L592.01 223.47L591.31 224.06L585.92 223.71L579.12 218.75L576.59 215.98L575.43 216.26L573.34 218.65L569.65 217.95Z" fill="#BBBBBB"/>
<path d="M558.7 209.19L556.47 211.55L548.27 211.31L543.35 208.36L538.55 208.24L533.04 212.14L527.88 212.38L527.41 215.33H521.55L519.21 217.46V218.64L520.62 219.82V221.12L520.03 222.66L520.62 223.96L522.5 223.02L524.38 225.03L523.91 226.45L523.21 227.4L524.26 228.58L529.42 229.64L533.05 228.1V225.86L534.81 226.21L539.03 228.69L543.6 227.98L545.59 226.09L546.88 226.56V228.69H548.64L550.16 225.74L563.52 224.32L569.35 223.61L567.81 221.59L567.78 218.86L568.95 217.46L564.69 214.04L564.92 211.09H562.58L558.7 209.19Z" fill="#BBBBBB"/>
<path d="M571.99 289.23L573.43 293.51V297.69L576.89 300.83L601.27 290.9L601.5 288.17L597.59 281.15L587.78 284.28L582.15 289.82L575.62 285.96L571.99 289.23Z" fill="#BBBBBB"/>
<path d="M598.38 280.84L605.77 276.58L607.08 270.33L605.46 269.4L606.13 262.7L607.54 261.88L609.05 264.25L618.04 268.95V271.56L607.15 287.59L602.14 287.76L598.38 280.84Z" fill="#BBBBBB"/>
<path d="M594.01 264.94L594.88 268.42L604.74 269.29L605.43 262.15L607.33 261.11L607.85 258.5L604.74 259.37L601.28 264.6L594.01 264.94Z" fill="#BBBBBB"/>
<path d="M592.63 259.02L592.11 263.03L593.65 264.2L595.05 264.07L595.57 259.02L594.36 258.15L592.63 259.02Z" fill="#BBBBBB"/>
<path d="M583.29 247.17L581.04 245.95L579.48 247.52L579.65 250.66L583.28 252.05L583.29 247.17Z" fill="#BBBBBB"/>
<path d="M584 253.24L591.01 263.01L593.27 264.81L594.28 269.19L605.07 270.04L606.29 270.68L605.08 276.08L597.99 280.26L587.62 283.4L582.09 288.8L575.52 284.97L571.54 288.45L566 279.4L562.2 277.66L560.82 275.57V271.04L546.99 254.32L546.47 251.36H550.45L555.29 247.18L555.46 245.09L554.08 243.7L556.85 241.44L562.73 241.79L572.76 250.15L578.68 249.88L579.06 251.34L584 253.24Z" fill="#BBBBBB"/>
<path d="M546.67 229.13L546.32 231.67L549.14 232.85L549.02 239.89L551.84 239.83L554.66 237.7L555.72 237.52L562.12 232.43L563.41 225.04L550.62 226.34L549.27 229.3L546.67 229.13Z" fill="#BBBBBB"/>
<path d="M564.31 225.03L562.75 232.74L556.29 238.12L556.7 240.66L563.01 241.09L573.06 249.27L578.68 249.11L578.83 247.22L580.89 245.01L583.77 246.64L584.15 246.28L578.58 238.87L575.94 238.71L572.43 234.2L573.13 230.88L574.2 230.74L574.57 229.27L569.79 224.24L564.31 225.03Z" fill="#BBBBBB"/>
<path d="M548.9 240.78L546.44 249.36L546.33 250.67H550.2L554.53 246.85L554.64 245.4L552.87 243.59L556.04 240.96L555.58 238.52L554.71 238.72L552.07 240.61L548.9 240.78Z" fill="#BBBBBB"/>
<path d="M546.2 232.44L546.26 234.39L545.44 237.35L548.26 237.59L548.44 233.39L546.2 232.44Z" fill="#BBBBBB"/>
<path d="M545.32 238.06L543.74 243.09L545.79 249.12L548.14 240.31V238.42L545.32 238.06Z" fill="#BBBBBB"/>
<path d="M543.21 229.84L544.44 230.73L540.63 234.34L538.81 234.28L537.46 233.33L537.64 231.56L540.4 231.38L543.21 229.84Z" fill="#BBBBBB"/>
<path d="M515.46 102.14L517.48 100.66L517.3 99.0001L516.02 98.2601L516.2 96.2301H517.3V95.1201L512.53 93.8301L505.38 94.5701L504.65 97.7101L503 97.1601L501.9 95.3101L498.41 95.4901L498.04 99.0001L496.39 99.7401L495.47 97.8901L488.13 103.8L489.6 105.46L486.85 106.75L480.61 119.13L478.41 120.61L478.59 121.72L480.79 122.83L480.24 125.23L476.57 125.04L475.47 123.75L473.09 126.52L471.62 127.63L471.25 130.22L469.97 130.96L466.67 131.7L465.02 136.88L466.12 145.38L467.4 149.26L468.87 150.74L472.17 150.56L476.94 145.94L478.77 142.8L479.32 147.42L482.44 141.88L482.62 126.35L485.16 124.75L485.92 116.18L493.62 105.09L497.29 103.8L498.94 101.77L504.44 103.06L507.19 104.72L508.11 100.1L512.7 97.3301L515.46 102.14Z" fill="#BBBBBB"/>
<path d="M446.12 149.08L444.29 151.85L445.02 152.96H449.24V154.81L448.14 156.29L448.87 160.17L451.25 164.79L453.08 169.04L456.01 170.15L457.29 172.37L457.11 174.4L455.28 175.51L455.1 176.43L456.38 177.17L455.28 178.65L452.71 179.76L447.76 179.21L440.05 182.72L437.48 181.43L444.82 177.18L443.9 176.63L440.05 176.26L442.43 172.75L442.8 169.79L445.92 169.42L445.37 163.69L441.7 163.51L440.6 162.22L440.78 157.97L438.58 158.15L440.78 150.76L444.82 147.8L446.12 149.08Z" fill="#BBBBBB"/>
<path d="M438.42 161.47L435.12 161.84L434.94 164.8L437.14 166.28L439.52 165.73L440.44 164.07L438.42 161.47Z" fill="#BBBBBB"/>
<path d="M439.51 166.55L438.6 172.55L430.53 175.51H427.96L426.13 174.22V173.11L430.17 170.52L429.07 168.3L429.25 165.16L432.74 165.34L434.34 161.58L434.13 164.92L436.84 167.07L439.51 166.55Z" fill="#BBBBBB"/>
<path d="M497.72 104.58L499.68 106.39H503.35L505.37 110.27L505.92 116.92L500.97 120.43V123.94L497.48 128.75L495.46 128.93L492.71 133.55L492.89 137.99L497.66 141.5L497.29 143.53L495.46 146.3L492.71 148.7L492.89 156.65L488.67 158.13L487.2 161.27H485.18L484.08 155.73L479.49 148.69L483.26 142.38L483.52 126.79L486.12 125.36L486.75 116.44L494.16 105.83L497.72 104.58Z" fill="#BBBBBB"/>
<path d="M506.79 116.94L508.86 117.85L510.14 120.25L508.86 121.91L502.44 128.93L501.34 132.63L502.81 137.99L507.76 141.69L514.36 138.55L519.68 137.81L524.63 129.86L520.96 121.17L517.47 112.85L518.02 107.49L515.82 107.12L515.25 103.21L512.29 98.3799L509.01 100.65L507.72 105.92L504.24 103.83L499.4 102.65L498.32 103.91L500.18 105.59L503.57 105.53L506.3 109.94L506.79 116.94Z" fill="#BBBBBB"/>
<path d="M518.07 151.37L511.22 150.26L511.37 154.09L517.72 157.97L520.32 157.21L520.17 154.29L518.07 151.37Z" fill="#BBBBBB"/>
<path d="M506.76 147.64L505.21 147.59L504.31 148.5L504.96 149.46L506.51 149.56L507.31 148.4L506.76 147.64Z" fill="#BBBBBB"/>
<path d="M506.61 151.72L505.11 151.57L502.41 154.8V156.31L503.31 156.66L505.06 156.71L507.96 154.34L508.36 153.53L506.61 151.72Z" fill="#BBBBBB"/>
<path d="M510.81 154.7L508.66 154.65L505.71 157.47H503.21L503.36 161L501.86 163.77L507.26 163.82L508.81 163.62L510.36 165.49L513.91 165.34L517.31 161.01L517.11 158.44L510.81 154.7Z" fill="#BBBBBB"/>
<path d="M510.66 166.29L512.16 168.76L511.56 170.73L511.66 172.29L512.21 174.16L515.31 172.4L519.16 172.5L521.86 173.61H528.71L530.71 168.82L531.91 167.01V165.8L527.61 159.75L523.81 158.24L520.71 157.89L518.01 158.75L518.11 161.47L514.36 166.21L510.66 166.29Z" fill="#BBBBBB"/>
<path d="M511.46 174.76L512.31 176.32L512.51 177.98L511.81 179.59L510.21 182.67L508.86 183.28L507.11 182.52L506.06 182.57L503.51 183.53L500.61 182.67L495.91 179.34L491.31 176.87L489.46 174.05L489.11 167.4L492.71 164.27L497.41 162.71L499.16 162.51L498.46 163.92L498.91 164.47L506.82 164.62L508.52 164.57L511.32 168.86L510.62 170.62L510.92 172.69L511.46 174.76Z" fill="#BBBBBB"/>
<path d="M448.36 205H435.62L433.05 203.84L431.81 203.93L430.31 207.05L430.84 210.26L435.71 210.71L436.33 212.76L434.21 224.71L434.3 226.85L437.75 228.72L441.73 228.99L449.69 227.03L453.58 222.13L453.67 217.14L460.57 210.9L460.92 208.14L454.64 208.05L448.36 205Z" fill="#BBBBBB"/>
<path d="M430.93 211.24L430.31 219.89L428.54 221.49L428.72 222.47L429.96 224.52L429.16 227.02L430.49 227.47L433.59 227.11L433.41 224.61L435.44 213.02L435 211.42L430.93 211.24Z" fill="#BBBBBB"/>
<path d="M461.1 217.21L459.51 217.75L459.86 219.18H462.16L463.13 218.11L461.1 217.21Z" fill="#BBBBBB"/>
<path d="M477.56 213.38L474.91 214.72L475.26 219.89L477.38 220.25L478.97 218.73V213.83L477.56 213.38Z" fill="#BBBBBB"/>
<path d="M477.83 206.96L475.88 208.92L475.7 210.7L477.29 211.68L477.91 211.59L478.26 209L477.83 206.96Z" fill="#BBBBBB"/>
<path d="M460.4 178.7L458.19 179.24L453.77 184.05L452.44 184.14L450.67 182.89L449.52 183.16L448.64 185.92L442.18 186.1L442.36 187.53L446.78 190.47L451.91 194.57L451.82 199.47L449.08 204.28L455.01 207.13L461.03 207.31L462.89 205.17L466.69 205.26L467.75 206.24L471.55 205.97L473.5 203.47L471.02 200.53L470.84 198.66L471.37 196.61L470.13 194.83L468.01 195.45L467.74 193.85L472.43 188.68V185.56L469.33 183.78L467.74 183.51L460.4 178.7Z" fill="#BBBBBB"/>
<path d="M470.09 168.27L465.56 170.5L466.52 171.37L466.62 173.6L465.66 173.41L464.6 171.76L462.07 175.77L465.96 176.58L467.41 178.11L468.18 178.13L468.69 174.67L471.14 173.64L470.09 168.27Z" fill="#BBBBBB"/>
<path d="M461.61 176.52L460.97 178.12L467.85 182.66L469.83 183.13L469.9 180.98L468.17 179.04H467.11L465.66 177.39L461.61 176.52Z" fill="#BBBBBB"/>
<path d="M471.14 167.88L474.71 167.3V164.78L477.7 164.29L479.34 165.94L481.07 166.13L483.77 164.96L486.18 165.64L488.3 167.48L488.59 174.37L490.71 177.19L487.92 177.58L483.29 180.49L483.68 181.46L487.82 185.34L487.53 187.28L483.68 189.22L480.11 189.32L479.24 191.16H477.41L476.54 189.22L473.36 188.44L473.26 185.24L470.56 183.4L470.85 181.07L469.02 178.55L469.5 175.25L472 174.08L471.14 167.88Z" fill="#BBBBBB"/>
<path d="M476.77 151.5L472.62 156.09L472.47 159.08L474.36 164.01L477.32 163.45L476.95 159.42L478.99 157.14L478.95 155.35L477.51 151.62L476.77 151.5Z" fill="#BBBBBB"/>
<path d="M481.44 159.64L480.51 159.6L479.29 160.72L479.44 162.47L482.33 162.55L482.48 160.57L481.44 159.64Z" fill="#BBBBBB"/>
<path d="M498.49 150.17L496.38 151.84L497.44 154.29L499.31 152.47L498.49 150.17Z" fill="#BBBBBB"/>
<path d="M472.91 189.38L468.55 194.02L468.64 194.49L470.43 193.93L472.04 196.17L474.76 195.21L476.64 196.67L477.41 196.23L479.73 192.59L479.14 192.03L476.85 191.97L475.74 189.7L472.91 189.38Z" fill="#BBBBBB"/>
<path d="M488.43 184.87H491.4H492.86L495.23 186.56L499.62 182.91L495.36 179.87L491.14 177.83L488.25 178.35L484.33 180.87L488.43 184.87Z" fill="#BBBBBB"/>
<path d="M495.84 187.13L496.53 187.74L496.62 188.78L504.25 188.61L509.89 186.18L509.8 183.71L508.72 184.19L507.17 183.36L506.22 183.32L503.72 184.32L500.32 183.5L495.84 187.13Z" fill="#BBBBBB"/>
<path d="M480.63 190.12L479.98 191.47L480.54 192.43L482.87 191.95H484.85L487 193.77L491.57 192.94L494.93 190.94L495.79 189.59L495.66 187.85L492.64 185.59L488.59 185.63L488.25 187.93L483.99 190.01L480.63 190.12Z" fill="#BBBBBB"/>
<path d="M496.74 189.6L495.58 191.42L495.67 194.2L497.52 195.15L503.21 195.32L511.14 188.64L511.18 187.16L510.32 186.73L504.59 189.33L496.74 189.6Z" fill="#BBBBBB"/>
<path d="M494.8 191.99L492.26 193.51L487.52 194.55L488.47 197.29L491.79 197.33L494.85 194.77L494.8 191.99Z" fill="#BBBBBB"/>
<path d="M495.62 195.16L492.09 198.07H488.51L488.08 200.59L489.72 201.02L490.54 199.8L491.83 200.93L492.86 204.53L499.93 207.83L500.63 207.03L493.46 199.63L494.19 198.28L501 198.02L501.69 195.85L497.25 195.98L495.62 195.16Z" fill="#BBBBBB"/>
<path d="M494.8 198.94L494.43 199.55L501.14 206.47L503.6 202.85L503.51 201.42L501.36 198.81L494.8 198.94Z" fill="#BBBBBB"/>
<path d="M472.27 196.98L471.65 198.55L471.82 200.26L474.21 203.05L477.97 202.92L486.27 212.56L491.45 214.06L494.51 216.95L495.24 223.54L496.88 222.58L498.3 218.99L497.95 216.41L500.38 216.19L500.73 214.73L493.88 211.45L487.38 205.06L484.79 201.24L484.16 197.61L487.47 196.82L486.62 194.43L484.59 192.72L482.84 192.64L480.4 193.31L478.1 196.53L476.71 197.45L474.56 196.13L472.27 196.98Z" fill="#BBBBBB"/>
<path d="M492.44 223.02L490.99 222.24L486.04 223.02L486.21 224.36L490.66 226.6L491.33 227.33L492.5 227.5L492.44 223.02Z" fill="#BBBBBB"/>
<path d="M492.61 230.47L490.94 230.81L491 232.66L492.5 233.16L493.17 232.6L492.61 230.47Z" fill="#BBBBBB"/>
<path d="M515.57 173.15L512.67 174.78L513.39 177.86L510.71 183.51L510.73 186L511.99 186.8L520.07 187.2L522.33 185.33L524.75 186.14L528.22 190.77L525.68 195.33L528.7 196.21L532.65 191.66L534.91 192.07L537.01 193.53L535.16 195.97L537.66 199.87H540.32L541.69 197.27L544.51 196.7L544.59 194.59L539.35 193.78L539.51 191.51H544.59L550.07 187.12L552.49 185.01L552.89 178.35L542.09 177.38L537.66 171.13L534.6 170.08L530.89 170.24L529.22 174.37L521.62 174.47L519.15 173.33L515.57 173.15Z" fill="#BBBBBB"/>
<path d="M520.75 187.71L523.85 192.48L523.59 195.18L524.7 195.23L527.33 190.78L524.17 186.86L522.38 186.12L520.75 187.71Z" fill="#BBBBBB"/>
<path d="M512.18 187.6L511.92 189.08L506.13 193.9L510.97 201L514.07 203.17H519.65L521.49 201.63L523.96 201.31L525.8 202.42L529.06 198.71L528.43 196.85L525.12 196L522.86 195.89L522.97 192.71L519.97 187.99L512.18 187.6Z" fill="#BBBBBB"/>
<path d="M504.902 207.248L504.857 206.312L503.537 204.459L501.4 207.48L501.82 208.75L503.561 209.07L504.902 207.248Z" fill="#BBBBBB"/>
<path d="M505.551 194.539L503.5 196.08H502.5L501.82 198.199L504.24 201.01L504.4 203.24L504.059 203.723L505.695 206.021L505.752 207.24L506.93 208.381L510.77 207.211L510.449 201.75L505.551 194.539Z" fill="#BBBBBB"/>
<path d="M511.44 202.39L511.6 207.37L513.28 210.87L519.59 210.98L522.43 208.97L525.22 207.86L524.54 204.68L525.17 202.98L523.75 202.24L521.8 202.4L520.27 203.94L513.85 203.99L511.44 202.39Z" fill="#BBBBBB"/>
<path d="M504.02 209.76V214.37L505.34 216.86L506.29 216.75L507.92 213.78L506.97 212.45L506.6 209.16L505.34 207.99L504.02 209.76Z" fill="#BBBBBB"/>
<path d="M510.92 208.01L507.55 209.12L507.71 211.98L508.5 212.99L512.5 211.13L510.92 208.01Z" fill="#BBBBBB"/>
<path d="M506.71 217.6L506.6 218.93L511.23 221.26L513.44 222.11L512.28 223.33L509.7 223.59L509.33 224.76L510.22 226.77L513.11 228.31L514.37 228.42L514.53 224.97L516.42 222.69L511.26 216.59L511.94 214.52L513.15 214.47L514.99 215.95L516.15 215.37L516.52 213.3L521.94 213.35L522.15 210.17L519.89 211.76L513.26 211.6L508.95 213.83L506.71 217.6Z" fill="#BBBBBB"/>
<path d="M523.02 209.7L522.86 213.25L525.96 212.3L527.38 211.35L526.96 209.81L525.49 208.64L523.02 209.7Z" fill="#BBBBBB"/>
<path d="M516.76 230.59L518.39 230.64L519.07 231.65H521.44L523.02 231.07L523.55 231.71L522.5 233.09L517.87 233.25L517.03 232.14L516.14 231.61L516.76 230.59Z" fill="#BBBBBB"/>
</svg>
