<svg width="123" height="125" viewBox="0 0 123 125" fill="none" xmlns="http://www.w3.org/2000/svg">
<path d="M53.3701 79.3361H69.6099C70.5901 79.3361 71.378 78.6135 71.378 77.6174V54.5709C71.378 53.5749 70.6092 52.7742 69.6099 52.7742H69.264V44.532C69.264 43.8094 68.5529 43.1648 68.5529 42.8719V31.6804C68.5529 30.8211 68.2069 30.0203 67.5727 29.3758L59.8083 21.6219C58.8858 20.6844 57.5405 20.4109 56.3488 20.8992C55.2149 21.407 54.4462 22.6179 54.4462 23.9071V42.9892C53.7351 43.2822 53.7351 43.8486 53.7351 44.4931V52.7549H53.3891C52.409 52.7549 51.6211 53.5361 51.6211 54.5517V77.5785C51.6211 78.6136 52.3899 79.3361 53.3701 79.3361ZM67.7073 56.3683H67.8418V75.7433H58.6553V56.3683H67.7073ZM65.7277 52.7745H60.0774V46.3097H65.7277V52.7745ZM57.9632 24.787L65.0166 31.8183V42.7167H57.9632V24.787Z" fill="white"/>
</svg>
