<svg width="54" height="49" viewBox="0 0 54 49" fill="none" xmlns="http://www.w3.org/2000/svg">
<path d="M40.5004 0H13.4997C9.91935 0 6.48542 1.29034 3.95371 3.58763C1.42201 5.88492 0 9.00089 0 12.2497V36.7503C0 39.9991 1.42201 43.1151 3.95371 45.4124C6.48542 47.7097 9.91935 49 13.4997 49H40.5004C44.0807 49 47.5146 47.7097 50.0463 45.4124C52.578 43.1151 54 39.9991 54 36.7503V12.2497C54 9.00089 52.578 5.88492 50.0463 3.58763C47.5146 1.29034 44.0807 0 40.5004 0ZM48.6003 36.7499C48.6003 38.6989 47.7469 40.5684 46.2277 41.947C44.7085 43.3255 42.6482 44.0999 40.5004 44.0999H13.4997C11.3518 44.0999 9.29148 43.3255 7.77228 41.947C6.25307 40.5684 5.39968 38.6989 5.39968 36.7499V12.2493C5.39968 10.3003 6.25307 8.43074 7.77228 7.0522C9.29148 5.67366 11.3518 4.89929 13.4997 4.89929H40.5004C42.6482 4.89929 44.7085 5.67366 46.2277 7.0522C47.7469 8.43074 48.6003 10.3003 48.6003 12.2493V36.7499Z" fill="white"/>
<path d="M23.2735 12.7883C22.741 12.4069 22.0703 12.2211 21.3936 12.2678C20.7174 12.3146 20.085 12.591 19.6231 13.0414C19.1607 13.4921 18.9026 14.084 18.8994 14.6996V34.2999V34.2995C18.9026 34.9152 19.1607 35.507 19.6231 35.9578C20.085 36.4081 20.7174 36.6846 21.3936 36.7313C22.0703 36.7781 22.7411 36.5923 23.2735 36.2109L36.7739 26.411L36.7734 26.4106C37.4125 25.9455 37.7841 25.2429 37.7841 24.4997C37.7841 23.7565 37.4125 23.0539 36.7734 22.5888L23.2735 12.7883ZM24.2996 29.2029V19.7952L30.7795 24.4992L24.2996 29.2029Z" fill="white"/>
</svg>
