<?xml version="1.0" encoding="utf-8"?>
<!-- Generator: Adobe Illustrator 26.5.0, SVG Export Plug-In . SVG Version: 6.00 Build 0)  -->
<svg version="1.1" id="Layer_1" xmlns="http://www.w3.org/2000/svg" xmlns:xlink="http://www.w3.org/1999/xlink" x="0px" y="0px"
	 viewBox="0 0 123 125" style="enable-background:new 0 0 123 125;" xml:space="preserve">
<style type="text/css">
	.st0{fill:#FFFFFF;}
</style>
<path class="st0" d="M43,123.8h39.7c2.4,0,4.3-1.5,4.3-3.6V71.5c0-2.1-1.9-3.8-4.3-3.8h-0.8V50.4c0-1.5-1.7-2.9-1.7-3.5V23.2
	c0-1.8-0.8-3.5-2.4-4.9L58.7,2c-2.3-2-5.5-2.6-8.5-1.5c-2.8,1.1-4.7,3.6-4.7,6.3v40.3c-1.7,0.6-1.7,1.8-1.7,3.2v17.4H43
	c-2.4,0-4.3,1.6-4.3,3.8v48.6C38.7,122.2,40.6,123.8,43,123.8z M78,75.3h0.3v40.9H55.9V75.3H78z M73.2,67.7H59.4V54.1h13.8V67.7z
	 M54.2,8.7l17.2,14.8v23H54.2V8.7z"/>
</svg>
