<?xml version="1.0" encoding="utf-8"?>
<!-- Generator: Adobe Illustrator 26.5.0, SVG Export Plug-In . SVG Version: 6.00 Build 0)  -->
<svg version="1.1" id="Layer_1" xmlns="http://www.w3.org/2000/svg" xmlns:xlink="http://www.w3.org/1999/xlink" x="0px" y="0px"
	 viewBox="0 0 564 646" style="enable-background:new 0 0 564 646;" xml:space="preserve">
<style type="text/css">
	.st0{fill:#FFFFFF;}
</style>
<path class="st0" d="M504.5,451.3L371.7,248.6L370.1,87v-0.8c0-1.5,2.3-11.4,17.5-31.1c3.8-5.3,4.6-12.1,1.5-18.2
	c-3-6.1-9.1-9.1-15.2-9.1H190.3c-6.8,0-12.1,3.8-15.2,9.1c-3,6.1-2.3,12.9,1.5,18.2c15.2,19.7,16.7,29.6,17.5,31.1V87l-1.5,161.7
	L59.7,451.3c-35.7,55.4-44,99.4-27.3,130.5c14.4,26.6,44.8,36.4,61.5,36.4h375.7c16.7,0,47.1-9.9,61.5-36.4
	C548.5,550.7,540.2,506.7,504.5,451.3z M223.7,263c1.5-3,3-6.1,3-9.1l1.5-165.4c0.8-5.3-0.8-13.7-6.8-26.6h121.4
	c-6.1,12.9-7.6,21.2-6.8,26.6v24.3h-37.2c-9.1,0-16.7,7.6-16.7,16.7c0,9.1,7.6,16.7,16.7,16.7H336l0.8,58.4h-37.9
	c-9.1,0-16.7,7.6-16.7,16.7c0,9.1,7.6,16.7,16.7,16.7h37.9v14.4c0,3,0.8,6.8,3,9.1l26.6,40.2h-34.9c-9.1,0-16.7,7.6-16.7,16.7
	s7.6,16.7,16.7,16.7h56.9l18.2,27.3l-248.9,0L223.7,263z M368.6,394.3c0-9.1,7.6-16.7,16.7-16.7h29.6l22.8,34.2h-52.4
	C376.2,411,368.6,403.4,368.6,394.3z M434.7,486.2c-9.1,0-16.7-7.6-16.7-16.7c0-9.1,7.6-16.7,16.7-16.7l29.6,0l11.4,17.5
	c3.8,5.3,6.8,11.4,9.9,15.9L434.7,486.2z"/>
</svg>
