<?xml version="1.0" encoding="utf-8"?>
<!-- Generator: Adobe Illustrator 26.5.0, SVG Export Plug-In . SVG Version: 6.00 Build 0)  -->
<svg version="1.1" id="Layer_1" xmlns="http://www.w3.org/2000/svg" xmlns:xlink="http://www.w3.org/1999/xlink" x="0px" y="0px"
	 viewBox="0 0 90 86" style="enable-background:new 0 0 90 86;" xml:space="preserve">
<style type="text/css">
	.st0{fill:#FFFFFF;}
</style>
<path class="st0" d="M30.1,37.9h29.7v7.6H30.1V37.9z"/>
<path class="st0" d="M10.7,61.5c-2.3,0-4.1-2.2-4.1-4.9l0-30c0-2.7,1.8-4.9,4.1-4.9s4.1,2.2,4.1,4.9v30C14.8,59.3,13,61.5,10.7,61.5
	z"/>
<path class="st0" d="M22.5,65.7c-2.3,0-4.1-2.2-4.1-4.9l0-38.1c0-2.7,1.8-4.9,4.1-4.9c2.3,0,4.1,2.2,4.1,4.9v38.1
	C26.6,63.5,24.8,65.7,22.5,65.7L22.5,65.7z"/>
<path class="st0" d="M3.1,37C1.3,37.6,0,39.5,0,41.7s1.3,4.1,3.1,4.7V37z"/>
<path class="st0" d="M79.3,21.9c2.3,0,4.1,2.2,4.1,4.9v30c0,2.7-1.8,4.9-4.1,4.9c-2.3,0-4.1-2.2-4.1-4.9v-30
	C75.2,24.1,77,21.9,79.3,21.9z"/>
<path class="st0" d="M67.5,17.8c2.3,0,4.1,2.2,4.1,4.9v38.1c0,2.7-1.8,4.9-4.1,4.9c-2.3,0-4.1-2.2-4.1-4.9V22.7
	C63.4,20,65.2,17.8,67.5,17.8z"/>
<path class="st0" d="M86.9,46.4c1.8-0.6,3.1-2.4,3.1-4.7c0-2.3-1.3-4.2-3.1-4.7V46.4z"/>
</svg>
