<svg width="1193" height="72" viewBox="0 0 1193 72" fill="none" xmlns="http://www.w3.org/2000/svg">
<circle opacity="0.8" cx="23" cy="25" r="23" fill="#D9D9D9"/>
<circle cx="23" cy="25" r="14" fill="#8B8B8B"/>
<path d="M66.642 36V14.1818H74.0142C75.7259 14.1818 77.125 14.4908 78.2116 15.1087C79.3054 15.7195 80.1151 16.5469 80.6406 17.5909C81.1662 18.6349 81.429 19.7997 81.429 21.0852C81.429 22.3707 81.1662 23.5391 80.6406 24.5902C80.1222 25.6413 79.3196 26.4794 78.233 27.1044C77.1463 27.7223 75.7543 28.0312 74.0568 28.0312H68.7727V25.6875H73.9716C75.1435 25.6875 76.0845 25.4851 76.7947 25.0803C77.505 24.6754 78.0199 24.1286 78.3395 23.4396C78.6662 22.7436 78.8295 21.9588 78.8295 21.0852C78.8295 20.2116 78.6662 19.4304 78.3395 18.7415C78.0199 18.0526 77.5014 17.5128 76.7841 17.1222C76.0668 16.7244 75.1151 16.5256 73.929 16.5256H69.2841V36H66.642ZM89.6494 36.3835C88.6125 36.3835 87.6715 36.1882 86.8263 35.7976C85.9811 35.3999 85.31 34.8281 84.8128 34.0824C84.3156 33.3295 84.0671 32.4205 84.0671 31.3551C84.0671 30.4176 84.2517 29.6577 84.621 29.0753C84.9904 28.4858 85.484 28.0241 86.1019 27.6903C86.7198 27.3565 87.4016 27.108 88.1473 26.9446C88.9002 26.7741 89.6565 26.6392 90.4165 26.5398C91.4108 26.4119 92.2169 26.3161 92.8348 26.2521C93.4598 26.1811 93.9144 26.0639 94.1985 25.9006C94.4896 25.7372 94.6352 25.4531 94.6352 25.0483V24.9631C94.6352 23.9119 94.3476 23.0952 93.7723 22.5128C93.2041 21.9304 92.3412 21.6392 91.1835 21.6392C89.9833 21.6392 89.0422 21.902 88.3604 22.4276C87.6786 22.9531 87.1992 23.5142 86.9222 24.1108L84.5358 23.2585C84.9619 22.2642 85.5301 21.4901 86.2404 20.9361C86.9577 20.375 87.7389 19.9844 88.5841 19.7642C89.4364 19.5369 90.2744 19.4233 91.0983 19.4233C91.6239 19.4233 92.2276 19.4872 92.9094 19.6151C93.5983 19.7358 94.2624 19.9879 94.9016 20.3714C95.5479 20.755 96.0841 21.3338 96.5102 22.108C96.9364 22.8821 97.1494 23.919 97.1494 25.2188V36H94.6352V33.7841H94.5074C94.3369 34.1392 94.0529 34.5192 93.6551 34.924C93.2574 35.3288 92.7283 35.6733 92.0678 35.9574C91.4073 36.2415 90.6012 36.3835 89.6494 36.3835ZM90.033 34.125C91.0273 34.125 91.8654 33.9297 92.5472 33.5391C93.2361 33.1484 93.7546 32.6442 94.1026 32.0263C94.4577 31.4084 94.6352 30.7585 94.6352 30.0767V27.7756C94.5287 27.9034 94.2943 28.0206 93.9321 28.1271C93.577 28.2266 93.1651 28.3153 92.6963 28.3935C92.2347 28.4645 91.7837 28.5284 91.3433 28.5852C90.9101 28.6349 90.5585 28.6776 90.2887 28.7131C89.6352 28.7983 89.0244 28.9368 88.4563 29.1286C87.8952 29.3132 87.4406 29.5937 87.0926 29.9702C86.7517 30.3395 86.5813 30.8437 86.5813 31.483C86.5813 32.3565 86.9044 33.017 87.5507 33.4645C88.2041 33.9048 89.0315 34.125 90.033 34.125ZM101.228 36V19.6364H103.743V36H101.228ZM101.356 17.4205L103.956 12.4773H106.896L103.572 17.4205H101.356ZM119.428 23.3011L117.17 23.9403C117.028 23.5639 116.818 23.1982 116.541 22.843C116.271 22.4808 115.902 22.1825 115.433 21.9482C114.965 21.7138 114.365 21.5966 113.633 21.5966C112.632 21.5966 111.797 21.8274 111.129 22.2891C110.469 22.7436 110.139 23.3224 110.139 24.0256C110.139 24.6506 110.366 25.1442 110.82 25.5064C111.275 25.8686 111.985 26.1705 112.951 26.4119L115.38 27.0085C116.843 27.3636 117.933 27.907 118.651 28.6385C119.368 29.3629 119.727 30.2969 119.727 31.4403C119.727 32.3778 119.457 33.2159 118.917 33.9545C118.384 34.6932 117.639 35.2756 116.68 35.7017C115.721 36.1278 114.606 36.3409 113.335 36.3409C111.666 36.3409 110.284 35.9787 109.191 35.2543C108.097 34.5298 107.404 33.4716 107.113 32.0795L109.499 31.483C109.727 32.3636 110.156 33.0241 110.789 33.4645C111.428 33.9048 112.262 34.125 113.292 34.125C114.464 34.125 115.394 33.8764 116.083 33.3793C116.779 32.875 117.127 32.2713 117.127 31.5682C117.127 31 116.928 30.5241 116.531 30.1406C116.133 29.75 115.522 29.4588 114.698 29.267L111.971 28.6278C110.472 28.2727 109.372 27.7223 108.669 26.9766C107.972 26.2237 107.624 25.2827 107.624 24.1534C107.624 23.2301 107.884 22.4134 108.402 21.7031C108.928 20.9929 109.642 20.4354 110.544 20.0305C111.453 19.6257 112.482 19.4233 113.633 19.4233C115.252 19.4233 116.524 19.7784 117.447 20.4886C118.377 21.1989 119.038 22.1364 119.428 23.3011ZM137.108 36.3409C135.744 36.3409 134.54 35.9964 133.496 35.3075C132.452 34.6115 131.636 33.6314 131.046 32.3672C130.457 31.0959 130.162 29.5938 130.162 27.8608C130.162 26.142 130.457 24.6506 131.046 23.3864C131.636 22.1222 132.456 21.1456 133.507 20.4567C134.558 19.7678 135.773 19.4233 137.15 19.4233C138.216 19.4233 139.057 19.6009 139.675 19.956C140.3 20.304 140.776 20.7017 141.103 21.1491C141.437 21.5895 141.696 21.9517 141.881 22.2358H142.094V14.1818H144.608V36H142.179V33.4858H141.881C141.696 33.7841 141.433 34.1605 141.092 34.6151C140.751 35.0625 140.265 35.4638 139.633 35.8189C139.001 36.1669 138.159 36.3409 137.108 36.3409ZM137.449 34.0824C138.457 34.0824 139.31 33.8196 140.006 33.294C140.702 32.7614 141.231 32.0263 141.593 31.0888C141.955 30.1442 142.136 29.054 142.136 27.8182C142.136 26.5966 141.959 25.5277 141.604 24.6115C141.248 23.6882 140.723 22.9709 140.027 22.4595C139.331 21.9411 138.471 21.6818 137.449 21.6818C136.383 21.6818 135.496 21.9553 134.785 22.5021C134.082 23.0419 133.553 23.777 133.198 24.7074C132.85 25.6307 132.676 26.6676 132.676 27.8182C132.676 28.983 132.854 30.0412 133.209 30.9929C133.571 31.9375 134.104 32.6903 134.807 33.2514C135.517 33.8054 136.398 34.0824 137.449 34.0824ZM155.912 36.3409C154.336 36.3409 152.976 35.9929 151.832 35.2969C150.696 34.5938 149.819 33.6136 149.201 32.3565C148.59 31.0923 148.285 29.6222 148.285 27.946C148.285 26.2699 148.59 24.7926 149.201 23.5142C149.819 22.2287 150.678 21.2273 151.779 20.5099C152.887 19.7855 154.18 19.4233 155.657 19.4233C156.509 19.4233 157.351 19.5653 158.182 19.8494C159.013 20.1335 159.769 20.5952 160.451 21.2344C161.133 21.8665 161.676 22.7045 162.081 23.7486C162.486 24.7926 162.688 26.0781 162.688 27.6051V28.6705H150.074V26.4972H160.131C160.131 25.5739 159.947 24.75 159.577 24.0256C159.215 23.3011 158.697 22.7294 158.022 22.3104C157.354 21.8913 156.566 21.6818 155.657 21.6818C154.655 21.6818 153.789 21.9304 153.057 22.4276C152.333 22.9176 151.775 23.5568 151.385 24.3452C150.994 25.1335 150.799 25.9787 150.799 26.8807V28.3295C150.799 29.5653 151.012 30.6129 151.438 31.4723C151.871 32.3246 152.471 32.9744 153.238 33.4219C154.006 33.8622 154.897 34.0824 155.912 34.0824C156.573 34.0824 157.17 33.9901 157.702 33.8054C158.242 33.6136 158.707 33.3295 159.098 32.9531C159.488 32.5696 159.79 32.0937 160.003 31.5256L162.432 32.2074C162.177 33.0312 161.747 33.7557 161.143 34.3807C160.54 34.9986 159.794 35.4815 158.906 35.8295C158.018 36.1705 157.02 36.3409 155.912 36.3409ZM180.578 36.3409C179.101 36.3409 177.804 35.9893 176.689 35.2862C175.581 34.5831 174.715 33.5994 174.09 32.3352C173.472 31.071 173.163 29.5937 173.163 27.9034C173.163 26.1989 173.472 24.7109 174.09 23.4396C174.715 22.1683 175.581 21.1811 176.689 20.478C177.804 19.7749 179.101 19.4233 180.578 19.4233C182.055 19.4233 183.348 19.7749 184.456 20.478C185.571 21.1811 186.437 22.1683 187.055 23.4396C187.68 24.7109 187.993 26.1989 187.993 27.9034C187.993 29.5937 187.68 31.071 187.055 32.3352C186.437 33.5994 185.571 34.5831 184.456 35.2862C183.348 35.9893 182.055 36.3409 180.578 36.3409ZM180.578 34.0824C181.7 34.0824 182.623 33.7947 183.348 33.2195C184.072 32.6442 184.608 31.8878 184.956 30.9503C185.304 30.0128 185.478 28.9972 185.478 27.9034C185.478 26.8097 185.304 25.7905 184.956 24.8459C184.608 23.9013 184.072 23.1378 183.348 22.5554C182.623 21.973 181.7 21.6818 180.578 21.6818C179.456 21.6818 178.532 21.973 177.808 22.5554C177.084 23.1378 176.547 23.9013 176.199 24.8459C175.851 25.7905 175.677 26.8097 175.677 27.9034C175.677 28.9972 175.851 30.0128 176.199 30.9503C176.547 31.8878 177.084 32.6442 177.808 33.2195C178.532 33.7947 179.456 34.0824 180.578 34.0824ZM191.321 36V19.6364H193.749V22.108H193.92C194.218 21.2983 194.758 20.6413 195.539 20.1371C196.321 19.6328 197.201 19.3807 198.181 19.3807C198.366 19.3807 198.597 19.3842 198.874 19.3913C199.151 19.3984 199.36 19.4091 199.502 19.4233V21.9801C199.417 21.9588 199.222 21.9268 198.916 21.8842C198.618 21.8345 198.302 21.8097 197.968 21.8097C197.173 21.8097 196.463 21.9766 195.838 22.3104C195.22 22.6371 194.73 23.0916 194.367 23.674C194.012 24.2493 193.835 24.9062 193.835 25.6449V36H191.321ZM201.973 36V19.6364H204.487V36H201.973ZM203.251 16.9091C202.761 16.9091 202.338 16.7422 201.983 16.4084C201.635 16.0746 201.461 15.6733 201.461 15.2045C201.461 14.7358 201.635 14.3345 201.983 14.0007C202.338 13.6669 202.761 13.5 203.251 13.5C203.741 13.5 204.16 13.6669 204.508 14.0007C204.863 14.3345 205.041 14.7358 205.041 15.2045C205.041 15.6733 204.863 16.0746 204.508 16.4084C204.16 16.7422 203.741 16.9091 203.251 16.9091ZM215.187 42.4773C213.972 42.4773 212.928 42.321 212.055 42.0085C211.181 41.7031 210.453 41.2983 209.871 40.794C209.296 40.2969 208.837 39.7642 208.497 39.196L210.499 37.7898C210.727 38.0881 211.014 38.429 211.362 38.8125C211.71 39.2031 212.186 39.5405 212.79 39.8246C213.401 40.1158 214.2 40.2614 215.187 40.2614C216.508 40.2614 217.598 39.9418 218.457 39.3026C219.317 38.6634 219.747 37.6619 219.747 36.2983V32.9744H219.533C219.349 33.2727 219.086 33.642 218.745 34.0824C218.411 34.5156 217.928 34.9027 217.296 35.2436C216.671 35.5774 215.826 35.7443 214.761 35.7443C213.44 35.7443 212.254 35.4318 211.202 34.8068C210.158 34.1818 209.331 33.2727 208.72 32.0795C208.117 30.8864 207.815 29.4375 207.815 27.733C207.815 26.0568 208.109 24.5973 208.699 23.3544C209.288 22.1044 210.109 21.1385 211.16 20.4567C212.211 19.7678 213.426 19.4233 214.803 19.4233C215.869 19.4233 216.714 19.6009 217.339 19.956C217.971 20.304 218.454 20.7017 218.788 21.1491C219.129 21.5895 219.391 21.9517 219.576 22.2358H219.832V19.6364H222.261V36.4688C222.261 37.875 221.941 39.0185 221.302 39.8991C220.67 40.7869 219.818 41.4368 218.745 41.8487C217.68 42.2678 216.494 42.4773 215.187 42.4773ZM215.102 33.4858C216.11 33.4858 216.962 33.255 217.658 32.7933C218.354 32.3317 218.884 31.6676 219.246 30.8011C219.608 29.9347 219.789 28.8977 219.789 27.6903C219.789 26.5114 219.612 25.4709 219.256 24.5689C218.901 23.6669 218.376 22.9602 217.68 22.4489C216.984 21.9375 216.124 21.6818 215.102 21.6818C214.036 21.6818 213.149 21.9517 212.438 22.4915C211.735 23.0312 211.206 23.7557 210.851 24.6648C210.503 25.5739 210.329 26.5824 210.329 27.6903C210.329 28.8267 210.506 29.8317 210.862 30.7053C211.224 31.5717 211.756 32.2536 212.46 32.7507C213.17 33.2408 214.051 33.4858 215.102 33.4858ZM233.214 36.3409C231.637 36.3409 230.277 35.9929 229.134 35.2969C227.997 34.5938 227.12 33.6136 226.502 32.3565C225.891 31.0923 225.586 29.6222 225.586 27.946C225.586 26.2699 225.891 24.7926 226.502 23.5142C227.12 22.2287 227.979 21.2273 229.08 20.5099C230.188 19.7855 231.481 19.4233 232.958 19.4233C233.81 19.4233 234.652 19.5653 235.483 19.8494C236.314 20.1335 237.07 20.5952 237.752 21.2344C238.434 21.8665 238.977 22.7045 239.382 23.7486C239.787 24.7926 239.989 26.0781 239.989 27.6051V28.6705H227.376V26.4972H237.433C237.433 25.5739 237.248 24.75 236.879 24.0256C236.516 23.3011 235.998 22.7294 235.323 22.3104C234.656 21.8913 233.867 21.6818 232.958 21.6818C231.957 21.6818 231.09 21.9304 230.359 22.4276C229.634 22.9176 229.077 23.5568 228.686 24.3452C228.295 25.1335 228.1 25.9787 228.1 26.8807V28.3295C228.1 29.5653 228.313 30.6129 228.739 31.4723C229.173 32.3246 229.773 32.9744 230.54 33.4219C231.307 33.8622 232.198 34.0824 233.214 34.0824C233.874 34.0824 234.471 33.9901 235.004 33.8054C235.543 33.6136 236.009 33.3295 236.399 32.9531C236.79 32.5696 237.092 32.0937 237.305 31.5256L239.734 32.2074C239.478 33.0312 239.048 33.7557 238.445 34.3807C237.841 34.9986 237.095 35.4815 236.207 35.8295C235.32 36.1705 234.322 36.3409 233.214 36.3409ZM245.818 26.1562V36H243.304V19.6364H245.733V22.1932H245.946C246.33 21.3622 246.912 20.6946 247.693 20.1903C248.474 19.679 249.483 19.4233 250.719 19.4233C251.827 19.4233 252.796 19.6506 253.627 20.1051C254.458 20.5526 255.104 21.2344 255.566 22.1506C256.028 23.0597 256.258 24.2102 256.258 25.6023V36H253.744V25.7727C253.744 24.4872 253.41 23.4858 252.743 22.7685C252.075 22.044 251.159 21.6818 249.994 21.6818C249.192 21.6818 248.474 21.8558 247.842 22.2038C247.217 22.5518 246.724 23.0597 246.361 23.7273C245.999 24.3949 245.818 25.2045 245.818 26.1562Z" fill="black"/>
<path d="M460.645 36V14.1818H468.017C469.729 14.1818 471.128 14.4908 472.215 15.1087C473.308 15.7195 474.118 16.5469 474.644 17.5909C475.169 18.6349 475.432 19.7997 475.432 21.0852C475.432 22.3707 475.169 23.5391 474.644 24.5902C474.125 25.6413 473.323 26.4794 472.236 27.1044C471.149 27.7223 469.757 28.0312 468.06 28.0312H462.776V25.6875H467.975C469.146 25.6875 470.087 25.4851 470.798 25.0803C471.508 24.6754 472.023 24.1286 472.342 23.4396C472.669 22.7436 472.832 21.9588 472.832 21.0852C472.832 20.2116 472.669 19.4304 472.342 18.7415C472.023 18.0526 471.504 17.5128 470.787 17.1222C470.07 16.7244 469.118 16.5256 467.932 16.5256H463.287V36H460.645ZM483.652 36.3835C482.615 36.3835 481.674 36.1882 480.829 35.7976C479.984 35.3999 479.313 34.8281 478.816 34.0824C478.319 33.3295 478.07 32.4205 478.07 31.3551C478.07 30.4176 478.255 29.6577 478.624 29.0753C478.993 28.4858 479.487 28.0241 480.105 27.6903C480.723 27.3565 481.405 27.108 482.15 26.9446C482.903 26.7741 483.659 26.6392 484.419 26.5398C485.414 26.4119 486.22 26.3161 486.838 26.2521C487.463 26.1811 487.917 26.0639 488.201 25.9006C488.493 25.7372 488.638 25.4531 488.638 25.0483V24.9631C488.638 23.9119 488.351 23.0952 487.775 22.5128C487.207 21.9304 486.344 21.6392 485.186 21.6392C483.986 21.6392 483.045 21.902 482.363 22.4276C481.681 22.9531 481.202 23.5142 480.925 24.1108L478.539 23.2585C478.965 22.2642 479.533 21.4901 480.243 20.9361C480.961 20.375 481.742 19.9844 482.587 19.7642C483.439 19.5369 484.277 19.4233 485.101 19.4233C485.627 19.4233 486.231 19.4872 486.912 19.6151C487.601 19.7358 488.265 19.9879 488.905 20.3714C489.551 20.755 490.087 21.3338 490.513 22.108C490.939 22.8821 491.152 23.919 491.152 25.2188V36H488.638V33.7841H488.51C488.34 34.1392 488.056 34.5192 487.658 34.924C487.26 35.3288 486.731 35.6733 486.071 35.9574C485.41 36.2415 484.604 36.3835 483.652 36.3835ZM484.036 34.125C485.03 34.125 485.868 33.9297 486.55 33.5391C487.239 33.1484 487.757 32.6442 488.106 32.0263C488.461 31.4084 488.638 30.7585 488.638 30.0767V27.7756C488.532 27.9034 488.297 28.0206 487.935 28.1271C487.58 28.2266 487.168 28.3153 486.699 28.3935C486.238 28.4645 485.787 28.5284 485.346 28.5852C484.913 28.6349 484.561 28.6776 484.292 28.7131C483.638 28.7983 483.027 28.9368 482.459 29.1286C481.898 29.3132 481.444 29.5937 481.096 29.9702C480.755 30.3395 480.584 30.8437 480.584 31.483C480.584 32.3565 480.907 33.017 481.554 33.4645C482.207 33.9048 483.034 34.125 484.036 34.125ZM495.231 36V19.6364H497.746V36H495.231ZM495.359 17.4205L497.959 12.4773H500.899L497.575 17.4205H495.359ZM513.431 23.3011L511.173 23.9403C511.031 23.5639 510.821 23.1982 510.544 22.843C510.274 22.4808 509.905 22.1825 509.436 21.9482C508.968 21.7138 508.367 21.5966 507.636 21.5966C506.635 21.5966 505.8 21.8274 505.132 22.2891C504.472 22.7436 504.142 23.3224 504.142 24.0256C504.142 24.6506 504.369 25.1442 504.823 25.5064C505.278 25.8686 505.988 26.1705 506.954 26.4119L509.383 27.0085C510.846 27.3636 511.936 27.907 512.654 28.6385C513.371 29.3629 513.73 30.2969 513.73 31.4403C513.73 32.3778 513.46 33.2159 512.92 33.9545C512.387 34.6932 511.642 35.2756 510.683 35.7017C509.724 36.1278 508.609 36.3409 507.338 36.3409C505.669 36.3409 504.287 35.9787 503.193 35.2543C502.1 34.5298 501.407 33.4716 501.116 32.0795L503.502 31.483C503.73 32.3636 504.159 33.0241 504.791 33.4645C505.431 33.9048 506.265 34.125 507.295 34.125C508.467 34.125 509.397 33.8764 510.086 33.3793C510.782 32.875 511.13 32.2713 511.13 31.5682C511.13 31 510.931 30.5241 510.534 30.1406C510.136 29.75 509.525 29.4588 508.701 29.267L505.974 28.6278C504.475 28.2727 503.375 27.7223 502.671 26.9766C501.975 26.2237 501.627 25.2827 501.627 24.1534C501.627 23.2301 501.887 22.4134 502.405 21.7031C502.931 20.9929 503.644 20.4354 504.546 20.0305C505.456 19.6257 506.485 19.4233 507.636 19.4233C509.255 19.4233 510.527 19.7784 511.45 20.4886C512.38 21.1989 513.041 22.1364 513.431 23.3011ZM531.111 36.3409C529.747 36.3409 528.543 35.9964 527.499 35.3075C526.455 34.6115 525.638 33.6314 525.049 32.3672C524.459 31.0959 524.165 29.5938 524.165 27.8608C524.165 26.142 524.459 24.6506 525.049 23.3864C525.638 22.1222 526.459 21.1456 527.51 20.4567C528.561 19.7678 529.776 19.4233 531.153 19.4233C532.219 19.4233 533.06 19.6009 533.678 19.956C534.303 20.304 534.779 20.7017 535.106 21.1491C535.44 21.5895 535.699 21.9517 535.884 22.2358H536.097V14.1818H538.611V36H536.182V33.4858H535.884C535.699 33.7841 535.436 34.1605 535.095 34.6151C534.754 35.0625 534.268 35.4638 533.636 35.8189C533.004 36.1669 532.162 36.3409 531.111 36.3409ZM531.452 34.0824C532.46 34.0824 533.312 33.8196 534.009 33.294C534.705 32.7614 535.234 32.0263 535.596 31.0888C535.958 30.1442 536.139 29.054 536.139 27.8182C536.139 26.5966 535.962 25.5277 535.607 24.6115C535.251 23.6882 534.726 22.9709 534.03 22.4595C533.334 21.9411 532.474 21.6818 531.452 21.6818C530.386 21.6818 529.499 21.9553 528.788 22.5021C528.085 23.0419 527.556 23.777 527.201 24.7074C526.853 25.6307 526.679 26.6676 526.679 27.8182C526.679 28.983 526.857 30.0412 527.212 30.9929C527.574 31.9375 528.107 32.6903 528.81 33.2514C529.52 33.8054 530.401 34.0824 531.452 34.0824ZM549.915 36.3409C548.339 36.3409 546.979 35.9929 545.835 35.2969C544.699 34.5938 543.822 33.6136 543.204 32.3565C542.593 31.0923 542.288 29.6222 542.288 27.946C542.288 26.2699 542.593 24.7926 543.204 23.5142C543.822 22.2287 544.681 21.2273 545.782 20.5099C546.89 19.7855 548.182 19.4233 549.66 19.4233C550.512 19.4233 551.354 19.5653 552.185 19.8494C553.016 20.1335 553.772 20.5952 554.454 21.2344C555.136 21.8665 555.679 22.7045 556.084 23.7486C556.489 24.7926 556.691 26.0781 556.691 27.6051V28.6705H544.077V26.4972H554.134C554.134 25.5739 553.95 24.75 553.58 24.0256C553.218 23.3011 552.7 22.7294 552.025 22.3104C551.357 21.8913 550.569 21.6818 549.66 21.6818C548.658 21.6818 547.792 21.9304 547.06 22.4276C546.336 22.9176 545.778 23.5568 545.388 24.3452C544.997 25.1335 544.802 25.9787 544.802 26.8807V28.3295C544.802 29.5653 545.015 30.6129 545.441 31.4723C545.874 32.3246 546.474 32.9744 547.241 33.4219C548.008 33.8622 548.9 34.0824 549.915 34.0824C550.576 34.0824 551.173 33.9901 551.705 33.8054C552.245 33.6136 552.71 33.3295 553.101 32.9531C553.491 32.5696 553.793 32.0937 554.006 31.5256L556.435 32.2074C556.18 33.0312 555.75 33.7557 555.146 34.3807C554.543 34.9986 553.797 35.4815 552.909 35.8295C552.021 36.1705 551.023 36.3409 549.915 36.3409ZM572.748 36.3835C571.711 36.3835 570.77 36.1882 569.925 35.7976C569.08 35.3999 568.409 34.8281 567.912 34.0824C567.415 33.3295 567.166 32.4205 567.166 31.3551C567.166 30.4176 567.351 29.6577 567.72 29.0753C568.089 28.4858 568.583 28.0241 569.201 27.6903C569.819 27.3565 570.501 27.108 571.246 26.9446C571.999 26.7741 572.755 26.6392 573.515 26.5398C574.51 26.4119 575.316 26.3161 575.934 26.2521C576.559 26.1811 577.013 26.0639 577.297 25.9006C577.589 25.7372 577.734 25.4531 577.734 25.0483V24.9631C577.734 23.9119 577.447 23.0952 576.871 22.5128C576.303 21.9304 575.44 21.6392 574.282 21.6392C573.082 21.6392 572.141 21.902 571.459 22.4276C570.778 22.9531 570.298 23.5142 570.021 24.1108L567.635 23.2585C568.061 22.2642 568.629 21.4901 569.339 20.9361C570.057 20.375 570.838 19.9844 571.683 19.7642C572.535 19.5369 573.373 19.4233 574.197 19.4233C574.723 19.4233 575.327 19.4872 576.008 19.6151C576.697 19.7358 577.361 19.9879 578.001 20.3714C578.647 20.755 579.183 21.3338 579.609 22.108C580.035 22.8821 580.248 23.919 580.248 25.2188V36H577.734V33.7841H577.606C577.436 34.1392 577.152 34.5192 576.754 34.924C576.356 35.3288 575.827 35.6733 575.167 35.9574C574.506 36.2415 573.7 36.3835 572.748 36.3835ZM573.132 34.125C574.126 34.125 574.964 33.9297 575.646 33.5391C576.335 33.1484 576.854 32.6442 577.202 32.0263C577.557 31.4084 577.734 30.7585 577.734 30.0767V27.7756C577.628 27.9034 577.393 28.0206 577.031 28.1271C576.676 28.2266 576.264 28.3153 575.795 28.3935C575.334 28.4645 574.883 28.5284 574.442 28.5852C574.009 28.6349 573.657 28.6776 573.388 28.7131C572.734 28.7983 572.123 28.9368 571.555 29.1286C570.994 29.3132 570.54 29.5937 570.192 29.9702C569.851 30.3395 569.68 30.8437 569.68 31.483C569.68 32.3565 570.003 33.017 570.65 33.4645C571.303 33.9048 572.13 34.125 573.132 34.125ZM594.64 29.3097V19.6364H597.154V36H594.64V33.2301H594.469C594.086 34.0611 593.489 34.7678 592.68 35.3501C591.87 35.9254 590.847 36.2131 589.611 36.2131C588.589 36.2131 587.68 35.9893 586.884 35.5419C586.089 35.0874 585.464 34.4055 585.009 33.4964C584.555 32.5803 584.327 31.4261 584.327 30.0341V19.6364H586.842V29.8636C586.842 31.0568 587.175 32.0085 587.843 32.7188C588.518 33.429 589.377 33.7841 590.421 33.7841C591.046 33.7841 591.682 33.6243 592.328 33.3047C592.981 32.9851 593.528 32.495 593.969 31.8345C594.416 31.174 594.64 30.3324 594.64 29.3097ZM607.428 36.3409C606.064 36.3409 604.86 35.9964 603.816 35.3075C602.772 34.6115 601.956 33.6314 601.366 32.3672C600.777 31.0959 600.482 29.5938 600.482 27.8608C600.482 26.142 600.777 24.6506 601.366 23.3864C601.956 22.1222 602.776 21.1456 603.827 20.4567C604.878 19.7678 606.093 19.4233 607.471 19.4233C608.536 19.4233 609.378 19.6009 609.995 19.956C610.62 20.304 611.096 20.7017 611.423 21.1491C611.757 21.5895 612.016 21.9517 612.201 22.2358H612.414V14.1818H614.928V36H612.499V33.4858H612.201C612.016 33.7841 611.753 34.1605 611.412 34.6151C611.071 35.0625 610.585 35.4638 609.953 35.8189C609.321 36.1669 608.479 36.3409 607.428 36.3409ZM607.769 34.0824C608.777 34.0824 609.63 33.8196 610.326 33.294C611.022 32.7614 611.551 32.0263 611.913 31.0888C612.275 30.1442 612.456 29.054 612.456 27.8182C612.456 26.5966 612.279 25.5277 611.924 24.6115C611.569 23.6882 611.043 22.9709 610.347 22.4595C609.651 21.9411 608.792 21.6818 607.769 21.6818C606.704 21.6818 605.816 21.9553 605.106 22.5021C604.402 23.0419 603.873 23.777 603.518 24.7074C603.17 25.6307 602.996 26.6676 602.996 27.8182C602.996 28.983 603.174 30.0412 603.529 30.9929C603.891 31.9375 604.424 32.6903 605.127 33.2514C605.837 33.8054 606.718 34.0824 607.769 34.0824ZM619.372 36V19.6364H621.886V36H619.372ZM620.65 16.9091C620.16 16.9091 619.738 16.7422 619.382 16.4084C619.034 16.0746 618.86 15.6733 618.86 15.2045C618.86 14.7358 619.034 14.3345 619.382 14.0007C619.738 13.6669 620.16 13.5 620.65 13.5C621.14 13.5 621.559 13.6669 621.907 14.0007C622.262 14.3345 622.44 14.7358 622.44 15.2045C622.44 15.6733 622.262 16.0746 621.907 16.4084C621.559 16.7422 621.14 16.9091 620.65 16.9091ZM632.842 36.3409C631.265 36.3409 629.905 35.9929 628.761 35.2969C627.625 34.5938 626.748 33.6136 626.13 32.3565C625.519 31.0923 625.214 29.6222 625.214 27.946C625.214 26.2699 625.519 24.7926 626.13 23.5142C626.748 22.2287 627.607 21.2273 628.708 20.5099C629.816 19.7855 631.109 19.4233 632.586 19.4233C633.438 19.4233 634.28 19.5653 635.111 19.8494C635.942 20.1335 636.698 20.5952 637.38 21.2344C638.062 21.8665 638.605 22.7045 639.01 23.7486C639.415 24.7926 639.617 26.0781 639.617 27.6051V28.6705H627.004V26.4972H637.06C637.06 25.5739 636.876 24.75 636.507 24.0256C636.144 23.3011 635.626 22.7294 634.951 22.3104C634.284 21.8913 633.495 21.6818 632.586 21.6818C631.585 21.6818 630.718 21.9304 629.987 22.4276C629.262 22.9176 628.705 23.5568 628.314 24.3452C627.923 25.1335 627.728 25.9787 627.728 26.8807V28.3295C627.728 29.5653 627.941 30.6129 628.367 31.4723C628.801 32.3246 629.401 32.9744 630.168 33.4219C630.935 33.8622 631.826 34.0824 632.842 34.0824C633.502 34.0824 634.099 33.9901 634.632 33.8054C635.171 33.6136 635.636 33.3295 636.027 32.9531C636.418 32.5696 636.72 32.0937 636.933 31.5256L639.362 32.2074C639.106 33.0312 638.676 33.7557 638.073 34.3807C637.469 34.9986 636.723 35.4815 635.835 35.8295C634.948 36.1705 633.95 36.3409 632.842 36.3409ZM645.446 26.1562V36H642.932V19.6364H645.361V22.1932H645.574C645.957 21.3622 646.54 20.6946 647.321 20.1903C648.102 19.679 649.111 19.4233 650.347 19.4233C651.455 19.4233 652.424 19.6506 653.255 20.1051C654.086 20.5526 654.732 21.2344 655.194 22.1506C655.656 23.0597 655.886 24.2102 655.886 25.6023V36H653.372V25.7727C653.372 24.4872 653.038 23.4858 652.371 22.7685C651.703 22.044 650.787 21.6818 649.622 21.6818C648.82 21.6818 648.102 21.8558 647.47 22.2038C646.845 22.5518 646.352 23.0597 645.989 23.7273C645.627 24.3949 645.446 25.2045 645.446 26.1562ZM666.618 36.3409C665.084 36.3409 663.763 35.9787 662.655 35.2543C661.547 34.5298 660.695 33.532 660.099 32.2607C659.502 30.9893 659.204 29.5369 659.204 27.9034C659.204 26.2415 659.509 24.7749 660.12 23.5036C660.738 22.2251 661.597 21.2273 662.698 20.5099C663.806 19.7855 665.099 19.4233 666.576 19.4233C667.726 19.4233 668.763 19.6364 669.687 20.0625C670.61 20.4886 671.366 21.0852 671.956 21.8523C672.545 22.6193 672.911 23.5142 673.053 24.5369H670.539C670.347 23.7912 669.921 23.1307 669.26 22.5554C668.607 21.973 667.726 21.6818 666.618 21.6818C665.638 21.6818 664.779 21.9375 664.04 22.4489C663.309 22.9531 662.737 23.6669 662.325 24.5902C661.92 25.5064 661.718 26.5824 661.718 27.8182C661.718 29.0824 661.917 30.1832 662.314 31.1207C662.719 32.0582 663.287 32.7862 664.019 33.3047C664.758 33.8232 665.624 34.0824 666.618 34.0824C667.272 34.0824 667.865 33.9688 668.398 33.7415C668.93 33.5142 669.381 33.1875 669.751 32.7614C670.12 32.3352 670.383 31.8239 670.539 31.2273H673.053C672.911 32.1932 672.559 33.0632 671.998 33.8374C671.444 34.6044 670.709 35.2152 669.793 35.6697C668.884 36.1172 667.826 36.3409 666.618 36.3409ZM676.219 36V19.6364H678.733V36H676.219ZM677.497 16.9091C677.007 16.9091 676.584 16.7422 676.229 16.4084C675.881 16.0746 675.707 15.6733 675.707 15.2045C675.707 14.7358 675.881 14.3345 676.229 14.0007C676.584 13.6669 677.007 13.5 677.497 13.5C677.987 13.5 678.406 13.6669 678.754 14.0007C679.109 14.3345 679.287 14.7358 679.287 15.2045C679.287 15.6733 679.109 16.0746 678.754 16.4084C678.406 16.7422 677.987 16.9091 677.497 16.9091ZM687.643 36.3835C686.606 36.3835 685.665 36.1882 684.82 35.7976C683.975 35.3999 683.304 34.8281 682.806 34.0824C682.309 33.3295 682.061 32.4205 682.061 31.3551C682.061 30.4176 682.245 29.6577 682.615 29.0753C682.984 28.4858 683.478 28.0241 684.095 27.6903C684.713 27.3565 685.395 27.108 686.141 26.9446C686.894 26.7741 687.65 26.6392 688.41 26.5398C689.404 26.4119 690.21 26.3161 690.828 26.2521C691.453 26.1811 691.908 26.0639 692.192 25.9006C692.483 25.7372 692.629 25.4531 692.629 25.0483V24.9631C692.629 23.9119 692.341 23.0952 691.766 22.5128C691.198 21.9304 690.335 21.6392 689.177 21.6392C687.977 21.6392 687.036 21.902 686.354 22.4276C685.672 22.9531 685.193 23.5142 684.916 24.1108L682.529 23.2585C682.955 22.2642 683.524 21.4901 684.234 20.9361C684.951 20.375 685.732 19.9844 686.578 19.7642C687.43 19.5369 688.268 19.4233 689.092 19.4233C689.617 19.4233 690.221 19.4872 690.903 19.6151C691.592 19.7358 692.256 19.9879 692.895 20.3714C693.541 20.755 694.078 21.3338 694.504 22.108C694.93 22.8821 695.143 23.919 695.143 25.2188V36H692.629V33.7841H692.501C692.33 34.1392 692.046 34.5192 691.649 34.924C691.251 35.3288 690.722 35.6733 690.061 35.9574C689.401 36.2415 688.595 36.3835 687.643 36.3835ZM688.027 34.125C689.021 34.125 689.859 33.9297 690.541 33.5391C691.23 33.1484 691.748 32.6442 692.096 32.0263C692.451 31.4084 692.629 30.7585 692.629 30.0767V27.7756C692.522 27.9034 692.288 28.0206 691.926 28.1271C691.571 28.2266 691.159 28.3153 690.69 28.3935C690.228 28.4645 689.777 28.5284 689.337 28.5852C688.904 28.6349 688.552 28.6776 688.282 28.7131C687.629 28.7983 687.018 28.9368 686.45 29.1286C685.889 29.3132 685.434 29.5937 685.086 29.9702C684.745 30.3395 684.575 30.8437 684.575 31.483C684.575 32.3565 684.898 33.017 685.544 33.4645C686.198 33.9048 687.025 34.125 688.027 34.125Z" fill="black"/>
<path d="M869.642 29V7.18182H877.014C878.726 7.18182 880.125 7.49077 881.212 8.10866C882.305 8.71946 883.115 9.54688 883.641 10.5909C884.166 11.6349 884.429 12.7997 884.429 14.0852C884.429 15.3707 884.166 16.5391 883.641 17.5902C883.122 18.6413 882.32 19.4794 881.233 20.1044C880.146 20.7223 878.754 21.0312 877.057 21.0312H871.773V18.6875H876.972C878.143 18.6875 879.085 18.4851 879.795 18.0803C880.505 17.6754 881.02 17.1286 881.339 16.4396C881.666 15.7436 881.83 14.9588 881.83 14.0852C881.83 13.2116 881.666 12.4304 881.339 11.7415C881.02 11.0526 880.501 10.5128 879.784 10.1222C879.067 9.72443 878.115 9.52557 876.929 9.52557H872.284V29H869.642ZM892.649 29.3835C891.613 29.3835 890.671 29.1882 889.826 28.7976C888.981 28.3999 888.31 27.8281 887.813 27.0824C887.316 26.3295 887.067 25.4205 887.067 24.3551C887.067 23.4176 887.252 22.6577 887.621 22.0753C887.99 21.4858 888.484 21.0241 889.102 20.6903C889.72 20.3565 890.402 20.108 891.147 19.9446C891.9 19.7741 892.657 19.6392 893.416 19.5398C894.411 19.4119 895.217 19.3161 895.835 19.2521C896.46 19.1811 896.914 19.0639 897.198 18.9006C897.49 18.7372 897.635 18.4531 897.635 18.0483V17.9631C897.635 16.9119 897.348 16.0952 896.772 15.5128C896.204 14.9304 895.341 14.6392 894.184 14.6392C892.983 14.6392 892.042 14.902 891.36 15.4276C890.679 15.9531 890.199 16.5142 889.922 17.1108L887.536 16.2585C887.962 15.2642 888.53 14.4901 889.24 13.9361C889.958 13.375 890.739 12.9844 891.584 12.7642C892.436 12.5369 893.274 12.4233 894.098 12.4233C894.624 12.4233 895.228 12.4872 895.909 12.6151C896.598 12.7358 897.262 12.9879 897.902 13.3714C898.548 13.755 899.084 14.3338 899.51 15.108C899.936 15.8821 900.149 16.919 900.149 18.2188V29H897.635V26.7841H897.507C897.337 27.1392 897.053 27.5192 896.655 27.924C896.257 28.3288 895.728 28.6733 895.068 28.9574C894.407 29.2415 893.601 29.3835 892.649 29.3835ZM893.033 27.125C894.027 27.125 894.865 26.9297 895.547 26.5391C896.236 26.1484 896.755 25.6442 897.103 25.0263C897.458 24.4084 897.635 23.7585 897.635 23.0767V20.7756C897.529 20.9034 897.294 21.0206 896.932 21.1271C896.577 21.2266 896.165 21.3153 895.696 21.3935C895.235 21.4645 894.784 21.5284 894.343 21.5852C893.91 21.6349 893.559 21.6776 893.289 21.7131C892.635 21.7983 892.024 21.9368 891.456 22.1286C890.895 22.3132 890.441 22.5937 890.093 22.9702C889.752 23.3395 889.581 23.8437 889.581 24.483C889.581 25.3565 889.904 26.017 890.551 26.4645C891.204 26.9048 892.032 27.125 893.033 27.125ZM904.228 29V12.6364H906.743V29H904.228ZM904.356 10.4205L906.956 5.47727H909.896L906.572 10.4205H904.356ZM922.428 16.3011L920.17 16.9403C920.028 16.5639 919.818 16.1982 919.541 15.843C919.271 15.4808 918.902 15.1825 918.433 14.9482C917.965 14.7138 917.365 14.5966 916.633 14.5966C915.632 14.5966 914.797 14.8274 914.129 15.2891C913.469 15.7436 913.139 16.3224 913.139 17.0256C913.139 17.6506 913.366 18.1442 913.82 18.5064C914.275 18.8686 914.985 19.1705 915.951 19.4119L918.38 20.0085C919.843 20.3636 920.933 20.907 921.651 21.6385C922.368 22.3629 922.727 23.2969 922.727 24.4403C922.727 25.3778 922.457 26.2159 921.917 26.9545C921.384 27.6932 920.639 28.2756 919.68 28.7017C918.721 29.1278 917.606 29.3409 916.335 29.3409C914.666 29.3409 913.284 28.9787 912.191 28.2543C911.097 27.5298 910.404 26.4716 910.113 25.0795L912.499 24.483C912.727 25.3636 913.156 26.0241 913.789 26.4645C914.428 26.9048 915.262 27.125 916.292 27.125C917.464 27.125 918.394 26.8764 919.083 26.3793C919.779 25.875 920.127 25.2713 920.127 24.5682C920.127 24 919.928 23.5241 919.531 23.1406C919.133 22.75 918.522 22.4588 917.698 22.267L914.971 21.6278C913.472 21.2727 912.372 20.7223 911.669 19.9766C910.972 19.2237 910.624 18.2827 910.624 17.1534C910.624 16.2301 910.884 15.4134 911.402 14.7031C911.928 13.9929 912.642 13.4354 913.544 13.0305C914.453 12.6257 915.482 12.4233 916.633 12.4233C918.252 12.4233 919.524 12.7784 920.447 13.4886C921.377 14.1989 922.038 15.1364 922.428 16.3011ZM940.108 29.3409C938.744 29.3409 937.54 28.9964 936.496 28.3075C935.452 27.6115 934.636 26.6314 934.046 25.3672C933.457 24.0959 933.162 22.5938 933.162 20.8608C933.162 19.142 933.457 17.6506 934.046 16.3864C934.636 15.1222 935.456 14.1456 936.507 13.4567C937.558 12.7678 938.773 12.4233 940.15 12.4233C941.216 12.4233 942.057 12.6009 942.675 12.956C943.3 13.304 943.776 13.7017 944.103 14.1491C944.437 14.5895 944.696 14.9517 944.881 15.2358H945.094V7.18182H947.608V29H945.179V26.4858H944.881C944.696 26.7841 944.433 27.1605 944.092 27.6151C943.751 28.0625 943.265 28.4638 942.633 28.8189C942.001 29.1669 941.159 29.3409 940.108 29.3409ZM940.449 27.0824C941.457 27.0824 942.31 26.8196 943.006 26.294C943.702 25.7614 944.231 25.0263 944.593 24.0888C944.955 23.1442 945.136 22.054 945.136 20.8182C945.136 19.5966 944.959 18.5277 944.604 17.6115C944.248 16.6882 943.723 15.9709 943.027 15.4595C942.331 14.9411 941.471 14.6818 940.449 14.6818C939.383 14.6818 938.496 14.9553 937.785 15.5021C937.082 16.0419 936.553 16.777 936.198 17.7074C935.85 18.6307 935.676 19.6676 935.676 20.8182C935.676 21.983 935.854 23.0412 936.209 23.9929C936.571 24.9375 937.104 25.6903 937.807 26.2514C938.517 26.8054 939.398 27.0824 940.449 27.0824ZM958.912 29.3409C957.336 29.3409 955.976 28.9929 954.832 28.2969C953.696 27.5938 952.819 26.6136 952.201 25.3565C951.59 24.0923 951.285 22.6222 951.285 20.946C951.285 19.2699 951.59 17.7926 952.201 16.5142C952.819 15.2287 953.678 14.2273 954.779 13.5099C955.887 12.7855 957.18 12.4233 958.657 12.4233C959.509 12.4233 960.351 12.5653 961.182 12.8494C962.013 13.1335 962.769 13.5952 963.451 14.2344C964.133 14.8665 964.676 15.7045 965.081 16.7486C965.486 17.7926 965.688 19.0781 965.688 20.6051V21.6705H953.074V19.4972H963.131C963.131 18.5739 962.947 17.75 962.577 17.0256C962.215 16.3011 961.697 15.7294 961.022 15.3104C960.354 14.8913 959.566 14.6818 958.657 14.6818C957.655 14.6818 956.789 14.9304 956.057 15.4276C955.333 15.9176 954.775 16.5568 954.385 17.3452C953.994 18.1335 953.799 18.9787 953.799 19.8807V21.3295C953.799 22.5653 954.012 23.6129 954.438 24.4723C954.871 25.3246 955.471 25.9744 956.238 26.4219C957.006 26.8622 957.897 27.0824 958.912 27.0824C959.573 27.0824 960.17 26.9901 960.702 26.8054C961.242 26.6136 961.707 26.3295 962.098 25.9531C962.488 25.5696 962.79 25.0937 963.003 24.5256L965.432 25.2074C965.177 26.0312 964.747 26.7557 964.143 27.3807C963.54 27.9986 962.794 28.4815 961.906 28.8295C961.018 29.1705 960.02 29.3409 958.912 29.3409ZM983.578 29.3409C982.101 29.3409 980.804 28.9893 979.689 28.2862C978.581 27.5831 977.715 26.5994 977.09 25.3352C976.472 24.071 976.163 22.5937 976.163 20.9034C976.163 19.1989 976.472 17.7109 977.09 16.4396C977.715 15.1683 978.581 14.1811 979.689 13.478C980.804 12.7749 982.101 12.4233 983.578 12.4233C985.055 12.4233 986.348 12.7749 987.456 13.478C988.571 14.1811 989.437 15.1683 990.055 16.4396C990.68 17.7109 990.993 19.1989 990.993 20.9034C990.993 22.5937 990.68 24.071 990.055 25.3352C989.437 26.5994 988.571 27.5831 987.456 28.2862C986.348 28.9893 985.055 29.3409 983.578 29.3409ZM983.578 27.0824C984.7 27.0824 985.623 26.7947 986.348 26.2195C987.072 25.6442 987.608 24.8878 987.956 23.9503C988.304 23.0128 988.478 21.9972 988.478 20.9034C988.478 19.8097 988.304 18.7905 987.956 17.8459C987.608 16.9013 987.072 16.1378 986.348 15.5554C985.623 14.973 984.7 14.6818 983.578 14.6818C982.456 14.6818 981.532 14.973 980.808 15.5554C980.084 16.1378 979.547 16.9013 979.199 17.8459C978.851 18.7905 978.677 19.8097 978.677 20.9034C978.677 21.9972 978.851 23.0128 979.199 23.9503C979.547 24.8878 980.084 25.6442 980.808 26.2195C981.532 26.7947 982.456 27.0824 983.578 27.0824ZM994.321 29V12.6364H996.749V15.108H996.92C997.218 14.2983 997.758 13.6413 998.539 13.1371C999.321 12.6328 1000.2 12.3807 1001.18 12.3807C1001.37 12.3807 1001.6 12.3842 1001.87 12.3913C1002.15 12.3984 1002.36 12.4091 1002.5 12.4233V14.9801C1002.42 14.9588 1002.22 14.9268 1001.92 14.8842C1001.62 14.8345 1001.3 14.8097 1000.97 14.8097C1000.17 14.8097 999.463 14.9766 998.838 15.3104C998.22 15.6371 997.73 16.0916 997.367 16.674C997.012 17.2493 996.835 17.9062 996.835 18.6449V29H994.321ZM1004.97 29V12.6364H1007.49V29H1004.97ZM1006.25 9.90909C1005.76 9.90909 1005.34 9.74219 1004.98 9.40838C1004.64 9.07457 1004.46 8.6733 1004.46 8.20455C1004.46 7.7358 1004.64 7.33452 1004.98 7.00071C1005.34 6.6669 1005.76 6.5 1006.25 6.5C1006.74 6.5 1007.16 6.6669 1007.51 7.00071C1007.86 7.33452 1008.04 7.7358 1008.04 8.20455C1008.04 8.6733 1007.86 9.07457 1007.51 9.40838C1007.16 9.74219 1006.74 9.90909 1006.25 9.90909ZM1018.19 35.4773C1016.97 35.4773 1015.93 35.321 1015.05 35.0085C1014.18 34.7031 1013.45 34.2983 1012.87 33.794C1012.3 33.2969 1011.84 32.7642 1011.5 32.196L1013.5 30.7898C1013.73 31.0881 1014.01 31.429 1014.36 31.8125C1014.71 32.2031 1015.19 32.5405 1015.79 32.8246C1016.4 33.1158 1017.2 33.2614 1018.19 33.2614C1019.51 33.2614 1020.6 32.9418 1021.46 32.3026C1022.32 31.6634 1022.75 30.6619 1022.75 29.2983V25.9744H1022.53C1022.35 26.2727 1022.09 26.642 1021.75 27.0824C1021.41 27.5156 1020.93 27.9027 1020.3 28.2436C1019.67 28.5774 1018.83 28.7443 1017.76 28.7443C1016.44 28.7443 1015.25 28.4318 1014.2 27.8068C1013.16 27.1818 1012.33 26.2727 1011.72 25.0795C1011.12 23.8864 1010.81 22.4375 1010.81 20.733C1010.81 19.0568 1011.11 17.5973 1011.7 16.3544C1012.29 15.1044 1013.11 14.1385 1014.16 13.4567C1015.21 12.7678 1016.43 12.4233 1017.8 12.4233C1018.87 12.4233 1019.71 12.6009 1020.34 12.956C1020.97 13.304 1021.45 13.7017 1021.79 14.1491C1022.13 14.5895 1022.39 14.9517 1022.58 15.2358H1022.83V12.6364H1025.26V29.4688C1025.26 30.875 1024.94 32.0185 1024.3 32.8991C1023.67 33.7869 1022.82 34.4368 1021.75 34.8487C1020.68 35.2678 1019.49 35.4773 1018.19 35.4773ZM1018.1 26.4858C1019.11 26.4858 1019.96 26.255 1020.66 25.7933C1021.35 25.3317 1021.88 24.6676 1022.25 23.8011C1022.61 22.9347 1022.79 21.8977 1022.79 20.6903C1022.79 19.5114 1022.61 18.4709 1022.26 17.5689C1021.9 16.6669 1021.38 15.9602 1020.68 15.4489C1019.98 14.9375 1019.12 14.6818 1018.1 14.6818C1017.04 14.6818 1016.15 14.9517 1015.44 15.4915C1014.74 16.0312 1014.21 16.7557 1013.85 17.6648C1013.5 18.5739 1013.33 19.5824 1013.33 20.6903C1013.33 21.8267 1013.51 22.8317 1013.86 23.7053C1014.22 24.5717 1014.76 25.2536 1015.46 25.7507C1016.17 26.2408 1017.05 26.4858 1018.1 26.4858ZM1036.21 29.3409C1034.64 29.3409 1033.28 28.9929 1032.13 28.2969C1031 27.5938 1030.12 26.6136 1029.5 25.3565C1028.89 24.0923 1028.59 22.6222 1028.59 20.946C1028.59 19.2699 1028.89 17.7926 1029.5 16.5142C1030.12 15.2287 1030.98 14.2273 1032.08 13.5099C1033.19 12.7855 1034.48 12.4233 1035.96 12.4233C1036.81 12.4233 1037.65 12.5653 1038.48 12.8494C1039.31 13.1335 1040.07 13.5952 1040.75 14.2344C1041.43 14.8665 1041.98 15.7045 1042.38 16.7486C1042.79 17.7926 1042.99 19.0781 1042.99 20.6051V21.6705H1030.38V19.4972H1040.43C1040.43 18.5739 1040.25 17.75 1039.88 17.0256C1039.52 16.3011 1039 15.7294 1038.32 15.3104C1037.66 14.8913 1036.87 14.6818 1035.96 14.6818C1034.96 14.6818 1034.09 14.9304 1033.36 15.4276C1032.63 15.9176 1032.08 16.5568 1031.69 17.3452C1031.3 18.1335 1031.1 18.9787 1031.1 19.8807V21.3295C1031.1 22.5653 1031.31 23.6129 1031.74 24.4723C1032.17 25.3246 1032.77 25.9744 1033.54 26.4219C1034.31 26.8622 1035.2 27.0824 1036.21 27.0824C1036.87 27.0824 1037.47 26.9901 1038 26.8054C1038.54 26.6136 1039.01 26.3295 1039.4 25.9531C1039.79 25.5696 1040.09 25.0937 1040.3 24.5256L1042.73 25.2074C1042.48 26.0312 1042.05 26.7557 1041.44 27.3807C1040.84 27.9986 1040.1 28.4815 1039.21 28.8295C1038.32 29.1705 1037.32 29.3409 1036.21 29.3409ZM1048.82 19.1562V29H1046.3V12.6364H1048.73V15.1932H1048.95C1049.33 14.3622 1049.91 13.6946 1050.69 13.1903C1051.47 12.679 1052.48 12.4233 1053.72 12.4233C1054.83 12.4233 1055.8 12.6506 1056.63 13.1051C1057.46 13.5526 1058.1 14.2344 1058.57 15.1506C1059.03 16.0597 1059.26 17.2102 1059.26 18.6023V29H1056.74V18.7727C1056.74 17.4872 1056.41 16.4858 1055.74 15.7685C1055.08 15.044 1054.16 14.6818 1052.99 14.6818C1052.19 14.6818 1051.47 14.8558 1050.84 15.2038C1050.22 15.5518 1049.72 16.0597 1049.36 16.7273C1049 17.3949 1048.82 18.2045 1048.82 19.1562ZM1077.92 29.3409C1076.38 29.3409 1075.06 28.9787 1073.95 28.2543C1072.85 27.5298 1071.99 26.532 1071.4 25.2607C1070.8 23.9893 1070.5 22.5369 1070.5 20.9034C1070.5 19.2415 1070.81 17.7749 1071.42 16.5036C1072.04 15.2251 1072.9 14.2273 1074 13.5099C1075.11 12.7855 1076.4 12.4233 1077.88 12.4233C1079.03 12.4233 1080.06 12.6364 1080.99 13.0625C1081.91 13.4886 1082.67 14.0852 1083.26 14.8523C1083.84 15.6193 1084.21 16.5142 1084.35 17.5369H1081.84C1081.65 16.7912 1081.22 16.1307 1080.56 15.5554C1079.91 14.973 1079.03 14.6818 1077.92 14.6818C1076.94 14.6818 1076.08 14.9375 1075.34 15.4489C1074.61 15.9531 1074.04 16.6669 1073.62 17.5902C1073.22 18.5064 1073.02 19.5824 1073.02 20.8182C1073.02 22.0824 1073.22 23.1832 1073.61 24.1207C1074.02 25.0582 1074.59 25.7862 1075.32 26.3047C1076.06 26.8232 1076.92 27.0824 1077.92 27.0824C1078.57 27.0824 1079.16 26.9688 1079.7 26.7415C1080.23 26.5142 1080.68 26.1875 1081.05 25.7614C1081.42 25.3352 1081.68 24.8239 1081.84 24.2273H1084.35C1084.21 25.1932 1083.86 26.0632 1083.3 26.8374C1082.74 27.6044 1082.01 28.2152 1081.09 28.6697C1080.18 29.1172 1079.13 29.3409 1077.92 29.3409ZM1094.17 29.3409C1092.69 29.3409 1091.39 28.9893 1090.28 28.2862C1089.17 27.5831 1088.3 26.5994 1087.68 25.3352C1087.06 24.071 1086.75 22.5937 1086.75 20.9034C1086.75 19.1989 1087.06 17.7109 1087.68 16.4396C1088.3 15.1683 1089.17 14.1811 1090.28 13.478C1091.39 12.7749 1092.69 12.4233 1094.17 12.4233C1095.64 12.4233 1096.94 12.7749 1098.04 13.478C1099.16 14.1811 1100.03 15.1683 1100.64 16.4396C1101.27 17.7109 1101.58 19.1989 1101.58 20.9034C1101.58 22.5937 1101.27 24.071 1100.64 25.3352C1100.03 26.5994 1099.16 27.5831 1098.04 28.2862C1096.94 28.9893 1095.64 29.3409 1094.17 29.3409ZM1094.17 27.0824C1095.29 27.0824 1096.21 26.7947 1096.94 26.2195C1097.66 25.6442 1098.2 24.8878 1098.54 23.9503C1098.89 23.0128 1099.07 21.9972 1099.07 20.9034C1099.07 19.8097 1098.89 18.7905 1098.54 17.8459C1098.2 16.9013 1097.66 16.1378 1096.94 15.5554C1096.21 14.973 1095.29 14.6818 1094.17 14.6818C1093.04 14.6818 1092.12 14.973 1091.4 15.5554C1090.67 16.1378 1090.14 16.9013 1089.79 17.8459C1089.44 18.7905 1089.27 19.8097 1089.27 20.9034C1089.27 21.9972 1089.44 23.0128 1089.79 23.9503C1090.14 24.8878 1090.67 25.6442 1091.4 26.2195C1092.12 26.7947 1093.04 27.0824 1094.17 27.0824ZM1104.91 29V12.6364H1107.42V29H1104.91ZM1106.19 9.90909C1105.7 9.90909 1105.27 9.74219 1104.92 9.40838C1104.57 9.07457 1104.4 8.6733 1104.4 8.20455C1104.4 7.7358 1104.57 7.33452 1104.92 7.00071C1105.27 6.6669 1105.7 6.5 1106.19 6.5C1106.68 6.5 1107.1 6.6669 1107.44 7.00071C1107.8 7.33452 1107.98 7.7358 1107.98 8.20455C1107.98 8.6733 1107.8 9.07457 1107.44 9.40838C1107.1 9.74219 1106.68 9.90909 1106.19 9.90909ZM1114.03 19.1562V29H1111.52V12.6364H1113.95V15.1932H1114.16C1114.54 14.3622 1115.13 13.6946 1115.91 13.1903C1116.69 12.679 1117.7 12.4233 1118.93 12.4233C1120.04 12.4233 1121.01 12.6506 1121.84 13.1051C1122.67 13.5526 1123.32 14.2344 1123.78 15.1506C1124.24 16.0597 1124.47 17.2102 1124.47 18.6023V29H1121.96V18.7727C1121.96 17.4872 1121.62 16.4858 1120.96 15.7685C1120.29 15.044 1119.37 14.6818 1118.21 14.6818C1117.41 14.6818 1116.69 14.8558 1116.06 15.2038C1115.43 15.5518 1114.94 16.0597 1114.58 16.7273C1114.21 17.3949 1114.03 18.2045 1114.03 19.1562ZM1135.2 29.3409C1133.67 29.3409 1132.35 28.9787 1131.24 28.2543C1130.13 27.5298 1129.28 26.532 1128.68 25.2607C1128.09 23.9893 1127.79 22.5369 1127.79 20.9034C1127.79 19.2415 1128.09 17.7749 1128.71 16.5036C1129.32 15.2251 1130.18 14.2273 1131.28 13.5099C1132.39 12.7855 1133.68 12.4233 1135.16 12.4233C1136.31 12.4233 1137.35 12.6364 1138.27 13.0625C1139.2 13.4886 1139.95 14.0852 1140.54 14.8523C1141.13 15.6193 1141.5 16.5142 1141.64 17.5369H1139.12C1138.93 16.7912 1138.51 16.1307 1137.85 15.5554C1137.19 14.973 1136.31 14.6818 1135.2 14.6818C1134.22 14.6818 1133.36 14.9375 1132.63 15.4489C1131.89 15.9531 1131.32 16.6669 1130.91 17.5902C1130.51 18.5064 1130.3 19.5824 1130.3 20.8182C1130.3 22.0824 1130.5 23.1832 1130.9 24.1207C1131.31 25.0582 1131.87 25.7862 1132.6 26.3047C1133.34 26.8232 1134.21 27.0824 1135.2 27.0824C1135.86 27.0824 1136.45 26.9688 1136.98 26.7415C1137.52 26.5142 1137.97 26.1875 1138.34 25.7614C1138.71 25.3352 1138.97 24.8239 1139.12 24.2273H1141.64C1141.5 25.1932 1141.15 26.0632 1140.58 26.8374C1140.03 27.6044 1139.3 28.2152 1138.38 28.6697C1137.47 29.1172 1136.41 29.3409 1135.2 29.3409ZM1144.8 29V12.6364H1147.32V29H1144.8ZM1146.08 9.90909C1145.59 9.90909 1145.17 9.74219 1144.81 9.40838C1144.47 9.07457 1144.29 8.6733 1144.29 8.20455C1144.29 7.7358 1144.47 7.33452 1144.81 7.00071C1145.17 6.6669 1145.59 6.5 1146.08 6.5C1146.57 6.5 1146.99 6.6669 1147.34 7.00071C1147.69 7.33452 1147.87 7.7358 1147.87 8.20455C1147.87 8.6733 1147.69 9.07457 1147.34 9.40838C1146.99 9.74219 1146.57 9.90909 1146.08 9.90909ZM1157.59 29.3409C1156.23 29.3409 1155.02 28.9964 1153.98 28.3075C1152.94 27.6115 1152.12 26.6314 1151.53 25.3672C1150.94 24.0959 1150.65 22.5938 1150.65 20.8608C1150.65 19.142 1150.94 17.6506 1151.53 16.3864C1152.12 15.1222 1152.94 14.1456 1153.99 13.4567C1155.04 12.7678 1156.26 12.4233 1157.64 12.4233C1158.7 12.4233 1159.54 12.6009 1160.16 12.956C1160.78 13.304 1161.26 13.7017 1161.59 14.1491C1161.92 14.5895 1162.18 14.9517 1162.37 15.2358H1162.58V7.18182H1165.09V29H1162.66V26.4858H1162.37C1162.18 26.7841 1161.92 27.1605 1161.58 27.6151C1161.24 28.0625 1160.75 28.4638 1160.12 28.8189C1159.49 29.1669 1158.64 29.3409 1157.59 29.3409ZM1157.93 27.0824C1158.94 27.0824 1159.79 26.8196 1160.49 26.294C1161.19 25.7614 1161.72 25.0263 1162.08 24.0888C1162.44 23.1442 1162.62 22.054 1162.62 20.8182C1162.62 19.5966 1162.44 18.5277 1162.09 17.6115C1161.73 16.6882 1161.21 15.9709 1160.51 15.4595C1159.82 14.9411 1158.96 14.6818 1157.93 14.6818C1156.87 14.6818 1155.98 14.9553 1155.27 15.5021C1154.57 16.0419 1154.04 16.777 1153.68 17.7074C1153.33 18.6307 1153.16 19.6676 1153.16 20.8182C1153.16 21.983 1153.34 23.0412 1153.69 23.9929C1154.06 24.9375 1154.59 25.6903 1155.29 26.2514C1156 26.8054 1156.88 27.0824 1157.93 27.0824ZM1176.4 29.3409C1174.82 29.3409 1173.46 28.9929 1172.32 28.2969C1171.18 27.5938 1170.3 26.6136 1169.69 25.3565C1169.07 24.0923 1168.77 22.6222 1168.77 20.946C1168.77 19.2699 1169.07 17.7926 1169.69 16.5142C1170.3 15.2287 1171.16 14.2273 1172.26 13.5099C1173.37 12.7855 1174.66 12.4233 1176.14 12.4233C1176.99 12.4233 1177.84 12.5653 1178.67 12.8494C1179.5 13.1335 1180.25 13.5952 1180.94 14.2344C1181.62 14.8665 1182.16 15.7045 1182.57 16.7486C1182.97 17.7926 1183.17 19.0781 1183.17 20.6051V21.6705H1170.56V19.4972H1180.62C1180.62 18.5739 1180.43 17.75 1180.06 17.0256C1179.7 16.3011 1179.18 15.7294 1178.51 15.3104C1177.84 14.8913 1177.05 14.6818 1176.14 14.6818C1175.14 14.6818 1174.27 14.9304 1173.54 15.4276C1172.82 15.9176 1172.26 16.5568 1171.87 17.3452C1171.48 18.1335 1171.28 18.9787 1171.28 19.8807V21.3295C1171.28 22.5653 1171.5 23.6129 1171.92 24.4723C1172.36 25.3246 1172.96 25.9744 1173.72 26.4219C1174.49 26.8622 1175.38 27.0824 1176.4 27.0824C1177.06 27.0824 1177.65 26.9901 1178.19 26.8054C1178.73 26.6136 1179.19 26.3295 1179.58 25.9531C1179.97 25.5696 1180.27 25.0937 1180.49 24.5256L1182.92 25.2074C1182.66 26.0312 1182.23 26.7557 1181.63 27.3807C1181.02 27.9986 1180.28 28.4815 1179.39 28.8295C1178.5 29.1705 1177.5 29.3409 1176.4 29.3409ZM875.949 65.3409C874.415 65.3409 873.094 64.9787 871.986 64.2543C870.878 63.5298 870.026 62.532 869.429 61.2607C868.832 59.9893 868.534 58.5369 868.534 56.9034C868.534 55.2415 868.839 53.7749 869.45 52.5036C870.068 51.2251 870.928 50.2273 872.028 49.5099C873.136 48.7855 874.429 48.4233 875.906 48.4233C877.057 48.4233 878.094 48.6364 879.017 49.0625C879.94 49.4886 880.697 50.0852 881.286 50.8523C881.876 51.6193 882.241 52.5142 882.384 53.5369H879.869C879.678 52.7912 879.251 52.1307 878.591 51.5554C877.938 50.973 877.057 50.6818 875.949 50.6818C874.969 50.6818 874.109 50.9375 873.371 51.4489C872.639 51.9531 872.067 52.6669 871.656 53.5902C871.251 54.5064 871.048 55.5824 871.048 56.8182C871.048 58.0824 871.247 59.1832 871.645 60.1207C872.05 61.0582 872.618 61.7862 873.349 62.3047C874.088 62.8232 874.955 63.0824 875.949 63.0824C876.602 63.0824 877.195 62.9688 877.728 62.7415C878.261 62.5142 878.712 62.1875 879.081 61.7614C879.45 61.3352 879.713 60.8239 879.869 60.2273H882.384C882.241 61.1932 881.89 62.0632 881.329 62.8374C880.775 63.6044 880.04 64.2152 879.124 64.6697C878.214 65.1172 877.156 65.3409 875.949 65.3409ZM892.197 65.3409C890.719 65.3409 889.423 64.9893 888.308 64.2862C887.2 63.5831 886.334 62.5994 885.709 61.3352C885.091 60.071 884.782 58.5937 884.782 56.9034C884.782 55.1989 885.091 53.7109 885.709 52.4396C886.334 51.1683 887.2 50.1811 888.308 49.478C889.423 48.7749 890.719 48.4233 892.197 48.4233C893.674 48.4233 894.967 48.7749 896.075 49.478C897.19 50.1811 898.056 51.1683 898.674 52.4396C899.299 53.7109 899.611 55.1989 899.611 56.9034C899.611 58.5937 899.299 60.071 898.674 61.3352C898.056 62.5994 897.19 63.5831 896.075 64.2862C894.967 64.9893 893.674 65.3409 892.197 65.3409ZM892.197 63.0824C893.319 63.0824 894.242 62.7947 894.967 62.2195C895.691 61.6442 896.227 60.8878 896.575 59.9503C896.923 59.0128 897.097 57.9972 897.097 56.9034C897.097 55.8097 896.923 54.7905 896.575 53.8459C896.227 52.9013 895.691 52.1378 894.967 51.5554C894.242 50.973 893.319 50.6818 892.197 50.6818C891.075 50.6818 890.151 50.973 889.427 51.5554C888.702 52.1378 888.166 52.9013 887.818 53.8459C887.47 54.7905 887.296 55.8097 887.296 56.9034C887.296 57.9972 887.47 59.0128 887.818 59.9503C888.166 60.8878 888.702 61.6442 889.427 62.2195C890.151 62.7947 891.075 63.0824 892.197 63.0824ZM905.454 55.1562V65H902.939V48.6364H905.368V51.1932H905.581C905.965 50.3622 906.547 49.6946 907.329 49.1903C908.11 48.679 909.118 48.4233 910.354 48.4233C911.462 48.4233 912.432 48.6506 913.262 49.1051C914.093 49.5526 914.74 50.2344 915.201 51.1506C915.663 52.0597 915.894 53.2102 915.894 54.6023V65H913.38V54.7727C913.38 53.4872 913.046 52.4858 912.378 51.7685C911.711 51.044 910.794 50.6818 909.63 50.6818C908.827 50.6818 908.11 50.8558 907.478 51.2038C906.853 51.5518 906.359 52.0597 905.997 52.7273C905.635 53.3949 905.454 54.2045 905.454 55.1562ZM927.906 71.1364V48.6364H930.335V51.2358H930.633C930.818 50.9517 931.073 50.5895 931.4 50.1491C931.734 49.7017 932.21 49.304 932.828 48.956C933.453 48.6009 934.298 48.4233 935.363 48.4233C936.741 48.4233 937.955 48.7678 939.007 49.4567C940.058 50.1456 940.878 51.1222 941.467 52.3864C942.057 53.6506 942.352 55.142 942.352 56.8608C942.352 58.5938 942.057 60.0959 941.467 61.3672C940.878 62.6314 940.061 63.6115 939.017 64.3075C937.973 64.9964 936.769 65.3409 935.406 65.3409C934.355 65.3409 933.513 65.1669 932.881 64.8189C932.249 64.4638 931.762 64.0625 931.421 63.6151C931.08 63.1605 930.818 62.7841 930.633 62.4858H930.42V71.1364H927.906ZM930.377 56.8182C930.377 58.054 930.558 59.1442 930.921 60.0888C931.283 61.0263 931.812 61.7614 932.508 62.294C933.204 62.8196 934.056 63.0824 935.065 63.0824C936.116 63.0824 936.993 62.8054 937.696 62.2514C938.406 61.6903 938.939 60.9375 939.294 59.9929C939.656 59.0412 939.837 57.983 939.837 56.8182C939.837 55.6676 939.66 54.6307 939.305 53.7074C938.957 52.777 938.428 52.0419 937.717 51.5021C937.014 50.9553 936.13 50.6818 935.065 50.6818C934.042 50.6818 933.183 50.9411 932.487 51.4595C931.791 51.9709 931.265 52.6882 930.91 53.6115C930.555 54.5277 930.377 55.5966 930.377 56.8182ZM950.492 65.3835C949.455 65.3835 948.514 65.1882 947.669 64.7976C946.824 64.3999 946.153 63.8281 945.656 63.0824C945.158 62.3295 944.91 61.4205 944.91 60.3551C944.91 59.4176 945.095 58.6577 945.464 58.0753C945.833 57.4858 946.327 57.0241 946.945 56.6903C947.563 56.3565 948.244 56.108 948.99 55.9446C949.743 55.7741 950.499 55.6392 951.259 55.5398C952.254 55.4119 953.06 55.3161 953.678 55.2521C954.303 55.1811 954.757 55.0639 955.041 54.9006C955.332 54.7372 955.478 54.4531 955.478 54.0483V53.9631C955.478 52.9119 955.19 52.0952 954.615 51.5128C954.047 50.9304 953.184 50.6392 952.026 50.6392C950.826 50.6392 949.885 50.902 949.203 51.4276C948.521 51.9531 948.042 52.5142 947.765 53.1108L945.379 52.2585C945.805 51.2642 946.373 50.4901 947.083 49.9361C947.8 49.375 948.582 48.9844 949.427 48.7642C950.279 48.5369 951.117 48.4233 951.941 48.4233C952.467 48.4233 953.07 48.4872 953.752 48.6151C954.441 48.7358 955.105 48.9879 955.744 49.3714C956.391 49.755 956.927 50.3338 957.353 51.108C957.779 51.8821 957.992 52.919 957.992 54.2188V65H955.478V62.7841H955.35C955.18 63.1392 954.896 63.5192 954.498 63.924C954.1 64.3288 953.571 64.6733 952.911 64.9574C952.25 65.2415 951.444 65.3835 950.492 65.3835ZM950.876 63.125C951.87 63.125 952.708 62.9297 953.39 62.5391C954.079 62.1484 954.597 61.6442 954.945 61.0263C955.3 60.4084 955.478 59.7585 955.478 59.0767V56.7756C955.372 56.9034 955.137 57.0206 954.775 57.1271C954.42 57.2266 954.008 57.3153 953.539 57.3935C953.077 57.4645 952.626 57.5284 952.186 57.5852C951.753 57.6349 951.401 57.6776 951.131 57.7131C950.478 57.7983 949.867 57.9368 949.299 58.1286C948.738 58.3132 948.283 58.5937 947.935 58.9702C947.595 59.3395 947.424 59.8437 947.424 60.483C947.424 61.3565 947.747 62.017 948.394 62.4645C949.047 62.9048 949.874 63.125 950.876 63.125ZM962.071 65V48.6364H964.585V65H962.071ZM962.199 46.4205L964.798 41.4773H967.739L964.415 46.4205H962.199ZM980.271 52.3011L978.013 52.9403C977.871 52.5639 977.661 52.1982 977.384 51.843C977.114 51.4808 976.745 51.1825 976.276 50.9482C975.807 50.7138 975.207 50.5966 974.476 50.5966C973.474 50.5966 972.64 50.8274 971.972 51.2891C971.312 51.7436 970.981 52.3224 970.981 53.0256C970.981 53.6506 971.209 54.1442 971.663 54.5064C972.118 54.8686 972.828 55.1705 973.794 55.4119L976.223 56.0085C977.686 56.3636 978.776 56.907 979.494 57.6385C980.211 58.3629 980.57 59.2969 980.57 60.4403C980.57 61.3778 980.3 62.2159 979.76 62.9545C979.227 63.6932 978.481 64.2756 977.523 64.7017C976.564 65.1278 975.449 65.3409 974.178 65.3409C972.508 65.3409 971.127 64.9787 970.033 64.2543C968.94 63.5298 968.247 62.4716 967.956 61.0795L970.342 60.483C970.57 61.3636 970.999 62.0241 971.631 62.4645C972.271 62.9048 973.105 63.125 974.135 63.125C975.307 63.125 976.237 62.8764 976.926 62.3793C977.622 61.875 977.97 61.2713 977.97 60.5682C977.97 60 977.771 59.5241 977.374 59.1406C976.976 58.75 976.365 58.4588 975.541 58.267L972.814 57.6278C971.315 57.2727 970.214 56.7223 969.511 55.9766C968.815 55.2237 968.467 54.2827 968.467 53.1534C968.467 52.2301 968.727 51.4134 969.245 50.7031C969.771 49.9929 970.484 49.4354 971.386 49.0305C972.295 48.6257 973.325 48.4233 974.476 48.4233C976.095 48.4233 977.366 48.7784 978.29 49.4886C979.22 50.1989 979.881 51.1364 980.271 52.3011ZM997.951 65.3409C996.587 65.3409 995.383 64.9964 994.339 64.3075C993.295 63.6115 992.478 62.6314 991.889 61.3672C991.299 60.0959 991.005 58.5938 991.005 56.8608C991.005 55.142 991.299 53.6506 991.889 52.3864C992.478 51.1222 993.299 50.1456 994.35 49.4567C995.401 48.7678 996.615 48.4233 997.993 48.4233C999.059 48.4233 999.9 48.6009 1000.52 48.956C1001.14 49.304 1001.62 49.7017 1001.95 50.1491C1002.28 50.5895 1002.54 50.9517 1002.72 51.2358H1002.94V43.1818H1005.45V65H1003.02V62.4858H1002.72C1002.54 62.7841 1002.28 63.1605 1001.94 63.6151C1001.59 64.0625 1001.11 64.4638 1000.48 64.8189C999.843 65.1669 999.002 65.3409 997.951 65.3409ZM998.292 63.0824C999.3 63.0824 1000.15 62.8196 1000.85 62.294C1001.54 61.7614 1002.07 61.0263 1002.44 60.0888C1002.8 59.1442 1002.98 58.054 1002.98 56.8182C1002.98 55.5966 1002.8 54.5277 1002.45 53.6115C1002.09 52.6882 1001.57 51.9709 1000.87 51.4595C1000.17 50.9411 999.314 50.6818 998.292 50.6818C997.226 50.6818 996.338 50.9553 995.628 51.5021C994.925 52.0419 994.396 52.777 994.041 53.7074C993.693 54.6307 993.519 55.6676 993.519 56.8182C993.519 57.983 993.696 59.0412 994.052 59.9929C994.414 60.9375 994.946 61.6903 995.65 62.2514C996.36 62.8054 997.24 63.0824 998.292 63.0824ZM1016.76 65.3409C1015.18 65.3409 1013.82 64.9929 1012.68 64.2969C1011.54 63.5938 1010.66 62.6136 1010.04 61.3565C1009.43 60.0923 1009.13 58.6222 1009.13 56.946C1009.13 55.2699 1009.43 53.7926 1010.04 52.5142C1010.66 51.2287 1011.52 50.2273 1012.62 49.5099C1013.73 48.7855 1015.02 48.4233 1016.5 48.4233C1017.35 48.4233 1018.19 48.5653 1019.02 48.8494C1019.86 49.1335 1020.61 49.5952 1021.29 50.2344C1021.98 50.8665 1022.52 51.7045 1022.92 52.7486C1023.33 53.7926 1023.53 55.0781 1023.53 56.6051V57.6705H1010.92V55.4972H1020.97C1020.97 54.5739 1020.79 53.75 1020.42 53.0256C1020.06 52.3011 1019.54 51.7294 1018.86 51.3104C1018.2 50.8913 1017.41 50.6818 1016.5 50.6818C1015.5 50.6818 1014.63 50.9304 1013.9 51.4276C1013.18 51.9176 1012.62 52.5568 1012.23 53.3452C1011.84 54.1335 1011.64 54.9787 1011.64 55.8807V57.3295C1011.64 58.5653 1011.85 59.6129 1012.28 60.4723C1012.71 61.3246 1013.31 61.9744 1014.08 62.4219C1014.85 62.8622 1015.74 63.0824 1016.76 63.0824C1017.42 63.0824 1018.01 62.9901 1018.55 62.8054C1019.08 62.6136 1019.55 62.3295 1019.94 61.9531C1020.33 61.5696 1020.63 61.0937 1020.85 60.5256L1023.28 61.2074C1023.02 62.0312 1022.59 62.7557 1021.99 63.3807C1021.38 63.9986 1020.64 64.4815 1019.75 64.8295C1018.86 65.1705 1017.86 65.3409 1016.76 65.3409ZM1039.59 65.3835C1038.55 65.3835 1037.61 65.1882 1036.77 64.7976C1035.92 64.3999 1035.25 63.8281 1034.75 63.0824C1034.25 62.3295 1034.01 61.4205 1034.01 60.3551C1034.01 59.4176 1034.19 58.6577 1034.56 58.0753C1034.93 57.4858 1035.42 57.0241 1036.04 56.6903C1036.66 56.3565 1037.34 56.108 1038.09 55.9446C1038.84 55.7741 1039.6 55.6392 1040.36 55.5398C1041.35 55.4119 1042.16 55.3161 1042.77 55.2521C1043.4 55.1811 1043.85 55.0639 1044.14 54.9006C1044.43 54.7372 1044.57 54.4531 1044.57 54.0483V53.9631C1044.57 52.9119 1044.29 52.0952 1043.71 51.5128C1043.14 50.9304 1042.28 50.6392 1041.12 50.6392C1039.92 50.6392 1038.98 50.902 1038.3 51.4276C1037.62 51.9531 1037.14 52.5142 1036.86 53.1108L1034.47 52.2585C1034.9 51.2642 1035.47 50.4901 1036.18 49.9361C1036.9 49.375 1037.68 48.9844 1038.52 48.7642C1039.38 48.5369 1040.21 48.4233 1041.04 48.4233C1041.56 48.4233 1042.17 48.4872 1042.85 48.6151C1043.54 48.7358 1044.2 48.9879 1044.84 49.3714C1045.49 49.755 1046.02 50.3338 1046.45 51.108C1046.88 51.8821 1047.09 52.919 1047.09 54.2188V65H1044.57V62.7841H1044.45C1044.28 63.1392 1043.99 63.5192 1043.59 63.924C1043.2 64.3288 1042.67 64.6733 1042.01 64.9574C1041.35 65.2415 1040.54 65.3835 1039.59 65.3835ZM1039.97 63.125C1040.97 63.125 1041.8 62.9297 1042.49 62.5391C1043.17 62.1484 1043.69 61.6442 1044.04 61.0263C1044.4 60.4084 1044.57 59.7585 1044.57 59.0767V56.7756C1044.47 56.9034 1044.23 57.0206 1043.87 57.1271C1043.52 57.2266 1043.1 57.3153 1042.64 57.3935C1042.17 57.4645 1041.72 57.5284 1041.28 57.5852C1040.85 57.6349 1040.5 57.6776 1040.23 57.7131C1039.57 57.7983 1038.96 57.9368 1038.4 58.1286C1037.83 58.3132 1037.38 58.5937 1037.03 58.9702C1036.69 59.3395 1036.52 59.8437 1036.52 60.483C1036.52 61.3565 1036.84 62.017 1037.49 62.4645C1038.14 62.9048 1038.97 63.125 1039.97 63.125ZM1061.48 58.3097V48.6364H1063.99V65H1061.48V62.2301H1061.31C1060.93 63.0611 1060.33 63.7678 1059.52 64.3501C1058.71 64.9254 1057.69 65.2131 1056.45 65.2131C1055.43 65.2131 1054.52 64.9893 1053.72 64.5419C1052.93 64.0874 1052.3 63.4055 1051.85 62.4964C1051.39 61.5803 1051.17 60.4261 1051.17 59.0341V48.6364H1053.68V58.8636C1053.68 60.0568 1054.02 61.0085 1054.68 61.7188C1055.36 62.429 1056.22 62.7841 1057.26 62.7841C1057.89 62.7841 1058.52 62.6243 1059.17 62.3047C1059.82 61.9851 1060.37 61.495 1060.81 60.8345C1061.26 60.174 1061.48 59.3324 1061.48 58.3097ZM1074.27 65.3409C1072.9 65.3409 1071.7 64.9964 1070.66 64.3075C1069.61 63.6115 1068.8 62.6314 1068.21 61.3672C1067.62 60.0959 1067.32 58.5938 1067.32 56.8608C1067.32 55.142 1067.62 53.6506 1068.21 52.3864C1068.8 51.1222 1069.62 50.1456 1070.67 49.4567C1071.72 48.7678 1072.93 48.4233 1074.31 48.4233C1075.38 48.4233 1076.22 48.6009 1076.84 48.956C1077.46 49.304 1077.94 49.7017 1078.26 50.1491C1078.6 50.5895 1078.86 50.9517 1079.04 51.2358H1079.25V43.1818H1081.77V65H1079.34V62.4858H1079.04C1078.86 62.7841 1078.59 63.1605 1078.25 63.6151C1077.91 64.0625 1077.42 64.4638 1076.79 64.8189C1076.16 65.1669 1075.32 65.3409 1074.27 65.3409ZM1074.61 63.0824C1075.62 63.0824 1076.47 62.8196 1077.17 62.294C1077.86 61.7614 1078.39 61.0263 1078.75 60.0888C1079.12 59.1442 1079.3 58.054 1079.3 56.8182C1079.3 55.5966 1079.12 54.5277 1078.76 53.6115C1078.41 52.6882 1077.88 51.9709 1077.19 51.4595C1076.49 50.9411 1075.63 50.6818 1074.61 50.6818C1073.54 50.6818 1072.66 50.9553 1071.95 51.5021C1071.24 52.0419 1070.71 52.777 1070.36 53.7074C1070.01 54.6307 1069.84 55.6676 1069.84 56.8182C1069.84 57.983 1070.01 59.0412 1070.37 59.9929C1070.73 60.9375 1071.26 61.6903 1071.97 62.2514C1072.68 62.8054 1073.56 63.0824 1074.61 63.0824ZM1086.21 65V48.6364H1088.73V65H1086.21ZM1087.49 45.9091C1087 45.9091 1086.58 45.7422 1086.22 45.4084C1085.87 45.0746 1085.7 44.6733 1085.7 44.2045C1085.7 43.7358 1085.87 43.3345 1086.22 43.0007C1086.58 42.6669 1087 42.5 1087.49 42.5C1087.98 42.5 1088.4 42.6669 1088.75 43.0007C1089.1 43.3345 1089.28 43.7358 1089.28 44.2045C1089.28 44.6733 1089.1 45.0746 1088.75 45.4084C1088.4 45.7422 1087.98 45.9091 1087.49 45.9091ZM1099.68 65.3409C1098.1 65.3409 1096.74 64.9929 1095.6 64.2969C1094.46 63.5938 1093.59 62.6136 1092.97 61.3565C1092.36 60.0923 1092.05 58.6222 1092.05 56.946C1092.05 55.2699 1092.36 53.7926 1092.97 52.5142C1093.59 51.2287 1094.45 50.2273 1095.55 49.5099C1096.66 48.7855 1097.95 48.4233 1099.43 48.4233C1100.28 48.4233 1101.12 48.5653 1101.95 48.8494C1102.78 49.1335 1103.54 49.5952 1104.22 50.2344C1104.9 50.8665 1105.45 51.7045 1105.85 52.7486C1106.25 53.7926 1106.46 55.0781 1106.46 56.6051V57.6705H1093.84V55.4972H1103.9C1103.9 54.5739 1103.72 53.75 1103.35 53.0256C1102.98 52.3011 1102.47 51.7294 1101.79 51.3104C1101.12 50.8913 1100.34 50.6818 1099.43 50.6818C1098.42 50.6818 1097.56 50.9304 1096.83 51.4276C1096.1 51.9176 1095.54 52.5568 1095.15 53.3452C1094.76 54.1335 1094.57 54.9787 1094.57 55.8807V57.3295C1094.57 58.5653 1094.78 59.6129 1095.21 60.4723C1095.64 61.3246 1096.24 61.9744 1097.01 62.4219C1097.77 62.8622 1098.67 63.0824 1099.68 63.0824C1100.34 63.0824 1100.94 62.9901 1101.47 62.8054C1102.01 62.6136 1102.48 62.3295 1102.87 61.9531C1103.26 61.5696 1103.56 61.0937 1103.77 60.5256L1106.2 61.2074C1105.95 62.0312 1105.52 62.7557 1104.91 63.3807C1104.31 63.9986 1103.56 64.4815 1102.68 64.8295C1101.79 65.1705 1100.79 65.3409 1099.68 65.3409ZM1112.29 55.1562V65H1109.77V48.6364H1112.2V51.1932H1112.41C1112.8 50.3622 1113.38 49.6946 1114.16 49.1903C1114.94 48.679 1115.95 48.4233 1117.19 48.4233C1118.29 48.4233 1119.26 48.6506 1120.09 49.1051C1120.93 49.5526 1121.57 50.2344 1122.03 51.1506C1122.5 52.0597 1122.73 53.2102 1122.73 54.6023V65H1120.21V54.7727C1120.21 53.4872 1119.88 52.4858 1119.21 51.7685C1118.54 51.044 1117.63 50.6818 1116.46 50.6818C1115.66 50.6818 1114.94 50.8558 1114.31 51.2038C1113.69 51.5518 1113.19 52.0597 1112.83 52.7273C1112.47 53.3949 1112.29 54.2045 1112.29 55.1562ZM1133.46 65.3409C1131.92 65.3409 1130.6 64.9787 1129.5 64.2543C1128.39 63.5298 1127.54 62.532 1126.94 61.2607C1126.34 59.9893 1126.04 58.5369 1126.04 56.9034C1126.04 55.2415 1126.35 53.7749 1126.96 52.5036C1127.58 51.2251 1128.44 50.2273 1129.54 49.5099C1130.65 48.7855 1131.94 48.4233 1133.42 48.4233C1134.57 48.4233 1135.6 48.6364 1136.53 49.0625C1137.45 49.4886 1138.21 50.0852 1138.8 50.8523C1139.39 51.6193 1139.75 52.5142 1139.89 53.5369H1137.38C1137.19 52.7912 1136.76 52.1307 1136.1 51.5554C1135.45 50.973 1134.57 50.6818 1133.46 50.6818C1132.48 50.6818 1131.62 50.9375 1130.88 51.4489C1130.15 51.9531 1129.58 52.6669 1129.17 53.5902C1128.76 54.5064 1128.56 55.5824 1128.56 56.8182C1128.56 58.0824 1128.76 59.1832 1129.15 60.1207C1129.56 61.0582 1130.13 61.7862 1130.86 62.3047C1131.6 62.8232 1132.46 63.0824 1133.46 63.0824C1134.11 63.0824 1134.7 62.9688 1135.24 62.7415C1135.77 62.5142 1136.22 62.1875 1136.59 61.7614C1136.96 61.3352 1137.22 60.8239 1137.38 60.2273H1139.89C1139.75 61.1932 1139.4 62.0632 1138.84 62.8374C1138.28 63.6044 1137.55 64.2152 1136.63 64.6697C1135.72 65.1172 1134.67 65.3409 1133.46 65.3409ZM1143.06 65V48.6364H1145.57V65H1143.06ZM1144.34 45.9091C1143.85 45.9091 1143.42 45.7422 1143.07 45.4084C1142.72 45.0746 1142.55 44.6733 1142.55 44.2045C1142.55 43.7358 1142.72 43.3345 1143.07 43.0007C1143.42 42.6669 1143.85 42.5 1144.34 42.5C1144.83 42.5 1145.25 42.6669 1145.59 43.0007C1145.95 43.3345 1146.13 43.7358 1146.13 44.2045C1146.13 44.6733 1145.95 45.0746 1145.59 45.4084C1145.25 45.7422 1144.83 45.9091 1144.34 45.9091ZM1154.48 65.3835C1153.45 65.3835 1152.5 65.1882 1151.66 64.7976C1150.81 64.3999 1150.14 63.8281 1149.65 63.0824C1149.15 62.3295 1148.9 61.4205 1148.9 60.3551C1148.9 59.4176 1149.09 58.6577 1149.45 58.0753C1149.82 57.4858 1150.32 57.0241 1150.94 56.6903C1151.55 56.3565 1152.24 56.108 1152.98 55.9446C1153.73 55.7741 1154.49 55.6392 1155.25 55.5398C1156.24 55.4119 1157.05 55.3161 1157.67 55.2521C1158.29 55.1811 1158.75 55.0639 1159.03 54.9006C1159.32 54.7372 1159.47 54.4531 1159.47 54.0483V53.9631C1159.47 52.9119 1159.18 52.0952 1158.61 51.5128C1158.04 50.9304 1157.17 50.6392 1156.02 50.6392C1154.82 50.6392 1153.88 50.902 1153.19 51.4276C1152.51 51.9531 1152.03 52.5142 1151.76 53.1108L1149.37 52.2585C1149.8 51.2642 1150.36 50.4901 1151.07 49.9361C1151.79 49.375 1152.57 48.9844 1153.42 48.7642C1154.27 48.5369 1155.11 48.4233 1155.93 48.4233C1156.46 48.4233 1157.06 48.4872 1157.74 48.6151C1158.43 48.7358 1159.1 48.9879 1159.74 49.3714C1160.38 49.755 1160.92 50.3338 1161.34 51.108C1161.77 51.8821 1161.98 52.919 1161.98 54.2188V65H1159.47V62.7841H1159.34C1159.17 63.1392 1158.89 63.5192 1158.49 63.924C1158.09 64.3288 1157.56 64.6733 1156.9 64.9574C1156.24 65.2415 1155.43 65.3835 1154.48 65.3835ZM1154.87 63.125C1155.86 63.125 1156.7 62.9297 1157.38 62.5391C1158.07 62.1484 1158.59 61.6442 1158.94 61.0263C1159.29 60.4084 1159.47 59.7585 1159.47 59.0767V56.7756C1159.36 56.9034 1159.13 57.0206 1158.77 57.1271C1158.41 57.2266 1158 57.3153 1157.53 57.3935C1157.07 57.4645 1156.62 57.5284 1156.18 57.5852C1155.74 57.6349 1155.39 57.6776 1155.12 57.7131C1154.47 57.7983 1153.86 57.9368 1153.29 58.1286C1152.73 58.3132 1152.27 58.5937 1151.93 58.9702C1151.59 59.3395 1151.41 59.8437 1151.41 60.483C1151.41 61.3565 1151.74 62.017 1152.38 62.4645C1153.04 62.9048 1153.86 63.125 1154.87 63.125Z" fill="black"/>
<path d="M348 25.3721L430.006 25.6281" stroke="#8B8B8B" stroke-width="10" stroke-linecap="round"/>
<path d="M813 54.0241L790.519 15.0036L835.552 15.0447L813 54.0241Z" fill="#8B8B8B"/>
</svg>
