<?xml version="1.0" encoding="utf-8"?>
<!-- Generator: Adobe Illustrator 26.5.0, SVG Export Plug-In . SVG Version: 6.00 Build 0)  -->
<svg version="1.1" id="Layer_1" xmlns="http://www.w3.org/2000/svg" xmlns:xlink="http://www.w3.org/1999/xlink" x="0px" y="0px"
	 viewBox="0 0 473 642" style="enable-background:new 0 0 473 642;" xml:space="preserve">
<style type="text/css">
	.st0{fill:#FFFFFF;}
</style>
<path class="st0" d="M150.3,574.9c-9.4,0-17.1-7.6-17.1-17.1c0,27.3-22.2,49.5-49.5,49.5c-27.3,0-49.5-22.2-49.5-49.5
	c0-27.3,22.2-49.5,49.5-49.5c27.3,0,49.5,22.2,49.5,49.5v-67.3c-13.9-10.3-31-16.4-49.5-16.4C37.5,474.1,0,511.7,0,557.8
	s37.5,83.7,83.7,83.7c46.1,0,83.7-37.5,83.7-83.7C167.3,567.2,159.7,574.9,150.3,574.9z"/>
<path class="st0" d="M143.6,198.9L143.6,198.9C143.6,198.9,143.6,198.9,143.6,198.9z"/>
<path class="st0" d="M133.2,490.5c20.7,15.2,34.1,39.7,34.1,67.3V343.5L133.2,358V490.5z"/>
<path class="st0" d="M133.2,490.5v67.3c0,9.4,7.6,17.1,17.1,17.1c9.4,0,17.1-7.6,17.1-17.1C167.3,530.2,153.8,505.8,133.2,490.5z"/>
<path class="st0" d="M391.5,472.4c-9.4,0-17.1-7.6-17.1-17.1c0,27.3-22.2,49.5-49.5,49.5c-27.3,0-49.5-22.2-49.5-49.5
	c0-27.3,22.2-49.5,49.5-49.5c27.3,0,49.5,22.2,49.5,49.5v-67.3c-13.9-10.3-31-16.4-49.5-16.4c-46.1,0-83.7,37.5-83.7,83.7
	c0,46.1,37.5,83.7,83.7,83.7c46.1,0,83.7-37.5,83.7-83.7C408.5,464.8,400.9,472.4,391.5,472.4z"/>
<path class="st0" d="M374.4,388.1c20.7,15.2,34.1,39.7,34.1,67.3V241.1l-34.1,14.5V388.1z"/>
<path class="st0" d="M384.8,96.5L384.8,96.5C384.8,96.5,384.8,96.5,384.8,96.5z"/>
<path class="st0" d="M374.4,388.1v67.3c0,9.4,7.6,17.1,17.1,17.1c9.4,0,17.1-7.6,17.1-17.1C408.5,427.8,395,403.3,374.4,388.1z"/>
<path class="st0" d="M143.6,198.9l-10.4,4.4v11.3C133.2,207.6,137.5,201.5,143.6,198.9z"/>
<path class="st0" d="M167.3,306.4v37.1l207.1-87.9v-37.1L167.3,306.4z"/>
<path class="st0" d="M384.8,96.5c2-0.9,4.3-1.3,6.6-1.3c9.4,0,17.1,7.6,17.1,17.1V86.4L384.8,96.5z"/>
<path class="st0" d="M167.3,214.6v11.3l207-87.9v-25.8c0-7.1,4.3-13.1,10.4-15.7L143.6,198.9c2-0.9,4.3-1.3,6.6-1.3
	C159.7,197.6,167.3,205.2,167.3,214.6L167.3,214.6z"/>
<path class="st0" d="M167.3,225.9v-11.3c0-9.4-7.6-17.1-17.1-17.1c-2.3,0-4.6,0.5-6.6,1.3l-0.1,0c-6.1,2.6-10.4,8.7-10.4,15.7V358
	l34.1-14.5v-37.1L167.3,225.9L167.3,225.9z"/>
<path class="st0" d="M391.5,95.2c-2.4,0-4.6,0.5-6.6,1.3l0,0c-6.1,2.6-10.4,8.7-10.4,15.7v143.4l34.1-14.5V112.2
	C408.5,102.8,400.9,95.2,391.5,95.2z"/>
</svg>
