<svg width="564" height="646" viewBox="0 0 564 646" fill="none" xmlns="http://www.w3.org/2000/svg">
<path d="M525.067 462.936L379.881 241.429L378.219 64.7092V63.8811C378.219 62.2196 380.709 51.4384 397.302 29.8651C401.448 24.0577 402.281 16.5891 398.963 9.95306C395.645 3.31706 389.01 0 382.37 0H181.597C174.128 0 168.321 4.14586 165.003 9.95306C161.685 16.5885 162.514 24.0571 166.665 29.8651C183.258 51.4384 184.915 62.2197 185.747 63.8811V64.7092L184.086 241.429L38.8992 462.936C-0.0901057 523.499 -9.21545 571.619 9.03521 605.629C24.7952 634.665 57.9832 645.452 76.2326 645.452H486.899C505.15 645.452 538.337 634.665 554.097 605.629C573.179 571.613 564.056 523.493 525.067 462.936ZM218.107 257.189C219.769 253.871 221.425 250.554 221.425 247.236L223.086 66.3828C223.915 60.5755 222.258 51.4508 215.618 37.3468H348.358C341.722 51.4508 340.061 60.5761 340.889 66.3828V92.9294H300.238C290.285 92.9294 281.988 101.226 281.988 111.18C281.988 121.133 290.284 129.431 300.238 129.431H340.889L341.717 193.311H300.238C290.285 193.311 281.988 201.608 281.988 211.561C281.988 221.515 290.285 229.812 300.238 229.812H341.717V245.572C341.717 248.89 342.545 253.041 345.035 255.525L374.071 299.495H335.909C325.956 299.495 317.659 307.791 317.659 317.745C317.659 327.699 325.956 335.996 335.909 335.996H398.133L418.045 365.86L145.925 365.881L218.107 257.189ZM376.561 400.709C376.561 390.756 384.858 382.459 394.811 382.459H427.166L452.057 419.792H394.811C384.858 418.964 376.561 410.667 376.561 400.709ZM448.738 501.095C438.785 501.095 430.487 492.798 430.487 482.844C430.487 472.89 438.784 464.593 448.738 464.593L481.093 464.588L493.535 483.671C497.681 489.478 501.004 496.113 504.322 501.092L448.738 501.095Z" fill="white"/>
</svg>
