<svg width="473" height="642" viewBox="0 0 473 642" fill="none" xmlns="http://www.w3.org/2000/svg">
<path d="M173.672 564.484C162.776 564.484 153.937 555.646 153.937 544.75C153.937 576.312 128.265 601.974 96.7027 601.974C65.1347 601.974 39.4573 576.302 39.4573 544.75C39.4573 513.171 65.1293 487.51 96.7027 487.51C128.255 487.51 153.937 513.182 153.937 544.75V467C137.891 455.151 118.135 448.058 96.7027 448.058C43.3907 448.058 0 491.448 0 544.76C0 598.072 43.3907 641.448 96.7027 641.448C150.015 641.448 193.391 598.074 193.391 544.76C193.391 555.651 184.557 564.484 173.672 564.484Z" fill="white"/>
<path d="M165.952 130.018L166.02 129.986C165.999 130.002 165.973 130.007 165.952 130.018Z" fill="white"/>
<path d="M153.939 467.004C177.808 484.624 193.392 512.879 193.392 544.764V297.138L153.939 313.892V467.004Z" fill="white"/>
<path d="M153.939 467.004V544.764C153.939 555.66 162.777 564.499 173.673 564.499C184.559 564.499 193.403 555.66 193.403 544.764C193.392 512.874 177.809 484.624 153.939 467.004Z" fill="white"/>
<path d="M452.419 446.111C441.523 446.111 432.684 437.272 432.684 426.376C432.684 457.939 407.012 483.616 375.449 483.616C343.881 483.616 318.209 457.939 318.209 426.376C318.209 394.814 343.881 369.136 375.449 369.136C407.012 369.136 432.684 394.814 432.684 426.376V348.631C416.637 336.782 396.881 329.688 375.449 329.688C322.137 329.688 278.756 373.079 278.756 426.376C278.756 479.694 322.147 523.064 375.449 523.064C428.767 523.064 472.137 479.69 472.137 426.376C472.137 437.272 463.304 446.111 452.419 446.111Z" fill="white"/>
<path d="M432.685 348.631C456.555 366.251 472.139 394.5 472.139 426.376V178.763L432.685 195.518V348.631Z" fill="white"/>
<path d="M444.725 11.6336L444.757 11.6284C444.746 11.6284 444.731 11.6336 444.725 11.6336Z" fill="white"/>
<path d="M432.685 348.631V426.376C432.685 437.272 441.524 446.111 452.42 446.111C463.305 446.111 472.149 437.272 472.149 426.376C472.139 394.502 456.556 366.262 432.685 348.631Z" fill="white"/>
<path d="M165.952 130.018L153.931 135.127V148.179C153.931 140.023 158.89 133.023 165.952 130.018Z" fill="white"/>
<path d="M193.379 254.258V297.132L432.685 195.507V152.647L193.379 254.258Z" fill="white"/>
<path d="M444.752 11.6296C447.106 10.6348 449.695 10.0827 452.413 10.0827C463.299 10.0827 472.143 18.916 472.143 29.812V0L444.752 11.6296Z" fill="white"/>
<path d="M193.379 148.164V161.227L432.672 59.6227V29.816C432.672 21.6494 437.636 14.644 444.708 11.644L166.002 129.993C168.356 129.009 170.939 128.457 173.648 128.457C184.543 128.441 193.377 137.275 193.377 148.165L193.379 148.164Z" fill="white"/>
<path d="M193.379 161.231V148.174C193.379 137.278 184.54 128.444 173.649 128.444C170.941 128.444 168.358 128.996 166.003 129.981L165.936 130.012C158.873 133.012 153.915 140.012 153.915 148.173V313.893L193.368 297.139V254.264L193.374 161.237L193.379 161.231Z" fill="white"/>
<path d="M452.419 10.0815C449.7 10.0815 447.111 10.6336 444.757 11.6285L444.726 11.6337C437.653 14.6337 432.69 21.6389 432.69 29.8057V195.499L472.143 178.744V29.811C472.138 18.9151 463.304 10.0815 452.419 10.0815Z" fill="white"/>
</svg>
